<?xml version="1.0" standalone="no"?>
<!DOCTYPE svg PUBLIC "-//W3C//DTD SVG 1.1//EN" "http://www.w3.org/Graphics/SVG/1.1/DTD/svg11.dtd" >
<svg xmlns="http://www.w3.org/2000/svg" xmlns:xlink="http://www.w3.org/1999/xlink" version="1.1">
<metadata></metadata>
<defs>
<font id="lemonmilkregular" horiz-adv-x="1112" >
<font-face units-per-em="2048" ascent="1638" descent="-410" />
<missing-glyph horiz-adv-x="600" />
<glyph horiz-adv-x="0" />
<glyph horiz-adv-x="682" />
<glyph unicode=" "  horiz-adv-x="600" />
<glyph unicode="&#x09;" horiz-adv-x="600" />
<glyph unicode="&#xa0;" horiz-adv-x="600" />
<glyph unicode="!" horiz-adv-x="594" d="M90 155q0 84 61 143.5t146 59.5q84 0 145.5 -61.5t61.5 -145.5t-61 -143t-146 -59t-146 60.5t-61 145.5zM108 1612h374l-51 -1145h-270q-4 138 -11 294.5t-13.5 278t-15 285.5t-13.5 287z" />
<glyph unicode="&#x22;" horiz-adv-x="807" d="M40 1653h325l-42 -525h-242zM442 1653h325l-42 -525h-242z" />
<glyph unicode="#" horiz-adv-x="1354" d="M50 309l29 230h231l40 309h-230l30 230h231l61 461h231l-61 -461h231l61 461h231l-61 -461h230l-29 -230h-231l-41 -309h231l-30 -230h-230l-42 -309h-231l41 309h-231l-41 -309h-231l41 309h-230zM542 539h230l41 309h-231z" />
<glyph unicode="$" horiz-adv-x="1072" d="M50 1132q0 87 30 166.5t80.5 139t116.5 102t140 61.5v167h243v-167q73 -19 138 -61.5t115 -102t79.5 -139t29.5 -166.5h-323q0 32 -13 62t-34.5 52t-52 35.5t-62.5 13.5q-43 0 -81 -23t-60 -60.5t-22 -79.5q0 -65 48.5 -114.5t114.5 -49.5q199 0 343 -142 q142 -142 142 -343q0 -70 -19 -136t-52.5 -120t-79 -98t-99.5 -74t-112 -45v-165h-243v165q-74 19 -140 61.5t-116 103t-79.5 140.5t-29.5 168h324q0 -66 48 -114t115 -48t114.5 47.5t47.5 114.5q0 66 -48 114t-114 48l-2 1q-202 0 -344 142q-143 143 -143 344z" />
<glyph unicode="%" horiz-adv-x="1552" d="M70 0l1019 1613h240l-1018 -1613h-241zM70 1289q0 87 44 161.5t119 118t161 43.5q85 0 159.5 -44.5t119 -119t44.5 -159.5q0 -86 -44 -160.5t-118.5 -119t-160.5 -44.5q-65 0 -125 26t-103.5 69t-69.5 103t-26 126zM272 1290.5q0 -58.5 38 -90.5q37 -32 84 -32 q48 0 83 36t37 86q1 47 -36.5 84.5t-82.5 38.5q-41 0 -83 -33q-40 -31 -40 -89.5zM757 362.5q0 97.5 49 181t133 132.5t181 49q148 0 255 -108q107 -105 107 -255q0 -97 -49 -180.5t-132.5 -132.5t-180.5 -49q-98 0 -181.5 49t-132.5 132.5t-49 181zM949 362 q0 -169 170 -169q169 0 169 169t-169 169q-170 0 -170 -169z" />
<glyph unicode="&#x26;" horiz-adv-x="1551" d="M70 502q3 140 71 227t143 159q7 7 27 22q-37 51 -69.5 138.5t-34.5 158.5q0 89 33 154t90 122q54 54 150 100t184 46q67 0 130 -19t114.5 -53t93 -79t69.5 -99t41 -112l-322 -68q-10 43 -44.5 72.5t-81.5 29.5q-107 0 -125 -96q-5 -26 34 -101q7 -13 18.5 -36t15 -29.5 t10 -19t11.5 -19.5t10 -15.5t14.5 -21t16.5 -22t24 -32.5t36.5 -46.5t41 -46.5t41.5 -43t46 -47.5t46 -49.5q57 -61 89 -89q5 24 8 52.5t4 48.5t2 59t2 58l303 4q-4 -144 -17 -239.5t-50 -177.5q3 -2 20 -13t23.5 -14.5t23.5 -14t27 -15t26.5 -13t29 -12t28 -8t30 -6 t28.5 -1.5l-1 -300q-56 0 -108.5 10.5t-103 33t-80.5 38.5t-78 45q-27 16 -48 35q-24 -28 -49.5 -49.5t-56 -39t-65.5 -31t-79 -24.5q-114 -29 -206 -29q-225 0 -381 152q-155 150 -155 366zM378 497q0 -41 21.5 -82.5t49.5 -67.5q47 -46 158 -46q49 0 119 23t87 49v-1 q-28 24 -134.5 120t-173.5 207q-44 -32 -87 -75t-40 -127z" />
<glyph unicode="'" horiz-adv-x="405" d="M40 1653h325l-42 -525h-242z" />
<glyph unicode="(" horiz-adv-x="744" d="M90 806q0 434 147 754q148 319 361 361l56 -263q-108 0 -182 -250q-75 -251 -75 -602q0 -350 75 -602q75 -249 182 -249l-56 -263q-212 42 -361 361q-147 319 -147 753z" />
<glyph unicode=")" horiz-adv-x="743" d="M90 -45q105 0 182 249q76 250 76 602q0 353 -76 602q-77 250 -182 250l56 263q213 -43 360 -361q147 -320 147 -754t-147 -753q-148 -318 -360 -361z" />
<glyph unicode="*" horiz-adv-x="786" d="M40 1202l222 117l-222 116l113 167l151 -114l-18 205h214l-18 -205l151 114l113 -167l-221 -116l221 -117l-113 -166l-151 114l18 -205h-214l18 205l-151 -114z" />
<glyph unicode="+" horiz-adv-x="1031" d="M70 544v283h304v405h283v-405h304v-283h-304v-405h-283v405h-304z" />
<glyph unicode="," horiz-adv-x="593" d="M80 146q0 88 63.5 151.5t151.5 63.5l-1 1q87 0 153 -66.5t66 -153.5q0 -89 -28.5 -155.5t-81.5 -126.5q-46 -51 -137 -84q-24 -7 -80.5 1.5t-65.5 20.5q-13 19 56.5 56.5t50.5 101.5q-63 21 -105 70t-42 120z" />
<glyph unicode="-" horiz-adv-x="930" d="M70 544v283h790v-283h-790z" />
<glyph unicode="." horiz-adv-x="594" d="M90 155q0 85 61 146t146 61q84 0 145.5 -61.5t61.5 -145.5q0 -85 -61 -145.5t-146 -60.5t-146 60.5t-61 145.5z" />
<glyph unicode="/" horiz-adv-x="977" d="M0 -205l693 2023h284l-694 -2023h-283z" />
<glyph unicode="0" horiz-adv-x="1356" d="M50 807q0 130 27 250.5t80.5 223t128 178.5t175.5 119t217 43q288 0 461 -244q167 -232 167 -570q0 -340 -167 -572q-174 -243 -461 -243q-97 0 -184.5 30.5t-155.5 84.5t-123 130t-91 166.5t-55 193t-19 210.5zM373 807q0 -235 106 -383q77 -105 198 -105q122 0 199 105 q105 147 105 383q0 234 -105 383q-77 105 -199 105q-121 0 -198 -105q-106 -151 -106 -383z" />
<glyph unicode="1" horiz-adv-x="637" d="M50 1143v338l487 138v-1619h-324v1191z" />
<glyph unicode="2" horiz-adv-x="1257" d="M50 0l55 184q67 47 137.5 103t138.5 115t132.5 121t118.5 121q111 121 180.5 227.5t69.5 175.5q0 103 -74 176.5t-177 73.5q-68 0 -125.5 -33.5t-91.5 -91.5t-34 -125h-324q0 238 168 406q169 168 408 168q238 0 406 -168q169 -169 169 -406q0 -144 -78 -283t-195 -264 q-5 -6 -33.5 -36t-38.5 -39.5t-32 -31.5t-40 -38t-38 -32h448v-323h-1150z" />
<glyph unicode="3" horiz-adv-x="1164" d="M50 399l318 81q5 -24 18.5 -46.5t33 -41.5t43.5 -32.5t52.5 -21.5t58.5 -8q87 0 150 57.5t63 141.5q0 117 -101 208.5t-291 100.5l68 134q127 24 185 83.5t58 131.5l-3 -2q0 53 -38.5 91.5t-91.5 38.5q-48 0 -83.5 -30t-43.5 -73l-322 69q16 72 56.5 137.5t98 115.5 t134.5 79.5t160 29.5q188 0 324 -134q134 -136 134 -325q0 -154 -89 -274q8 -6 11 -9q161 -155 161 -374q0 -220 -161 -374q-157 -153 -380 -153q-184 0 -330 110q-149 113 -193 289z" />
<glyph unicode="4" horiz-adv-x="1416" d="M50 346l481 1273l350 -2l-345 -948h345v627h323v-627h162v-323h-162v-346h-323v346h-831z" />
<glyph unicode="5" horiz-adv-x="1229" d="M50 340l322 103q75 -120 218 -120q103 0 177.5 70t74.5 170q0 99 -74 171q-39 38 -72.5 56.5t-86.5 18.5v1q-115 0 -172.5 -23t-152.5 -106l-180 93l82 838h861v-322h-592l-18 -190q50 15 79 19t93 4q220 0 395 -165.5t175 -393.5q0 -235 -173 -399q-173 -165 -416 -165 q-93 0 -180 27.5t-155.5 74.5t-121.5 108t-83 130z" />
<glyph unicode="6" horiz-adv-x="1234" d="M50 558q0 141 70 273q28 54 29 55l419 726l369 -2l-280 -487q220 -19 374 -179q153 -164 153 -386q0 -236 -167 -400q-166 -164 -401 -164q-236 0 -400 164q-166 164 -166 400zM375 558q0 -99 71.5 -170.5t172.5 -71.5q100 0 172 72t72 171t-72 171.5t-172 72.5l-1 -1 q-100 0 -171.5 -72t-71.5 -172z" />
<glyph unicode="7" horiz-adv-x="1202" d="M50 1296v316h1102l-511 -1618h-340l405 1302h-656z" />
<glyph unicode="8" horiz-adv-x="1153" d="M50 523q0 228 168 386q-86 117 -86 262q0 184 131 314q130 130 315 130q183 0 315 -130q130 -130 130 -314q0 -145 -86 -262h-1q167 -157 167 -386q0 -218 -154 -372q-153 -153 -372 -153t-372 153q-155 153 -155 372zM372 520q0 -83 59.5 -142.5t144.5 -59.5 q83 0 144 60.5t61 143.5q0 82 -61 144t-143 62l-3 -3q-55 0 -101.5 -28t-73.5 -75.5t-27 -101.5zM456 1173q0 -49 37 -85t87 -36l-2 -1q49 0 86 36t37 86q0 49 -37 85t-85 36q-49 0 -86 -36t-37 -85z" />
<glyph unicode="9" horiz-adv-x="1234" d="M50 1053q0 233 166 401q164 166 400 166q235 0 401 -166q167 -167 167 -401q0 -136 -63 -259q-5 -8 -17 -32.5t-17 -32.5l-420 -728l-371 -1l280 488q-222 16 -373 179q-153 163 -153 386zM373 1054q0 -99 72 -171t171 -72q100 0 172 72t72 171q0 49 -19.5 94t-52.5 78 t-78 52.5t-94 19.5q-100 0 -171.5 -72.5t-71.5 -171.5z" />
<glyph unicode=":" horiz-adv-x="574" d="M80 207q0 85 61 146t146 61q84 0 145.5 -61.5t61.5 -145.5q0 -85 -61 -146t-146 -61t-146 61t-61 146zM80 1120q0 85 61 146t146 61t146 -61t61 -146t-61 -145.5t-146 -60.5q-56 0 -103.5 27.5t-75.5 75t-28 103.5z" />
<glyph unicode=";" horiz-adv-x="593" d="M80 202q0 89 63.5 152t152.5 63l-2 1q88 0 153.5 -66t65.5 -154t-28.5 -155.5t-81.5 -125.5q-46 -51 -137 -84q-24 -7 -80.5 1.5t-65.5 20.5q-13 19 56.5 56.5t50.5 100.5q-63 20 -105 70t-42 120zM82 1120q0 85 61 146t146 61t146 -61t61 -146t-61 -145.5t-146 -60.5 q-56 0 -103.5 27.5t-75.5 75t-28 103.5z" />
<glyph unicode="&#x3c;" horiz-adv-x="1209" d="M40 650l1129 650v-317l-578 -333l578 -332v-318z" />
<glyph unicode="=" horiz-adv-x="970" d="M80 301v283h810v-283h-810zM80 786v284h810v-284h-810z" />
<glyph unicode="&#x3e;" horiz-adv-x="1209" d="M40 0v318l578 332l-578 333v317l1129 -650z" />
<glyph unicode="?" d="M40 1136q-1 214 151 365t364 151q213 0 364.5 -151.5t152.5 -364.5q0 -99 -45 -166q-49 -69 -106 -126q-89 -88 -167 -171q-79 -84 -47 -235l-346 -1v29q0 158 52 251q57 102 150 190q50 49 107 117q56 67 57 112q-1 69 -52 121t-121 52t-121 -52t-51 -121h-342zM339 155 q0 84 61 143.5t146 59.5t146 -61.5t61 -145.5q0 -56 -28 -102.5t-75.5 -73t-103.5 -26.5q-85 0 -146 60.5t-61 145.5z" />
<glyph unicode="@" horiz-adv-x="2158" d="M50 802q0 439 293 734q300 299 737 299q452 0 741 -285q287 -289 287 -734q0 -252 -147.5 -455t-427.5 -183q-78 5 -140 38.5t-102 86t-64 124.5q-25 -36 -76.5 -53.5t-115.5 -17.5q-163 0 -290 129q-129 127 -129 309q0 163 116.5 301t287.5 138q36 0 101.5 -25 t87.5 -67v93h273l2 -616q0 -93 42.5 -126.5t78.5 -23.5q105 28 149 147.5t44 203.5q0 315 -198 512q-196 194 -523 194l4 -1q-312 0 -517 -203t-205 -518t206 -516q203 -203 516 -203q236 0 325 40l110 -285q-46 -22 -93.5 -34.5t-109.5 -18t-104.5 -6.5t-127.5 -1 q-442 0 -737 290q-294 292 -294 733zM901 794q0 -65 44.5 -110.5t109.5 -45.5q71 0 112 40.5t43 113.5q0 70 -43 112.5t-111 42.5l-2 1q-31 0 -59 -12.5t-48.5 -33t-33 -49t-12.5 -59.5z" />
<glyph unicode="A" horiz-adv-x="1551" d="M40 0l735 1645l736 -1645h-351l-109 245h-552l-109 -245h-350zM627 531h296l-147 341z" />
<glyph unicode="B" horiz-adv-x="1242" d="M100 0v1612h338h112q187 0 320 -134q128 -130 128 -307q0 -53 -20.5 -114.5t-46.5 -108.5q80 -40 124 -82q147 -149 147 -358q0 -210 -147 -358q-147 -150 -356 -150h-599zM423 316h64h212q78 0 132.5 56.5t54.5 135.5t-55.5 136t-131.5 62q-43 2 -87 2q-15 0 -31 1 q-33 0 -71 -1q-58 -1 -87 -1v-391zM423 1002q43 2 121 8q39 4 71 23.5t51.5 52t19.5 72.5q0 56 -40 97.5t-96 41.5h-127v-295z" />
<glyph unicode="C" horiz-adv-x="1477" d="M40 805q0 337 240 579q241 241 577 241l-1 -4q175 0 322.5 -66.5t257.5 -172.5l-231 -231q-146 144 -347 144q-204 0 -346 -144q-144 -146 -144 -347q0 -203 144 -347q143 -143 346 -143q204 0 348 144l231 -231q-108 -107 -255 -172.5t-325 -65.5q-338 1 -577 238 q-240 240 -240 578z" />
<glyph unicode="D" horiz-adv-x="1374" d="M100 0v1611h429v1q181 0 330 -64t259 -173q216 -217 216 -570.5t-216 -568.5q-238 -236 -589 -236h-429zM423 323h108q218 0 349 132.5t131 351.5q0 217 -133 350.5t-350 133.5h-105v-968z" />
<glyph unicode="E" d="M100 -2v1618h972v-323h-648v-325h486v-323h-486v-325h648v-322h-972z" />
<glyph unicode="F" d="M100 -2v1618h972v-323h-648v-325h486v-323h-486v-647h-324z" />
<glyph unicode="G" horiz-adv-x="1713" d="M40 805q0 337 240 579q238 241 577 241l1 -3q73 0 143 -12.5t130.5 -34t116.5 -52.5t102 -65.5t87 -74.5l-231 -231q-147 145 -346 145q-203 0 -346 -145q-144 -144 -144 -347t144 -347q142 -144 346 -144q150 0 268 80.5t174 201.5h-460v309h828q3 -44 3 -87 q0 -354 -238 -591q-241 -239 -578 -239q-340 0 -577 239q-240 238 -240 578z" />
<glyph unicode="H" horiz-adv-x="1385" d="M100 0v1612h323v-645h539v645h323v-1612h-323v646h-539v-646h-323z" />
<glyph unicode="I" horiz-adv-x="524" d="M100 0v1612h324v-1612h-324z" />
<glyph unicode="J" horiz-adv-x="1156" d="M40 95l164 284q85 -72 200 -72h7q44 0 85.5 12t77 33.5t65 52t50 66t32 77t11.5 84.5v324l-6 656l324 -1l6 -650v-331q0 -271 -191 -459q-188 -184 -452 -188h-11q-204 2 -362 112z" />
<glyph unicode="K" horiz-adv-x="1327" d="M100 0v1612h323v-713l413 713h374l-477 -819l554 -793h-394l-470 676v-676h-323z" />
<glyph unicode="L" d="M100 0v1612h324v-1290h648v-322h-972z" />
<glyph unicode="M" horiz-adv-x="1779" d="M100 0v1650l790 -1083l789 1083v-1650h-324v668l-465 -642l-466 642v-668h-324z" />
<glyph unicode="N" horiz-adv-x="1496" d="M100 -2v1648l971 -925v895h325v-1649l-972 926v-895h-324z" />
<glyph unicode="O" horiz-adv-x="1715" d="M40 805q0 337 240 579q241 241 578 241t578 -241t241 -579q0 -339 -241 -578q-240 -238 -578 -238q-339 1 -578 238q-240 240 -240 578zM367 807q0 -203 144 -347q143 -143 347 -143q201 0 346 143t145 347q0 202 -145 347q-144 144 -346 144q-205 0 -347 -144 q-144 -146 -144 -347z" />
<glyph unicode="P" horiz-adv-x="1273" d="M100 0v484v1128h566q235 0 400 -165q167 -166 167 -400q0 -236 -167 -398q-167 -165 -400 -165h-242v-484h-324zM424 805l242 -1q99 0 171 72t72 171t-72 171.5t-171 72.5h-242v-486z" />
<glyph unicode="Q" horiz-adv-x="1769" d="M40 805q0 337 240 579q238 241 577 241q338 0 579 -241q241 -243 241 -579q0 -299 -190 -522q97 -34 242 -43l-26 -316q-164 11 -284 44t-216 95q-154 -73 -346 -73q-341 0 -577 238q-240 238 -240 577zM367 808q0 -205 144 -347q142 -144 346 -144q34 0 74 5 q-78 71 -132 100q-57 29 -129 34l19 318q143 -11 258 -71q40 -21 88.5 -56.5t98 -79t88.5 -87.5q126 138 126 328q0 202 -144 346q-146 144 -347 144q-204 0 -346 -144q-144 -144 -144 -346z" />
<glyph unicode="R" horiz-adv-x="1323" d="M100 1612h526q129 0 237 -44t185 -120q40 -40 66.5 -74.5t48 -78t31.5 -96t10 -117.5v-42q0 -163 -102 -307q-42 -59 -83 -90.5t-110 -58.5l375 -584h-396l-463 713v-713h-324zM424 846h125v-1h108q88 0 150.5 67t62.5 160q0 88 -64 155q-31 30 -85.5 47t-114.5 17h-182 v-445z" />
<glyph unicode="S" horiz-adv-x="1107" d="M40 411l322 68q0 -65 59 -114t130 -49l-2 1q45 0 88.5 22t71.5 60.5t28 81.5q0 27 -8.5 50t-23 39t-36.5 30.5t-44 24.5t-50 19t-51 15.5t-50.5 14t-45.5 13.5q-75 26 -140.5 68.5t-117.5 98.5t-82 129t-30 152q0 100 39 191t105 157t157.5 104.5t191.5 38.5 q122 0 227.5 -55.5t174 -152t84.5 -215.5l-322 -68q0 67 -48 115t-114 48q-68 0 -116.5 -48.5t-48.5 -115.5q0 -27 9.5 -51.5t23 -42t38 -34t43 -26.5t51 -22t50.5 -17.5t51 -14.5l30 -9q44 -12 85.5 -30.5t79.5 -42.5t71 -53t60 -64t46.5 -73t30 -83t10.5 -92 q0 -99 -42.5 -190.5t-113 -157t-165 -104.5t-194.5 -39q-123 0 -234 55t-185.5 152.5t-92.5 215.5z" />
<glyph unicode="T" horiz-adv-x="1198" d="M40 1291v321h1118v-321h-396v-1291h-325v1291h-397z" />
<glyph unicode="U" horiz-adv-x="1504" d="M100 636v976h326v-975q0 -132 96.5 -228t229.5 -96q132 0 229 96.5t97 227.5v975h326v-976q0 -270 -191 -461q-192 -190 -460 -190q-271 0 -462 190q-191 191 -191 461z" />
<glyph unicode="V" horiz-adv-x="1537" d="M40 1612h343l383 -883l384 883h347l-730 -1648z" />
<glyph unicode="W" horiz-adv-x="1971" d="M40 1612h349l298 -763l299 763l298 -763l297 763h350l-647 -1648l-302 802l-295 -802z" />
<glyph unicode="X" horiz-adv-x="1375" d="M40 1l460 806l-460 805h372l275 -479l276 479h372l-462 -805l462 -807h-372l-276 481l-275 -481z" />
<glyph unicode="Y" horiz-adv-x="1401" d="M40 1612h366l294 -559l294 559h367l-500 -921v-691h-322v691z" />
<glyph unicode="Z" horiz-adv-x="1214" d="M40 0l620 1291h-620v321h1134l-620 -1290h620v-322h-1134z" />
<glyph unicode="[" horiz-adv-x="875" d="M100 806q0 91 45.5 169.5t123.5 124t169 45.5q68 0 130.5 -27t107.5 -73t72 -108.5t27 -130.5q0 -91 -45.5 -169t-123 -123.5t-168.5 -45.5q-92 0 -169.5 45.5t-123 123t-45.5 169.5z" />
<glyph unicode="\" horiz-adv-x="936" d="M0 1818h243l693 -2023h-243z" />
<glyph unicode="]" horiz-adv-x="875" d="M100 806q0 91 45.5 169.5t123.5 124t169 45.5q68 0 130.5 -27t107.5 -73t72 -108.5t27 -130.5q0 -91 -45.5 -169t-123 -123.5t-168.5 -45.5q-92 0 -169.5 45.5t-123 123t-45.5 169.5z" />
<glyph unicode="^" horiz-adv-x="988" d="M40 848l453 777l455 -777h-281l-174 295l-173 -295h-280z" />
<glyph unicode="_" horiz-adv-x="1209" d="M0 -110v221h1209v-221h-1209z" />
<glyph unicode="`" horiz-adv-x="501" d="M10 1597l273 136l208 -565l-168 -81z" />
<glyph unicode="a" horiz-adv-x="1551" d="M40 0l735 1645l736 -1645h-351l-109 245h-552l-109 -245h-350zM627 531h296l-147 341z" />
<glyph unicode="b" horiz-adv-x="1242" d="M100 0v1612h338h112q187 0 320 -134q128 -130 128 -307q0 -36 -11 -80t-25.5 -79t-30.5 -64q80 -40 124 -82q147 -149 147 -358q0 -210 -147 -358q-147 -150 -356 -150h-599zM423 316h64h212q78 0 132.5 56.5t54.5 135.5t-55.5 136t-131.5 62q-43 2 -87 2q-15 0 -31 1 q-33 0 -71 -1q-58 -1 -87 -1v-391zM423 1002q43 2 121 8q29 3 54.5 15.5t45 31t31 45t11.5 56.5q0 56 -40 97.5t-96 41.5h-127v-295z" />
<glyph unicode="c" horiz-adv-x="1477" d="M40 805q0 337 240 579q241 241 577 241l-1 -4q175 0 322.5 -66.5t257.5 -172.5l-231 -231q-146 144 -347 144q-204 0 -346 -144q-144 -146 -144 -347q0 -203 144 -347q143 -143 346 -143q204 0 348 144l231 -231q-108 -107 -255 -172.5t-325 -65.5q-338 1 -577 238 q-240 240 -240 578z" />
<glyph unicode="d" horiz-adv-x="1374" d="M100 0v1611h429v1q181 0 330 -64t259 -173q216 -217 216 -570.5t-216 -568.5q-238 -236 -589 -236h-429zM423 323h108q218 0 349 132.5t131 351.5q0 217 -133 350.5t-350 133.5h-105v-968z" />
<glyph unicode="e" d="M100 -2v1618h972v-323h-648v-325h486v-323h-486v-325h648v-322h-972z" />
<glyph unicode="f" d="M100 -2v1618h972v-323h-648v-325h486v-323h-486v-647h-324z" />
<glyph unicode="g" horiz-adv-x="1713" d="M40 805q0 337 240 579q238 241 577 241l1 -3q175 0 323 -66t256 -173l-231 -231q-147 145 -346 145q-203 0 -346 -145q-144 -144 -144 -347t144 -347q142 -144 346 -144q150 0 268 80.5t174 201.5h-460v309h828q3 -44 3 -87q0 -354 -238 -591q-241 -239 -578 -239 q-340 0 -577 239q-240 238 -240 578z" />
<glyph unicode="h" horiz-adv-x="1385" d="M100 0v1612h323v-645h539v645h323v-1612h-323v646h-539v-646h-323z" />
<glyph unicode="i" horiz-adv-x="524" d="M100 0v1612h324v-1612h-324z" />
<glyph unicode="j" horiz-adv-x="1156" d="M40 95l164 284q85 -72 200 -72h7q133 0 227 96.5t94 228.5v324l-6 656l324 -1l6 -650v-331q0 -271 -191 -459q-188 -184 -452 -188h-11q-204 2 -362 112z" />
<glyph unicode="k" horiz-adv-x="1327" d="M100 0v1612h323v-713l413 713h374l-477 -819l554 -793h-394l-470 676v-676h-323z" />
<glyph unicode="l" d="M100 0v1612h324v-1290h648v-322h-972z" />
<glyph unicode="m" horiz-adv-x="1779" d="M100 0v1650l790 -1083l789 1083v-1650h-324v668l-465 -642l-466 642v-668h-324z" />
<glyph unicode="n" horiz-adv-x="1496" d="M100 -2v1648l971 -925v895h325v-1649l-972 926v-895h-324z" />
<glyph unicode="o" horiz-adv-x="1715" d="M40 805q0 337 240 579q241 241 578 241t578 -241t241 -579q0 -339 -241 -578q-240 -238 -578 -238q-339 1 -578 238q-240 240 -240 578zM367 807q0 -203 144 -347q143 -143 347 -143q201 0 346 143t145 347q0 202 -145 347q-144 144 -346 144q-205 0 -347 -144 q-144 -146 -144 -347z" />
<glyph unicode="p" horiz-adv-x="1273" d="M100 0v484v1128h566q235 0 400 -165q167 -166 167 -400q0 -236 -167 -398q-167 -165 -400 -165h-242v-484h-324zM424 805l242 -1q99 0 171 72t72 171t-72 171.5t-171 72.5h-242v-486z" />
<glyph unicode="q" horiz-adv-x="1769" d="M40 805q0 337 240 579q238 241 577 241q338 0 579 -241q241 -243 241 -579q0 -299 -190 -522q97 -34 242 -43l-26 -316q-164 11 -284 44t-216 95q-154 -73 -346 -73q-341 0 -577 238q-240 238 -240 577zM367 808q0 -205 144 -347q142 -144 346 -144q34 0 74 5 q-78 71 -132 100q-57 29 -129 34l19 318q143 -11 258 -71q40 -21 88.5 -56.5t98 -79t88.5 -87.5q126 138 126 328q0 202 -144 346q-146 144 -347 144q-204 0 -346 -144q-144 -144 -144 -346z" />
<glyph unicode="r" horiz-adv-x="1323" d="M100 1612h526q129 0 237 -44t185 -120q54 -54 85.5 -100t51 -113t19.5 -153v-42q0 -163 -102 -307q-42 -59 -83 -90.5t-110 -58.5l375 -584h-396l-463 713v-713h-324zM424 846h125v-1h108q88 0 150.5 67t62.5 160q0 88 -64 155q-31 30 -85.5 47t-114.5 17h-182v-445z" />
<glyph unicode="s" horiz-adv-x="1107" d="M40 411l322 68q0 -65 59 -114t130 -49l-2 1q45 0 88.5 22t71.5 60.5t28 81.5q0 27 -8.5 50t-23 39t-36.5 30.5t-44 24.5t-50 19t-51 15.5t-50.5 14t-45.5 13.5q-75 26 -140.5 68.5t-117.5 98.5t-82 129t-30 152q0 100 39 191t105 157t157.5 104.5t191.5 38.5 q122 0 227.5 -55.5t174 -152t84.5 -215.5l-322 -68q0 67 -48 115t-114 48q-68 0 -116.5 -48.5t-48.5 -115.5q0 -27 9.5 -51.5t23 -42t38 -34t43 -26.5t51 -22t50.5 -17.5t51 -14.5l30 -9q44 -12 85.5 -30.5t79.5 -42.5t71 -53t60 -64t46.5 -73t30 -83t10.5 -92 q0 -99 -42.5 -190.5t-113 -157t-165 -104.5t-194.5 -39q-123 0 -234 55t-185.5 152.5t-92.5 215.5z" />
<glyph unicode="t" horiz-adv-x="1198" d="M40 1291v321h1118v-321h-396v-1291h-325v1291h-397z" />
<glyph unicode="u" horiz-adv-x="1504" d="M100 636v976h326v-975q0 -132 96.5 -228t229.5 -96q132 0 229 96.5t97 227.5v975h326v-976q0 -270 -191 -461q-192 -190 -460 -190q-271 0 -462 190q-191 191 -191 461z" />
<glyph unicode="v" horiz-adv-x="1537" d="M40 1612h343l383 -883l384 883h347l-730 -1648z" />
<glyph unicode="w" horiz-adv-x="1971" d="M40 1612h349l298 -763l299 763l298 -763l297 763h350l-647 -1648l-302 802l-295 -802z" />
<glyph unicode="x" horiz-adv-x="1375" d="M40 1l460 806l-460 805h372l275 -479l276 479h372l-462 -805l462 -807h-372l-276 481l-275 -481z" />
<glyph unicode="y" horiz-adv-x="1401" d="M40 1612h366l294 -559l294 559h367l-500 -921v-691h-322v691z" />
<glyph unicode="z" horiz-adv-x="1214" d="M40 0l620 1291h-620v321h1134l-620 -1290h620v-322h-1134z" />
<glyph unicode="{" horiz-adv-x="1003" d="M100 806q0 109 54 201.5t146.5 147t201.5 54.5q165 0 283 -118t118 -285t-118 -284.5t-283 -117.5q-109 0 -201.5 54t-146.5 146.5t-54 201.5zM336 805q0 -68 49 -117t117 -49t116.5 49t48.5 117t-48.5 117.5t-116.5 49.5t-117 -49t-49 -118z" />
<glyph unicode="|" horiz-adv-x="593" d="M200 -205v2023h193v-2023h-193z" />
<glyph unicode="}" horiz-adv-x="1003" d="M100 806q0 109 54 201.5t146.5 147t201.5 54.5q165 0 283 -118t118 -285t-118 -284.5t-283 -117.5q-109 0 -201.5 54t-146.5 146.5t-54 201.5zM336 805q0 -68 49 -117t117 -49t116.5 49t48.5 117t-48.5 117.5t-116.5 49.5t-117 -49t-49 -118z" />
<glyph unicode="~" horiz-adv-x="1240" d="M60 867q108 117 211 150t385 -86q258 -111 343 -76.5t181 140.5l-3 -293l2 -1q-100 -125 -210 -110.5t-350 101.5q-255 90 -341.5 60t-210.5 -156z" />
<glyph horiz-adv-x="1992" />
<glyph unicode="&#xa1;" horiz-adv-x="594" d="M90 1215q0 85 61 146t146 61t146 -59t61 -143q0 -85 -61 -146t-146 -61q-86 0 -146.5 58.5t-60.5 143.5zM108 -241q4 81 25 495t28 650h270l51 -1145h-374z" />
<glyph unicode="&#xa2;" horiz-adv-x="1270" d="M40 804q0 287 205 491q157 159 364 195v330l211 1v-325q120 -14 225 -68t185 -131l-198 -197q-126 123 -297 123q-174 0 -295 -123q-121 -124 -121 -297q0 -114 55.5 -210t151 -152t209.5 -56q175 0 297 123l198 -198q-80 -80 -184 -133.5t-226 -67.5v-316h-211v323 q-206 35 -364 194q-205 203 -205 494z" />
<glyph unicode="&#xa3;" horiz-adv-x="1148" d="M40 676v181h106v24l-1 92q0 267 190 457q187 185 451 189h12q101 -1 144.5 -16t142.5 -51l-164 -282q-49 24 -124 26h-6q-88 0 -162.5 -45t-117 -119.5t-42.5 -159.5v-115h338v-181h-338v-236h-2v-119h641v-321h-1046v321h84v355h-106z" />
<glyph unicode="&#xa4;" horiz-adv-x="1159" d="M60 411l182 178q-64 101 -62 221.5t67 218.5l-178 181l116 115l177 -181q100 64 221 64t220 -65l180 177l116 -116l-179 -177q66 -101 65 -223.5t-68 -221.5l177 -180l-115 -114l-179 180q-102 -66 -224 -64.5t-220 69.5l-182 -178zM416 808.5q-1 -69.5 47 -117.5 q48 -49 116.5 -49.5t117.5 47.5q48 48 49 116q1 52 -28.5 93t-72.5 59.5t-93 11.5t-87 -44q-48 -47 -49 -116.5z" />
<glyph unicode="&#xa5;" horiz-adv-x="1409" d="M60 1612h366l278 -511l278 511h367l-411 -754h398v-199h-471v-108h471v-199h-471v-352h-322v352h-470v199h470v108h-470v199h397z" />
<glyph unicode="&#xa6;" horiz-adv-x="593" d="M200 -205v868h193v-868h-193zM200 948v870h193v-870h-193z" />
<glyph unicode="&#xa7;" horiz-adv-x="1131" d="M80 783q0 106 44 199.5t125 165.5q-29 24 -56.5 53.5t-53 66t-39.5 70.5q-16 40 -16 106q0 198 142 340q140 142 341 142q200 0 341 -142q142 -141 142 -340h-320q0 64 -48.5 112t-112.5 48q-65 0 -113 -48t-48 -113q0 -43 17 -61q17 -17 74 -52t69 -39q21 -6 107 -31 q188 -54 309 -209q67 -87 67 -221q0 -214 -172 -369q111 -89 151 -185q17 -41 17 -107q0 -199 -142 -340q-142 -142 -341 -142q-201 0 -341 142q-142 142 -142 340h321q0 -66 47.5 -113.5t113.5 -47.5l-1 2q101 0 154 107.5t-74 154.5q-62 22 -97.5 34.5t-100.5 36.5 q-184 62 -299 220q-65 89 -65 220zM407 813q15 -139 152.5 -142t165.5 130q-17 134 -154 139.5t-164 -127.5z" />
<glyph unicode="&#xa8;" horiz-adv-x="1992" d="M70 76v1460h1852v-1460h-1852zM103 108h1787v1395h-1787v-1395zM136 799l62 505l202 -331l284 331q-75 -613 -133 -1079l-263 284l-33 -275h-100l62 507l262 -285q31 253 67 548l-167 -197l-118 197l-25 -205h-100zM627 236l61 498h297l-12 -99h-198l-13 -101h149 l-12 -99h-149l-12 -100h199l-12 -99h-298zM645 799l287 504l165 -504q20 -68 60.5 -197t44.5 -142l150 272h107l-286 -507l-162 507l-26 74q-2 6 -10 31t-12 38h-169l-1 -4l-42 -72h-106zM845 961h88l-31 104zM1133 798q19 136 42 322l21 173h161q79 0 122.5 -50t32.5 -129 q-7 -49 -40 -88t-81 -56l90 -172h-121l-103 194l-24 -194h-100zM1266 1055l72 -1q19 0 37 12.5t27.5 31t8.5 40t-15 37.5q-18 20 -58 20h-55q-8 -69 -17 -140zM1537 944h101q-3 -14 3 -26t17 -18.5t24 -6.5q21 0 37 15.5t19 35.5q2 14 -3 23.5t-11 13t-20 9.5t-19 8v4 q-27 9 -47 19.5t-40.5 27t-30 42t-5.5 57.5q3 29 18 56t37.5 47t52.5 32.5t61 12.5q60 0 99.5 -43t32.5 -105h-100q1 22 -12 36.5t-33 14.5q-22 0 -39 -17.5t-17.5 -37.5t17.5 -37q17 -13 26 -17t31 -9q112 -41 103 -137q-5 -39 -29 -73t-61.5 -55t-78.5 -21 q-62 0 -101.5 43.5t-31.5 105.5z" />
<glyph unicode="&#xa9;" horiz-adv-x="1060" d="M80 1162q0 187 132 318q130 132 318 132q187 0 318 -132q132 -131 132 -318q0 -186 -132 -318t-318 -132t-318 132t-132 318zM174 1162q0 -96 48 -178t130.5 -130t177.5 -48q96 0 178 48t130 130t48 178t-48 178.5t-130 130.5t-178 48t-178 -48t-130 -130.5t-48 -178.5z M278 1162q0 103 74 177.5t178 74.5l-1 -1q99 0 179 -74l-72 -71q-44 45 -106 45q-61 0 -106 -44.5t-45 -106.5t44.5 -106.5t106.5 -44.5q61 0 107 44l71 -71q-77 -73 -178 -73q-68 0 -126 34t-92 91.5t-34 125.5z" />
<glyph unicode="&#xab;" horiz-adv-x="1425" d="M100 650l550 -470l155 118l-360 352l360 353l-155 117zM620 650l550 -470l155 118l-360 352l360 353l-155 117z" />
<glyph unicode="&#xac;" horiz-adv-x="1992" d="M70 76v1460h1852v-1460h-1852zM103 108h1787v1395h-1787v-1395zM136 799l62 505l202 -331l284 331q-75 -613 -133 -1079l-263 284l-33 -275h-100l62 507l262 -285q31 253 67 548l-167 -197l-118 197l-25 -205h-100zM627 236l61 498h297l-12 -99h-198l-13 -101h149 l-12 -99h-149l-12 -100h199l-12 -99h-298zM645 799l287 504l165 -504q20 -68 60.5 -197t44.5 -142l150 272h107l-286 -507l-162 507l-26 74q-2 6 -10 31t-12 38h-169l-1 -4l-42 -72h-106zM845 961h88l-31 104zM1133 798q19 136 42 322l21 173h161q79 0 122.5 -50t32.5 -129 q-7 -49 -40 -88t-81 -56l90 -172h-121l-103 194l-24 -194h-100zM1266 1055l72 -1q19 0 37 12.5t27.5 31t8.5 40t-15 37.5q-18 20 -58 20h-55q-8 -69 -17 -140zM1537 944h101q-3 -14 3 -26t17 -18.5t24 -6.5q21 0 37 15.5t19 35.5q2 14 -3 23.5t-11 13t-20 9.5t-19 8v4 q-27 9 -47 19.5t-40.5 27t-30 42t-5.5 57.5q3 29 18 56t37.5 47t52.5 32.5t61 12.5q60 0 99.5 -43t32.5 -105h-100q1 22 -12 36.5t-33 14.5q-22 0 -39 -17.5t-17.5 -37.5t17.5 -37q17 -13 26 -17t31 -9q112 -41 103 -137q-5 -39 -29 -73t-61.5 -55t-78.5 -21 q-62 0 -101.5 43.5t-31.5 105.5z" />
<glyph unicode="&#xad;" horiz-adv-x="930" d="M70 544v283h790v-283h-790z" />
<glyph unicode="&#xae;" horiz-adv-x="1060" d="M80 1162q0 187 132 318q130 132 318 132q187 0 318 -132q132 -131 132 -318q0 -186 -132 -318t-318 -132t-318 132t-132 318zM174 1162q0 -96 48 -178t130.5 -130t177.5 -48q96 0 178 48t130 130t48 178t-48 178.5t-130 130.5t-178 48t-178 -48t-130 -130.5t-48 -178.5z M365 914v498h162q74 0 126 -47.5t52 -117.5v-15q0 -51 -28.5 -89t-74.5 -56l112 -173h-121l-128 195v-195h-100zM465 1173l71 -1q18 0 33.5 10t24 26.5t8.5 35.5q0 33 -22 51t-59 18h-56v-140z" />
<glyph unicode="&#xaf;" horiz-adv-x="1992" d="M70 76v1460h1852v-1460h-1852zM103 108h1787v1395h-1787v-1395zM136 799l62 505l202 -331l284 331q-75 -613 -133 -1079l-263 284l-33 -275h-100l62 507l262 -285q31 253 67 548l-167 -197l-118 197l-25 -205h-100zM627 236l61 498h297l-12 -99h-198l-13 -101h149 l-12 -99h-149l-12 -100h199l-12 -99h-298zM645 799l287 504l165 -504q20 -68 60.5 -197t44.5 -142l150 272h107l-286 -507l-162 507l-26 74q-2 6 -10 31t-12 38h-169l-1 -4l-42 -72h-106zM845 961h88l-31 104zM1133 798q19 136 42 322l21 173h161q79 0 122.5 -50t32.5 -129 q-7 -49 -40 -88t-81 -56l90 -172h-121l-103 194l-24 -194h-100zM1266 1055l72 -1q19 0 37 12.5t27.5 31t8.5 40t-15 37.5q-18 20 -58 20h-55q-8 -69 -17 -140zM1537 944h101q-3 -14 3 -26t17 -18.5t24 -6.5q21 0 37 15.5t19 35.5q2 14 -3 23.5t-11 13t-20 9.5t-19 8v4 q-27 9 -47 19.5t-40.5 27t-30 42t-5.5 57.5q3 29 18 56t37.5 47t52.5 32.5t61 12.5q60 0 99.5 -43t32.5 -105h-100q1 22 -12 36.5t-33 14.5q-22 0 -39 -17.5t-17.5 -37.5t17.5 -37q17 -13 26 -17t31 -9q112 -41 103 -137q-5 -39 -29 -73t-61.5 -55t-78.5 -21 q-62 0 -101.5 43.5t-31.5 105.5z" />
<glyph unicode="&#xb0;" horiz-adv-x="684" d="M60 1491q0 115 83.5 199t198.5 84t198.5 -83.5t83.5 -199.5t-83.5 -199t-198.5 -83t-198.5 83.5t-83.5 198.5zM203 1492q0 -58 40.5 -98.5t98.5 -40.5q57 0 98 41t41 98t-41 98t-98 41q-37 0 -69 -19t-51 -51t-19 -69z" />
<glyph unicode="&#xb1;" horiz-adv-x="1992" d="M70 76v1460h1852v-1460h-1852zM103 108h1787v1395h-1787v-1395zM136 799l62 505l202 -331l284 331q-75 -613 -133 -1079l-263 284l-33 -275h-100l62 507l262 -285q31 253 67 548l-167 -197l-118 197l-25 -205h-100zM627 236l61 498h297l-12 -99h-198l-13 -101h149 l-12 -99h-149l-12 -100h199l-12 -99h-298zM645 799l287 504l165 -504q20 -68 60.5 -197t44.5 -142l150 272h107l-286 -507l-162 507l-26 74q-2 6 -10 31t-12 38h-169l-1 -4l-42 -72h-106zM845 961h88l-31 104zM1133 798q19 136 42 322l21 173h161q79 0 122.5 -50t32.5 -129 q-7 -49 -40 -88t-81 -56l90 -172h-121l-103 194l-24 -194h-100zM1266 1055l72 -1q19 0 37 12.5t27.5 31t8.5 40t-15 37.5q-18 20 -58 20h-55q-8 -69 -17 -140zM1537 944h101q-3 -14 3 -26t17 -18.5t24 -6.5q21 0 37 15.5t19 35.5q2 14 -3 23.5t-11 13t-20 9.5t-19 8v4 q-27 9 -47 19.5t-40.5 27t-30 42t-5.5 57.5q3 29 18 56t37.5 47t52.5 32.5t61 12.5q60 0 99.5 -43t32.5 -105h-100q1 22 -12 36.5t-33 14.5q-22 0 -39 -17.5t-17.5 -37.5t17.5 -37q17 -13 26 -17t31 -9q112 -41 103 -137q-5 -39 -29 -73t-61.5 -55t-78.5 -21 q-62 0 -101.5 43.5t-31.5 105.5z" />
<glyph unicode="&#xb2;" horiz-adv-x="1992" d="M70 76v1460h1852v-1460h-1852zM103 108h1787v1395h-1787v-1395zM136 799l62 505l202 -331l284 331q-75 -614 -133 -1079l-263 284l-33 -275h-100l62 507l262 -285q31 253 67 548l-167 -197l-118 197l-25 -205h-100zM627 236l61 498h297l-12 -99h-198l-13 -101h149 l-12 -99h-149l-12 -100h199l-12 -99h-298zM645 799l287 504l165 -504q15 -51 32.5 -108t39 -124.5t33.5 -106.5l150 272h107l-286 -507l-162 507l-26 74q-2 6 -10 31t-12 38h-169l-1 -4l-42 -72h-106zM845 961h88l-31 104zM1133 798q19 136 42 322l21 173h161 q79 0 122.5 -50t32.5 -129q-7 -49 -40 -88t-81 -56l90 -172h-121l-103 194l-24 -194h-100zM1266 1055l72 -1q19 0 37 12.5t27.5 31t8.5 40t-15 37.5q-18 20 -58 20h-55q-8 -69 -17 -140zM1537 944h101q-3 -14 3 -26t17 -18.5t24 -6.5q21 0 37 15.5t19 35.5q1 11 -1 19 t-8.5 13.5t-12 8t-16 6.5t-15.5 7v4q-27 9 -47 19.5t-40.5 27t-30 42t-5.5 57.5q7 59 56.5 103.5t112.5 44.5q60 0 99.5 -43t32.5 -105h-100q1 22 -12 36.5t-33 14.5q-22 0 -39 -17.5t-17.5 -37.5t17.5 -37q17 -13 26 -17t31 -9q112 -41 103 -137q-5 -39 -29 -73t-61.5 -55 t-78.5 -21q-62 0 -101.5 43.5t-31.5 105.5z" />
<glyph unicode="&#xb3;" horiz-adv-x="1992" d="M70 76v1460h1852v-1460h-1852zM103 108h1787v1395h-1787v-1395zM136 799l62 505l202 -331l284 331q-75 -614 -133 -1079l-263 284l-33 -275h-100l62 507l262 -285q31 253 67 548l-167 -197l-118 197l-25 -205h-100zM627 236l61 498h297l-12 -99h-198l-13 -101h149 l-12 -99h-149l-12 -100h199l-12 -99h-298zM645 799l287 504l165 -504q15 -51 32.5 -108t39 -124.5t33.5 -106.5l150 272h107l-286 -507l-162 507l-26 74q-2 6 -10 31t-12 38h-169l-1 -4l-42 -72h-106zM845 961h88l-31 104zM1133 798q19 136 42 322l21 173h161 q79 0 122.5 -50t32.5 -129q-7 -49 -40 -88t-81 -56l90 -172h-121l-103 194l-24 -194h-100zM1266 1055l72 -1q19 0 37 12.5t27.5 31t8.5 40t-15 37.5q-18 20 -58 20h-55q-8 -69 -17 -140zM1537 944h101q-3 -14 3 -26t17 -18.5t24 -6.5q21 0 37 15.5t19 35.5q1 11 -1 19 t-8.5 13.5t-12 8t-16 6.5t-15.5 7v4q-27 9 -47 19.5t-40.5 27t-30 42t-5.5 57.5q7 59 56.5 103.5t112.5 44.5q60 0 99.5 -43t32.5 -105h-100q1 22 -12 36.5t-33 14.5q-22 0 -39 -17.5t-17.5 -37.5t17.5 -37q17 -13 26 -17t31 -9q112 -41 103 -137q-5 -39 -29 -73t-61.5 -55 t-78.5 -21q-62 0 -101.5 43.5t-31.5 105.5z" />
<glyph unicode="&#xb4;" horiz-adv-x="1992" d="M70 76v1460h1852v-1460h-1852zM103 108h1787v1395h-1787v-1395zM136 799l62 505l202 -331l284 331q-75 -614 -133 -1079l-263 284l-33 -275h-100l62 507l262 -285q31 253 67 548l-167 -197l-118 197l-25 -205h-100zM627 236l61 498h297l-12 -99h-198l-13 -101h149 l-12 -99h-149l-12 -100h199l-12 -99h-298zM645 799l287 504l165 -504q15 -51 32.5 -108t39 -124.5t33.5 -106.5l150 272h107l-286 -507l-162 507l-26 74q-2 6 -10 31t-12 38h-169l-1 -4l-42 -72h-106zM845 961h88l-31 104zM1133 798q19 136 42 322l21 173h161 q79 0 122.5 -50t32.5 -129q-7 -49 -40 -88t-81 -56l90 -172h-121l-103 194l-24 -194h-100zM1266 1055l72 -1q19 0 37 12.5t27.5 31t8.5 40t-15 37.5q-18 20 -58 20h-55q-8 -69 -17 -140zM1537 944h101q-3 -14 3 -26t17 -18.5t24 -6.5q21 0 37 15.5t19 35.5q1 11 -1 19 t-8.5 13.5t-12 8t-16 6.5t-15.5 7v4q-27 9 -47 19.5t-40.5 27t-30 42t-5.5 57.5q7 59 56.5 103.5t112.5 44.5q60 0 99.5 -43t32.5 -105h-100q1 22 -12 36.5t-33 14.5q-22 0 -39 -17.5t-17.5 -37.5t17.5 -37q17 -13 26 -17t31 -9q112 -41 103 -137q-5 -39 -29 -73t-61.5 -55 t-78.5 -21q-62 0 -101.5 43.5t-31.5 105.5z" />
<glyph unicode="&#xb5;" horiz-adv-x="1992" d="M70 76v1460h1852v-1460h-1852zM103 108h1787v1395h-1787v-1395zM136 799l62 505l202 -331l284 331q-75 -614 -133 -1079l-263 284l-33 -275h-100l62 507l262 -285q31 253 67 548l-167 -197l-118 197l-25 -205h-100zM627 236l61 498h297l-12 -99h-198l-13 -101h149 l-12 -99h-149l-12 -100h199l-12 -99h-298zM645 799l287 504l165 -504q15 -51 32.5 -108t39 -124.5t33.5 -106.5l150 272h107l-286 -507l-162 507l-26 74q-2 6 -10 31t-12 38h-169l-1 -4l-42 -72h-106zM845 961h88l-31 104zM1133 798q19 136 42 322l21 173h161 q79 0 122.5 -50t32.5 -129q-7 -49 -40 -88t-81 -56l90 -172h-121l-103 194l-24 -194h-100zM1266 1055l72 -1q19 0 37 12.5t27.5 31t8.5 40t-15 37.5q-18 20 -58 20h-55q-8 -69 -17 -140zM1537 944h101q-3 -14 3 -26t17 -18.5t24 -6.5q21 0 37 15.5t19 35.5q1 11 -1 19 t-8.5 13.5t-12 8t-16 6.5t-15.5 7v4q-27 9 -47 19.5t-40.5 27t-30 42t-5.5 57.5q7 59 56.5 103.5t112.5 44.5q60 0 99.5 -43t32.5 -105h-100q1 22 -12 36.5t-33 14.5q-22 0 -39 -17.5t-17.5 -37.5t17.5 -37q17 -13 26 -17t31 -9q112 -41 103 -137q-5 -39 -29 -73t-61.5 -55 t-78.5 -21q-62 0 -101.5 43.5t-31.5 105.5z" />
<glyph unicode="&#xb6;" horiz-adv-x="1992" d="M70 76v1460h1852v-1460h-1852zM103 108h1787v1395h-1787v-1395zM136 799l62 505l202 -331l284 331q-75 -613 -133 -1079l-263 284l-33 -275h-100l62 507l262 -285q31 253 67 548l-167 -197l-118 197l-25 -205h-100zM627 236l61 498h297l-12 -99h-198l-13 -101h149 l-12 -99h-149l-12 -100h199l-12 -99h-298zM645 799l287 504l165 -504q20 -68 60.5 -197t44.5 -142l150 272h107l-286 -507l-162 507l-26 74q-2 6 -10 31t-12 38h-169l-1 -4l-42 -72h-106zM845 961h88l-31 104zM1133 798q19 136 42 322l21 173h161q79 0 122.5 -50t32.5 -129 q-7 -49 -40 -88t-81 -56l90 -172h-121l-103 194l-24 -194h-100zM1266 1055l72 -1q19 0 37 12.5t27.5 31t8.5 40t-15 37.5q-18 20 -58 20h-55q-8 -69 -17 -140zM1537 944h101q-3 -14 3 -26t17 -18.5t24 -6.5q21 0 37 15.5t19 35.5q2 14 -3 23.5t-11 13t-20 9.5t-19 8v4 q-27 9 -47 19.5t-40.5 27t-30 42t-5.5 57.5q3 29 18 56t37.5 47t52.5 32.5t61 12.5q60 0 99.5 -43t32.5 -105h-100q1 22 -12 36.5t-33 14.5q-22 0 -39 -17.5t-17.5 -37.5t17.5 -37q17 -13 26 -17t31 -9q112 -41 103 -137q-5 -39 -29 -73t-61.5 -55t-78.5 -21 q-62 0 -101.5 43.5t-31.5 105.5z" />
<glyph unicode="&#xbb;" horiz-adv-x="1425" d="M100 298l359 352l-359 353l155 117l550 -470l-550 -470zM620 298l359 352l-359 353l155 117l550 -470l-550 -470z" />
<glyph unicode="&#xbc;" horiz-adv-x="1992" d="M70 76v1460h1852v-1460h-1852zM103 108h1787v1395h-1787v-1395zM136 799l62 505l202 -331l284 331q-75 -614 -133 -1079l-263 284l-33 -275h-100l62 507l262 -285q31 253 67 548l-167 -197l-118 197l-25 -205h-100zM627 236l61 498h297l-12 -99h-198l-13 -101h149 l-12 -99h-149l-12 -100h199l-12 -99h-298zM645 799l287 504l165 -504q15 -51 32.5 -108t39 -124.5t33.5 -106.5l150 272h107l-286 -507l-162 507l-26 74q-2 6 -10 31t-12 38h-169l-1 -4l-42 -72h-106zM845 961h88l-31 104zM1133 798q19 136 42 322l21 173h161 q79 0 122.5 -50t32.5 -129q-7 -49 -40 -88t-81 -56l90 -172h-121l-103 194l-24 -194h-100zM1266 1055l72 -1q19 0 37 12.5t27.5 31t8.5 40t-15 37.5q-18 20 -58 20h-55q-8 -69 -17 -140zM1537 944h101q-3 -14 3 -26t17 -18.5t24 -6.5q21 0 37 15.5t19 35.5q1 11 -1 19 t-8.5 13.5t-12 8t-16 6.5t-15.5 7v4q-27 9 -47 19.5t-40.5 27t-30 42t-5.5 57.5q7 59 56.5 103.5t112.5 44.5q60 0 99.5 -43t32.5 -105h-100q1 22 -12 36.5t-33 14.5q-22 0 -39 -17.5t-17.5 -37.5t17.5 -37q17 -13 26 -17t31 -9q112 -41 103 -137q-5 -39 -29 -73t-61.5 -55 t-78.5 -21q-62 0 -101.5 43.5t-31.5 105.5z" />
<glyph unicode="&#xbd;" horiz-adv-x="1992" d="M70 76v1460h1852v-1460h-1852zM103 108h1787v1395h-1787v-1395zM136 799l62 505l202 -331l284 331q-75 -614 -133 -1079l-263 284l-33 -275h-100l62 507l262 -285q31 253 67 548l-167 -197l-118 197l-25 -205h-100zM627 236l61 498h297l-12 -99h-198l-13 -101h149 l-12 -99h-149l-12 -100h199l-12 -99h-298zM645 799l287 504l165 -504q15 -51 32.5 -108t39 -124.5t33.5 -106.5l150 272h107l-286 -507l-162 507l-26 74q-2 6 -10 31t-12 38h-169l-1 -4l-42 -72h-106zM845 961h88l-31 104zM1133 798q19 136 42 322l21 173h161 q79 0 122.5 -50t32.5 -129q-7 -49 -40 -88t-81 -56l90 -172h-121l-103 194l-24 -194h-100zM1266 1055l72 -1q19 0 37 12.5t27.5 31t8.5 40t-15 37.5q-18 20 -58 20h-55q-8 -69 -17 -140zM1537 944h101q-3 -14 3 -26t17 -18.5t24 -6.5q21 0 37 15.5t19 35.5q1 11 -1 19 t-8.5 13.5t-12 8t-16 6.5t-15.5 7v4q-27 9 -47 19.5t-40.5 27t-30 42t-5.5 57.5q7 59 56.5 103.5t112.5 44.5q60 0 99.5 -43t32.5 -105h-100q1 22 -12 36.5t-33 14.5q-22 0 -39 -17.5t-17.5 -37.5t17.5 -37q17 -13 26 -17t31 -9q112 -41 103 -137q-5 -39 -29 -73t-61.5 -55 t-78.5 -21q-62 0 -101.5 43.5t-31.5 105.5z" />
<glyph unicode="&#xbe;" horiz-adv-x="1992" d="M70 76v1460h1852v-1460h-1852zM103 108h1787v1395h-1787v-1395zM136 799l62 505l202 -331l284 331q-75 -614 -133 -1079l-263 284l-33 -275h-100l62 507l262 -285q31 253 67 548l-167 -197l-118 197l-25 -205h-100zM627 236l61 498h297l-12 -99h-198l-13 -101h149 l-12 -99h-149l-12 -100h199l-12 -99h-298zM645 799l287 504l165 -504q15 -51 32.5 -108t39 -124.5t33.5 -106.5l150 272h107l-286 -507l-162 507l-26 74q-2 6 -10 31t-12 38h-169l-1 -4l-42 -72h-106zM845 961h88l-31 104zM1133 798q19 136 42 322l21 173h161 q79 0 122.5 -50t32.5 -129q-7 -49 -40 -88t-81 -56l90 -172h-121l-103 194l-24 -194h-100zM1266 1055l72 -1q19 0 37 12.5t27.5 31t8.5 40t-15 37.5q-18 20 -58 20h-55q-8 -69 -17 -140zM1537 944h101q-3 -14 3 -26t17 -18.5t24 -6.5q21 0 37 15.5t19 35.5q1 11 -1 19 t-8.5 13.5t-12 8t-16 6.5t-15.5 7v4q-27 9 -47 19.5t-40.5 27t-30 42t-5.5 57.5q7 59 56.5 103.5t112.5 44.5q60 0 99.5 -43t32.5 -105h-100q1 22 -12 36.5t-33 14.5q-22 0 -39 -17.5t-17.5 -37.5t17.5 -37q17 -13 26 -17t31 -9q112 -41 103 -137q-5 -39 -29 -73t-61.5 -55 t-78.5 -21q-62 0 -101.5 43.5t-31.5 105.5z" />
<glyph unicode="&#xbf;" horiz-adv-x="1063" d="M40 250q0 94 43 158q46 67 101 119q84 84 159 163.5t45 224.5l329 1v-29q0 -150 -50 -238.5t-142 -180.5q-50 -48 -102 -111q-54 -65 -54 -107q0 -66 48.5 -115t115.5 -49t115 48.5t48 115.5h327q0 -203 -145 -346q-144 -145 -346 -145q-203 0 -348 145 q-144 144 -144 346zM334 1221q0 84 61 143t146 59q33 0 64.5 -10.5t57 -29.5t45 -44.5t30 -57t10.5 -64.5q0 -85 -60.5 -144t-146.5 -59t-146.5 60.5t-60.5 146.5z" />
<glyph unicode="&#xc0;" horiz-adv-x="1551" d="M40 0l735 1645l736 -1645h-351l-109 245h-552l-109 -245h-350zM477 2075l188 148l258 -366l-116 -89zM627 531h296l-147 341z" />
<glyph unicode="&#xc1;" horiz-adv-x="1551" d="M40 0l735 1645l736 -1645h-351l-109 245h-552l-109 -245h-350zM627 531h296l-147 341zM628 1857l258 366l188 -148l-329 -307z" />
<glyph unicode="&#xc2;" horiz-adv-x="1551" d="M40 0l735 1645l736 -1645h-351l-109 245h-552l-109 -245h-350zM510 1749l263 415l265 -415h-164l-101 158l-101 -158h-162zM627 531h296l-147 341z" />
<glyph unicode="&#xc3;" horiz-adv-x="1551" d="M40 0l735 1645l736 -1645h-351l-109 245h-552l-109 -245h-350zM429 1866q71 77 139.5 98.5t254.5 -56.5q171 -73 227 -50t119 92l-2 -193l1 -1q-66 -82 -138 -72.5t-231 66.5q-168 60 -226 40t-139 -103zM627 531h296l-147 341z" />
<glyph unicode="&#xc4;" horiz-adv-x="1551" d="M40 0l735 1645l736 -1645h-351l-109 245h-552l-109 -245h-350zM435 1869q0 49 36 85t85 36q48 0 84 -36t36 -85t-35.5 -84.5t-84.5 -35.5q-50 0 -85.5 35t-35.5 85zM627 531h296l-147 341zM886 1869q0 19 6 37.5t17.5 33.5t26 26t33 17.5t37.5 6.5q49 0 85 -36t36 -85 q0 -50 -35.5 -85t-85.5 -35t-85 35t-35 85z" />
<glyph unicode="&#xc5;" horiz-adv-x="1544" d="M0 0l735 1645l736 -1645h-351l-109 245h-552l-109 -245h-350zM549 1888q0 78 55.5 133.5t133.5 55.5q77 0 133 -56t56 -133t-56 -133t-133 -56q-78 0 -133.5 55.5t-55.5 133.5zM587 531h296l-147 341zM659 1887q0 -78 79 -78t79 78q0 79 -79 79t-79 -79z" />
<glyph unicode="&#xc6;" horiz-adv-x="2042" d="M40 4l734 1615h1228v-323h-647v-325h485v-323h-485v-325h647v-323h-972v240l-4 8h-527q-20 -48 -60 -134.5t-50 -109.5h-349zM632 535l399 6v765h-44z" />
<glyph unicode="&#xc7;" horiz-adv-x="1477" d="M40 804q0 338 240 580q239 241 577 241l-1 -4q176 0 323.5 -66t256.5 -173l-231 -232q-145 145 -347 145q-204 0 -346 -145q-144 -146 -144 -347q0 -202 144 -347q143 -143 346 -143q202 0 348 144l231 -230q-112 -112 -262 -176q-93 -41 -194 -54q0 -74 -15 -146.5 t-40.5 -132.5t-59.5 -108.5t-72 -80.5l-82 -67l-197 204l30 10q30 11 111 104q65 76 75 217q-259 36 -451 230q-240 238 -240 577z" />
<glyph unicode="&#xc8;" d="M100 0v1620h972v-324h-647v-324h485v-324h-485v-324h647v-324h-972zM332 2078l188 148l258 -366l-116 -89z" />
<glyph unicode="&#xc9;" d="M100 0v1620h972v-324h-647v-324h485v-324h-485v-324h647v-324h-972zM435 1860l258 366l188 -148l-330 -307z" />
<glyph unicode="&#xca;" d="M100 0v1620h972v-324h-647v-324h485v-324h-485v-324h647v-324h-972zM325 1753l263 415l266 -415h-164l-102 158l-100 -158h-163z" />
<glyph unicode="&#xcb;" d="M100 0v1619h972v-323h-648v-325h486v-323h-486v-325h648v-323h-972zM238 1902q0 49 35.5 85t84.5 36q24 0 46 -10t38.5 -26.5t26 -38.5t9.5 -46t-9.5 -46.5t-26 -38.5t-38.5 -25.5t-46 -9.5q-50 0 -85 35t-35 85zM686 1902q0 49 35.5 85t85.5 36q48 0 84 -36t36 -85 t-35.5 -84.5t-84.5 -35.5q-50 0 -85.5 35t-35.5 85z" />
<glyph unicode="&#xcc;" horiz-adv-x="574" d="M0 2078l188 148l258 -366l-116 -89zM150 0v1620h324v-1620h-324z" />
<glyph unicode="&#xcd;" horiz-adv-x="589" d="M100 0v1620h325v-1620h-325zM143 1860l258 366l188 -148l-329 -307z" />
<glyph unicode="&#xce;" horiz-adv-x="569" d="M20 1753l263 415l266 -415h-164l-102 158l-100 -158h-163zM122 0v1620h325v-1620h-325z" />
<glyph unicode="&#xcf;" horiz-adv-x="690" d="M0 1902q0 49 35.5 85t84.5 36t85 -36t36 -85q0 -50 -35.5 -85t-85.5 -35t-85 35t-35 85zM175 0v1619h325v-1619h-325zM451 1902q0 24 9.5 46t25.5 38.5t38 26.5t46 10h1q48 0 84 -36t36 -85t-35.5 -84.5t-84.5 -35.5q-50 0 -85 35t-35 85z" />
<glyph unicode="&#xd0;" horiz-adv-x="1428" d="M40 693v212h141v711h399q354 0 592 -238q216 -217 216 -571t-216 -570q-239 -237 -592 -237h-399v693h-141zM504 324h76h1q219 0 350.5 133t131.5 352q0 223 -130.5 354t-354.5 131h-74v-389l288 -1v-212l-288 1v-369z" />
<glyph unicode="&#xd1;" horiz-adv-x="1476" d="M90 -3v1649l971 -926v895h325v-1648l-972 925v-895h-324zM325 1916q72 77 140 98.5t254 -56.5q171 -73 227 -50t119 92l-2 -193l1 -1q-66 -82 -138 -72.5t-231 66.5q-168 60 -225.5 40t-139.5 -103z" />
<glyph unicode="&#xd2;" horiz-adv-x="1718" d="M40 805q0 338 240 578q240 242 578 242q337 0 578 -242q242 -241 242 -578q0 -338 -242 -578q-239 -239 -578 -239t-578 239q-240 240 -240 578zM367 807q0 -202 144 -347q143 -143 347 -143q200 0 347 143q144 144 144 347q0 201 -144 347q-146 144 -347 144 q-205 0 -347 -144q-144 -148 -144 -347zM523 2075l188 148l258 -366l-116 -89z" />
<glyph unicode="&#xd3;" horiz-adv-x="1718" d="M40 805q0 336 240 578t578 242q337 0 579 -242q241 -241 241 -578t-241 -578q-241 -239 -579 -239q-339 0 -578 239q-240 241 -240 578zM367 807q0 -202 144 -347q144 -143 347 -143q200 0 347 143q144 144 144 347q0 201 -144 347q-146 144 -347 144q-203 0 -347 -144 q-144 -148 -144 -347zM666 1857l258 366l188 -148l-330 -307z" />
<glyph unicode="&#xd4;" horiz-adv-x="1718" d="M40 805q0 336 240 578t578 242q337 0 578 -242q242 -241 242 -578q0 -338 -242 -578q-239 -239 -578 -239t-578 239q-240 241 -240 578zM367 807q0 -202 144 -347q144 -143 347 -143q200 0 347 143q144 144 144 347q0 201 -144 347q-146 144 -347 144q-203 0 -347 -144 q-144 -148 -144 -347zM591 1750l263 415l265 -415h-164l-101 158l-101 -158h-162z" />
<glyph unicode="&#xd5;" horiz-adv-x="1717" d="M40 804q0 337 240 579q239 241 578 241q338 0 578 -241q241 -241 241 -579q0 -339 -241 -577q-239 -239 -578 -239t-578 239q-240 238 -240 577zM367 807q0 -205 144 -347q142 -144 347 -144q202 0 346 144q145 142 145 347q0 202 -145 346q-145 145 -346 145 q-204 0 -347 -145q-144 -144 -144 -346zM496 1917q71 77 139 98.5t255 -56.5q171 -73 227 -50t120 92l-2 -193l1 -1q-66 -82 -138.5 -72.5t-231.5 66.5q-169 60 -226.5 40t-138.5 -103z" />
<glyph unicode="&#xd6;" horiz-adv-x="1717" d="M40 804q0 337 240 579q238 241 577 241q338 0 579 -241t241 -579q0 -339 -241 -577q-241 -239 -579 -239q-340 0 -577 239q-240 238 -240 577zM367 807q0 -204 143 -347q144 -144 347 -144q202 0 346 144q146 142 146 347q0 201 -146 346q-145 145 -346 145 q-202 0 -347 -145q-143 -145 -143 -346zM509 1899q0 49 35.5 85t85.5 36q48 0 84 -36t36 -85t-35.5 -84.5t-84.5 -35.5q-50 0 -85.5 35t-35.5 85zM960 1899q0 24 9.5 46.5t25.5 38.5t38.5 26t46.5 10q49 0 85 -36t36 -85q0 -32 -16.5 -60t-44.5 -44t-60 -16q-50 0 -85 35 t-35 85z" />
<glyph unicode="&#xd7;" horiz-adv-x="2048" />
<glyph unicode="&#xd8;" horiz-adv-x="1717" d="M40 804q0 336 240 578q239 241 578 241q83 0 161 -15l72 210h253l-100 -290q105 -59 192 -146q241 -241 241 -578q0 -340 -241 -578q-239 -239 -578 -239q-69 0 -138 11l-69 -203h-254l95 275q-116 59 -212 156q-240 238 -240 578zM367 806q0 -205 144 -347 q41 -42 89 -72l311 907q-26 3 -53 3q-204 0 -347 -145q-144 -144 -144 -346zM829 316q10 -1 29 -1q202 0 346 144q145 142 145 347q0 202 -145 346q-38 38 -68 58z" />
<glyph unicode="&#xd9;" horiz-adv-x="1483" d="M90 639v977h327v-976q0 -65 26 -125t69.5 -103.5t103.5 -69.5t125 -26q132 0 229 96t97 228v976h326v-977q0 -272 -191 -461q-189 -190 -460 -190t-461 190q-191 189 -191 461zM464 2074l188 148l258 -366l-117 -89z" />
<glyph unicode="&#xda;" horiz-adv-x="1483" d="M90 639v977h327v-976q0 -65 26 -125t69.5 -103.5t103.5 -69.5t125 -26q132 0 229 96t97 228v976h326v-977q0 -272 -191 -461q-189 -190 -460 -190t-461 190q-191 189 -191 461zM565 1856l259 366l188 -148l-330 -307z" />
<glyph unicode="&#xdb;" horiz-adv-x="1483" d="M90 639v977h327v-976q0 -65 26 -125t69.5 -103.5t103.5 -69.5t125 -26q52 0 101 16.5t89.5 47t71 70.5t47.5 89t17 101v976h326v-977q0 -272 -191 -461q-189 -190 -460 -190t-461 190q-191 189 -191 461zM475 1749l263 415l266 -415h-164l-102 158l-100 -158h-163z" />
<glyph unicode="&#xdc;" horiz-adv-x="1484" d="M90 639v976h326v-975q0 -132 96.5 -228t229.5 -96q132 0 229 96.5t97 227.5v975h326v-976q0 -270 -191 -461q-192 -190 -460 -190q-271 0 -462 190q-191 191 -191 461zM400 1898q0 49 36 85t85 36q48 0 84 -36t36 -85t-35.5 -84.5t-84.5 -35.5q-50 0 -85.5 35t-35.5 85z M849 1898q0 49 35.5 84.5t84.5 36.5q32 0 60 -16.5t44.5 -44.5t16.5 -60q0 -50 -35.5 -85t-85.5 -35t-85 35t-35 85z" />
<glyph unicode="&#xdd;" horiz-adv-x="1375" d="M40 1620h368l279 -514l279 514h369l-486 -894v-726h-324v726zM555 1860l259 366l188 -148l-330 -307z" />
<glyph unicode="&#xde;" horiz-adv-x="1230" d="M90 0v1612h323v-277h247q220 0 375 -155t155 -374q0 -218 -155 -374q-155 -155 -375 -155h-247v-277h-323zM413 575h247q95 0 163.5 68t68.5 163t-68.5 163.5t-163.5 68.5h-247v-463z" />
<glyph unicode="&#xdf;" horiz-adv-x="2197" d="M40 411l322 68q0 -65 59 -114t130 -49l-2 1q45 0 88.5 22t71.5 60.5t28 81.5q0 27 -8.5 50t-23 39t-36.5 30.5t-44 24.5t-50 19t-51 15.5t-50.5 14t-45.5 13.5q-75 26 -140.5 68.5t-117.5 98.5t-82 129t-30 152q0 100 39 191t105 157t157.5 104.5t191.5 38.5 q122 0 227.5 -55.5t174 -152t84.5 -215.5l-322 -68q0 67 -48 115t-114 48q-68 0 -116.5 -48.5t-48.5 -115.5q0 -27 9.5 -51.5t23 -42t38 -34t43 -26.5t51 -22t50.5 -17.5t51 -14.5l30 -9q44 -12 85.5 -30.5t79.5 -42.5t71 -53t60 -64t46.5 -73t30 -83t10.5 -92 q0 -99 -42.5 -190.5t-113 -157t-165 -104.5t-194.5 -39q-123 0 -234 55t-185.5 152.5t-92.5 215.5zM1130 408l322 68q0 -65 59 -114t130 -49l-2 1q45 0 88.5 22t71.5 60.5t28 81.5q0 35 -15.5 64t-38.5 46.5t-59 33.5t-65 24.5t-69.5 19.5t-61.5 18q-75 26 -140.5 68.5 t-117.5 98.5t-82 129t-30 152q0 100 39 191t105 157t157.5 104.5t191.5 38.5q122 0 227.5 -55.5t174 -152t84.5 -215.5l-322 -68q0 67 -48 115t-114 48q-68 0 -116.5 -48.5t-48.5 -115.5q0 -27 9.5 -51.5t23 -42t38 -34t43 -26.5t51 -22t50.5 -17.5t51 -14.5l30 -9 q78 -22 146 -62t121.5 -94.5t84.5 -127t31 -154.5q0 -67 -19.5 -130.5t-54 -117.5t-82.5 -99.5t-105 -77t-122 -49t-132 -17.5q-92 0 -180 32.5t-156 88.5t-115 134.5t-61 167.5z" />
<glyph unicode="&#xe0;" horiz-adv-x="1551" d="M40 0l735 1645l736 -1645h-351l-109 245h-552l-109 -245h-350zM477 2075l188 148l258 -366l-116 -89zM627 531h296l-147 341z" />
<glyph unicode="&#xe1;" horiz-adv-x="1551" d="M40 0l735 1645l736 -1645h-351l-109 245h-552l-109 -245h-350zM627 531h296l-147 341zM628 1857l258 366l188 -148l-329 -307z" />
<glyph unicode="&#xe2;" horiz-adv-x="1551" d="M40 0l735 1645l736 -1645h-351l-109 245h-552l-109 -245h-350zM510 1749l263 415l265 -415h-164l-101 158l-101 -158h-162zM627 531h296l-147 341z" />
<glyph unicode="&#xe3;" horiz-adv-x="1551" d="M40 0l735 1645l736 -1645h-351l-109 245h-552l-109 -245h-350zM429 1866q71 77 139.5 98.5t254.5 -56.5q171 -73 227 -50t119 92l-2 -193l1 -1q-66 -82 -138 -72.5t-231 66.5q-168 60 -226 40t-139 -103zM627 531h296l-147 341z" />
<glyph unicode="&#xe4;" horiz-adv-x="1551" d="M40 0l735 1645l736 -1645h-351l-109 245h-552l-109 -245h-350zM435 1869q0 49 36 85t85 36q48 0 84 -36t36 -85t-35.5 -84.5t-84.5 -35.5q-50 0 -85.5 35t-35.5 85zM627 531h296l-147 341zM886 1869q0 19 6 37.5t17.5 33.5t26 26t33 17.5t37.5 6.5q49 0 85 -36t36 -85 q0 -50 -35.5 -85t-85.5 -35t-85 35t-35 85z" />
<glyph unicode="&#xe5;" horiz-adv-x="1544" d="M0 0l735 1645l736 -1645h-351l-109 245h-552l-109 -245h-350zM549 1888q0 78 55.5 133.5t133.5 55.5q77 0 133 -56t56 -133t-56 -133t-133 -56q-78 0 -133.5 55.5t-55.5 133.5zM587 531h296l-147 341zM659 1887q0 -78 79 -78t79 78q0 79 -79 79t-79 -79z" />
<glyph unicode="&#xe6;" horiz-adv-x="2042" d="M40 4l734 1615h1228v-323h-647v-325h485v-323h-485v-325h647v-323h-972v240l-4 8h-527q-20 -48 -60 -134.5t-50 -109.5h-349zM632 535l399 6v765h-44z" />
<glyph unicode="&#xe7;" horiz-adv-x="1477" d="M40 804q0 338 240 580q239 241 577 241l-1 -4q176 0 323.5 -66t256.5 -173l-231 -232q-145 145 -347 145q-204 0 -346 -145q-144 -146 -144 -347q0 -202 144 -347q143 -143 346 -143q202 0 348 144l231 -230q-112 -112 -262 -176q-93 -41 -194 -54q0 -74 -15 -146.5 t-40.5 -132.5t-59.5 -108.5t-72 -79.5l-82 -68l-197 204l30 10q30 11 111 104q65 76 75 217q-259 36 -451 230q-240 238 -240 577z" />
<glyph unicode="&#xe8;" d="M100 0v1620h972v-324h-647v-324h485v-324h-485v-324h647v-324h-972zM332 2078l188 148l258 -366l-116 -89z" />
<glyph unicode="&#xe9;" d="M100 0v1620h972v-324h-647v-324h485v-324h-485v-324h647v-324h-972zM435 1860l258 366l188 -148l-330 -307z" />
<glyph unicode="&#xea;" d="M100 0v1620h972v-324h-647v-324h485v-324h-485v-324h647v-324h-972zM325 1753l263 415l266 -415h-164l-102 158l-100 -158h-163z" />
<glyph unicode="&#xeb;" d="M100 0v1619h972v-323h-648v-325h486v-323h-486v-325h648v-323h-972zM238 1902q0 49 35.5 85t84.5 36q24 0 46 -10t38.5 -26.5t26 -38.5t9.5 -46t-9.5 -46.5t-26 -38.5t-38.5 -25.5t-46 -9.5q-50 0 -85 35t-35 85zM686 1902q0 49 35.5 85t85.5 36q48 0 84 -36t36 -85 t-35.5 -84.5t-84.5 -35.5q-50 0 -85.5 35t-35.5 85z" />
<glyph unicode="&#xec;" horiz-adv-x="574" d="M0 2078l188 148l258 -366l-116 -89zM150 0v1620h324v-1620h-324z" />
<glyph unicode="&#xed;" horiz-adv-x="589" d="M100 0v1620h325v-1620h-325zM143 1860l258 366l188 -148l-329 -307z" />
<glyph unicode="&#xee;" horiz-adv-x="569" d="M20 1753l263 415l266 -415h-164l-102 158l-100 -158h-163zM122 0v1620h325v-1620h-325z" />
<glyph unicode="&#xef;" horiz-adv-x="690" d="M0 1902q0 49 35.5 85t84.5 36t85 -36t36 -85q0 -50 -35.5 -85t-85.5 -35t-85 35t-35 85zM175 0v1619h325v-1619h-325zM451 1902q0 24 9.5 46t25.5 38.5t38 26.5t46 10h1q48 0 84 -36t36 -85t-35.5 -84.5t-84.5 -35.5q-50 0 -85 35t-35 85z" />
<glyph unicode="&#xf0;" horiz-adv-x="1428" d="M40 693v212h141v711h399q354 0 592 -238q216 -217 216 -571t-216 -570q-239 -237 -592 -237h-399v693h-141zM504 324h76h1q219 0 350.5 133t131.5 352q0 223 -130.5 354t-354.5 131h-74v-389l288 -1v-212l-288 1v-369z" />
<glyph unicode="&#xf1;" horiz-adv-x="1476" d="M90 -3v1649l971 -926v895h325v-1648l-972 925v-895h-324zM325 1916q72 77 140 98.5t254 -56.5q171 -73 227 -50t119 92l-2 -193l1 -1q-66 -82 -138 -72.5t-231 66.5q-168 60 -225.5 40t-139.5 -103z" />
<glyph unicode="&#xf2;" horiz-adv-x="1718" d="M40 805q0 338 240 578q240 242 578 242q337 0 578 -242q242 -241 242 -578q0 -338 -242 -578q-239 -239 -578 -239t-578 239q-240 240 -240 578zM367 807q0 -202 144 -347q143 -143 347 -143q200 0 347 143q144 144 144 347q0 201 -144 347q-146 144 -347 144 q-205 0 -347 -144q-144 -148 -144 -347zM523 2075l188 148l258 -366l-116 -89z" />
<glyph unicode="&#xf3;" horiz-adv-x="1718" d="M40 805q0 336 240 578t578 242q337 0 579 -242q241 -241 241 -578t-241 -578q-241 -239 -579 -239q-339 0 -578 239q-240 241 -240 578zM367 807q0 -202 144 -347q144 -143 347 -143q200 0 347 143q144 144 144 347q0 201 -144 347q-146 144 -347 144q-203 0 -347 -144 q-144 -148 -144 -347zM666 1857l258 366l188 -148l-330 -307z" />
<glyph unicode="&#xf4;" horiz-adv-x="1718" d="M40 805q0 336 240 578t578 242q337 0 578 -242q242 -241 242 -578q0 -338 -242 -578q-239 -239 -578 -239t-578 239q-240 241 -240 578zM367 807q0 -202 144 -347q144 -143 347 -143q200 0 347 143q144 144 144 347q0 201 -144 347q-146 144 -347 144q-203 0 -347 -144 q-144 -148 -144 -347zM591 1750l263 415l265 -415h-164l-101 158l-101 -158h-162z" />
<glyph unicode="&#xf5;" horiz-adv-x="1717" d="M40 804q0 337 240 579q239 241 578 241q338 0 578 -241q241 -241 241 -579q0 -339 -241 -577q-239 -239 -578 -239t-578 239q-240 238 -240 577zM367 807q0 -205 144 -347q142 -144 347 -144q202 0 346 144q145 142 145 347q0 202 -145 346q-145 145 -346 145 q-204 0 -347 -145q-144 -144 -144 -346zM496 1917q71 77 139 98.5t255 -56.5q171 -73 227 -50t120 92l-2 -193l1 -1q-66 -82 -138.5 -72.5t-231.5 66.5q-169 60 -226.5 40t-138.5 -103z" />
<glyph unicode="&#xf6;" horiz-adv-x="1717" d="M40 804q0 337 240 579q238 241 577 241q338 0 579 -241t241 -579q0 -339 -241 -577q-241 -239 -579 -239q-340 0 -577 239q-240 238 -240 577zM367 807q0 -204 143 -347q144 -144 347 -144q202 0 346 144q146 142 146 347q0 201 -146 346q-145 145 -346 145 q-202 0 -347 -145q-143 -145 -143 -346zM509 1899q0 49 35.5 85t85.5 36q48 0 84 -36t36 -85t-35.5 -84.5t-84.5 -35.5q-50 0 -85.5 35t-35.5 85zM960 1899q0 24 9.5 46.5t25.5 38.5t38.5 26t46.5 10q49 0 85 -36t36 -85q0 -32 -16.5 -60t-44.5 -44t-60 -16q-50 0 -85 35 t-35 85z" />
<glyph unicode="&#xf7;" horiz-adv-x="1992" d="M70 76v1460h1852v-1460h-1852zM103 108h1787v1395h-1787v-1395zM136 799l62 505l202 -331l284 331q-75 -614 -133 -1079l-263 284l-33 -275h-100l62 507l262 -285q31 253 67 548l-167 -197l-118 197l-25 -205h-100zM627 236l61 498h297l-12 -99h-198l-13 -101h149 l-12 -99h-149l-12 -100h199l-12 -99h-298zM645 799l287 504l165 -504q15 -51 32.5 -108t39 -124.5t33.5 -106.5l150 272h107l-286 -507l-162 507l-26 74q-2 6 -10 31t-12 38h-169l-1 -4l-42 -72h-106zM845 961h88l-31 104zM1133 798q19 136 42 322l21 173h161 q79 0 122.5 -50t32.5 -129q-7 -49 -40 -88t-81 -56l90 -172h-121l-103 194l-24 -194h-100zM1266 1055l72 -1q19 0 37 12.5t27.5 31t8.5 40t-15 37.5q-18 20 -58 20h-55q-8 -69 -17 -140zM1537 944h101q-3 -14 3 -26t17 -18.5t24 -6.5q21 0 37 15.5t19 35.5q1 11 -1 19 t-8.5 13.5t-12 8t-16 6.5t-15.5 7v4q-27 9 -47 19.5t-40.5 27t-30 42t-5.5 57.5q7 59 56.5 103.5t112.5 44.5q60 0 99.5 -43t32.5 -105h-100q1 22 -12 36.5t-33 14.5q-22 0 -39 -17.5t-17.5 -37.5t17.5 -37q17 -13 26 -17t31 -9q112 -41 103 -137q-5 -39 -29 -73t-61.5 -55 t-78.5 -21q-62 0 -101.5 43.5t-31.5 105.5z" />
<glyph unicode="&#xf8;" horiz-adv-x="1717" d="M40 804q0 336 240 578q239 241 578 241q83 0 161 -15l72 210h253l-100 -290q105 -59 192 -146q241 -241 241 -578q0 -340 -241 -578q-239 -239 -578 -239q-69 0 -138 11l-69 -203h-254l95 275q-116 59 -212 156q-240 238 -240 578zM367 806q0 -205 144 -347 q41 -42 89 -72l311 907q-26 3 -53 3q-204 0 -347 -145q-144 -144 -144 -346zM829 316q10 -1 29 -1q202 0 346 144q145 142 145 347q0 202 -145 346q-38 38 -68 58z" />
<glyph unicode="&#xf9;" horiz-adv-x="1483" d="M90 639v977h327v-976q0 -65 26 -125t69.5 -103.5t103.5 -69.5t125 -26q132 0 229 96t97 228v976h326v-977q0 -272 -191 -461q-189 -190 -460 -190t-461 190q-191 189 -191 461zM464 2074l188 148l258 -366l-117 -89z" />
<glyph unicode="&#xfa;" horiz-adv-x="1483" d="M90 639v977h327v-976q0 -65 26 -125t69.5 -103.5t103.5 -69.5t125 -26q132 0 229 96t97 228v976h326v-977q0 -272 -191 -461q-189 -190 -460 -190t-461 190q-191 189 -191 461zM565 1856l259 366l188 -148l-330 -307z" />
<glyph unicode="&#xfb;" horiz-adv-x="1483" d="M90 639v977h327v-976q0 -65 26 -125t69.5 -103.5t103.5 -69.5t125 -26q52 0 101 16.5t89.5 47t71 70.5t47.5 89t17 101v976h326v-977q0 -272 -191 -461q-189 -190 -460 -190t-461 190q-191 189 -191 461zM475 1749l263 415l266 -415h-164l-102 158l-100 -158h-163z" />
<glyph unicode="&#xfc;" horiz-adv-x="1484" d="M90 639v976h326v-975q0 -132 96.5 -228t229.5 -96q132 0 229 96.5t97 227.5v975h326v-976q0 -270 -191 -461q-192 -190 -460 -190q-271 0 -462 190q-191 191 -191 461zM400 1898q0 49 36 85t85 36q48 0 84 -36t36 -85t-35.5 -84.5t-84.5 -35.5q-50 0 -85.5 35t-35.5 85z M849 1898q0 49 35.5 84.5t84.5 36.5q32 0 60 -16.5t44.5 -44.5t16.5 -60q0 -50 -35.5 -85t-85.5 -35t-85 35t-35 85z" />
<glyph unicode="&#xfd;" horiz-adv-x="1375" d="M40 1620h368l279 -514l279 514h369l-486 -894v-726h-324v726zM555 1860l259 366l188 -148l-330 -307z" />
<glyph unicode="&#xfe;" horiz-adv-x="1230" d="M90 0v1612h323v-277h247q220 0 375 -155t155 -374q0 -218 -155 -374q-155 -155 -375 -155h-247v-277h-323zM413 575h247q95 0 163.5 68t68.5 163t-68.5 163.5t-163.5 68.5h-247v-463z" />
<glyph unicode="&#xff;" horiz-adv-x="1375" d="M40 1620h368l279 -514l279 514h369l-486 -894v-726h-324v726zM343 1898q0 24 9.5 46.5t25.5 38.5t38.5 26t46.5 10q49 0 85 -36t36 -85q0 -50 -35.5 -85t-85.5 -35t-85 35t-35 85zM792 1898q0 49 35.5 85t84.5 36q48 0 84 -36t36 -85t-35.5 -84.5t-84.5 -35.5 q-50 0 -85 35t-35 85z" />
<glyph unicode="&#x152;" horiz-adv-x="2350" d="M40 805q0 337 240 579q241 241 578 241q272 0 480 -157v146l972 -1v-323h-648v-325h486v-323h-486v-325h648v-322h-972v148q-208 -154 -480 -154q-339 1 -578 238q-240 238 -240 578zM367 805q0 -202 144 -347q142 -144 347 -144q201 0 347 144q104 104 133 240v213 q-29 136 -133 241q-147 145 -347 145q-204 0 -347 -145q-144 -148 -144 -347z" />
<glyph unicode="&#x153;" horiz-adv-x="2350" d="M40 805q0 337 240 579q241 241 578 241q272 0 480 -157v146l972 -1v-323h-648v-325h486v-323h-486v-325h648v-322h-972v148q-208 -154 -480 -154q-339 1 -578 238q-240 238 -240 578zM367 805q0 -202 144 -347q142 -144 347 -144q201 0 347 144q104 104 133 240v213 q-29 136 -133 241q-147 145 -347 145q-204 0 -347 -145q-144 -148 -144 -347z" />
<glyph unicode="&#x2000;" horiz-adv-x="1113" />
<glyph unicode="&#x2001;" horiz-adv-x="2226" />
<glyph unicode="&#x2002;" horiz-adv-x="1113" />
<glyph unicode="&#x2003;" horiz-adv-x="2226" />
<glyph unicode="&#x2004;" horiz-adv-x="742" />
<glyph unicode="&#x2005;" horiz-adv-x="556" />
<glyph unicode="&#x2006;" horiz-adv-x="371" />
<glyph unicode="&#x2007;" horiz-adv-x="371" />
<glyph unicode="&#x2008;" horiz-adv-x="278" />
<glyph unicode="&#x2009;" horiz-adv-x="445" />
<glyph unicode="&#x200a;" horiz-adv-x="123" />
<glyph unicode="&#x2010;" horiz-adv-x="930" d="M70 544v283h790v-283h-790z" />
<glyph unicode="&#x2011;" horiz-adv-x="930" d="M70 544v283h790v-283h-790z" />
<glyph unicode="&#x2012;" horiz-adv-x="930" d="M70 544v283h790v-283h-790z" />
<glyph unicode="&#x2013;" horiz-adv-x="1040" d="M70 544v283h900v-283h-900z" />
<glyph unicode="&#x2014;" horiz-adv-x="1700" d="M70 544v283h1560v-283h-1560z" />
<glyph unicode="&#x2018;" horiz-adv-x="593" d="M80 1287q0 89 28.5 155.5t81.5 126.5q46 51 137 84q24 7 80.5 -1.5t65.5 -20.5q13 -19 -56.5 -56.5t-50.5 -101.5q63 -21 105 -70t42 -120q0 -88 -63.5 -151.5t-151.5 -63.5l1 -1q-87 0 -153 66.5t-66 153.5zM368 1623z" />
<glyph unicode="&#x2019;" horiz-adv-x="593" d="M80 1437q0 88 63.5 151.5t151.5 63.5l-1 1q87 0 153 -66.5t66 -153.5q0 -89 -28.5 -155.5t-82.5 -126.5q-45 -51 -136 -84q-24 -7 -80.5 1.5t-65.5 20.5q-13 19 56.5 56.5t50.5 101.5q-63 21 -105 70t-42 120zM225 1097z" />
<glyph unicode="&#x201a;" horiz-adv-x="593" d="M80 179q0 88 63.5 151.5t151.5 63.5l-1 1q87 0 153 -66.5t66 -153.5q0 -89 -28.5 -155.5t-82.5 -126.5q-45 -51 -136 -84q-24 -7 -80.5 1.5t-65.5 20.5q-13 19 56.5 56.5t50.5 101.5q-63 21 -105 70t-42 120zM225 -160z" />
<glyph unicode="&#x201c;" horiz-adv-x="1113" d="M80 1287q0 89 28.5 155.5t81.5 126.5q46 51 137 84q24 7 80.5 -1.5t65.5 -20.5q13 -19 -56.5 -56.5t-50.5 -101.5q63 -21 105 -70t42 -120q0 -88 -63.5 -151.5t-151.5 -63.5l1 -1q-87 0 -153 66.5t-66 153.5zM368 1623zM600 1287q0 89 28.5 155.5t81.5 126.5 q46 51 137 84q24 7 80.5 -1.5t65.5 -20.5q13 -19 -56.5 -56.5t-50.5 -101.5q63 -21 105 -70t42 -120q0 -88 -63.5 -151.5t-151.5 -63.5l1 -1q-87 0 -153 66.5t-66 153.5z" />
<glyph unicode="&#x201d;" horiz-adv-x="1113" d="M80 1437q0 88 63.5 151.5t151.5 63.5l-1 1q87 0 153 -66.5t66 -153.5q0 -89 -28.5 -155.5t-82.5 -126.5q-45 -51 -136 -84q-24 -7 -80.5 1.5t-65.5 20.5q-13 19 56.5 56.5t50.5 101.5q-63 21 -105 70t-42 120zM600 1437q0 88 63.5 151.5t151.5 63.5l-1 1q87 0 153 -66.5 t66 -153.5q0 -61 -15 -113.5t-38 -91t-58 -77.5q-45 -51 -136 -84q-24 -7 -80.5 1.5t-65.5 20.5q-13 19 56.5 56.5t50.5 101.5q-63 21 -105 70t-42 120zM745 1097z" />
<glyph unicode="&#x201e;" horiz-adv-x="1113" d="M80 179q0 88 63.5 151.5t151.5 63.5l-1 1q87 0 153 -66.5t66 -153.5q0 -89 -28.5 -155.5t-82.5 -126.5q-45 -51 -136 -84q-24 -7 -80.5 1.5t-65.5 20.5q-13 19 56.5 56.5t50.5 101.5q-63 21 -105 70t-42 120zM225 -160zM600 179q0 88 63.5 151.5t151.5 63.5l-1 1 q87 0 153 -66.5t66 -153.5q0 -61 -15 -113.5t-38 -91t-58 -77.5q-45 -51 -136 -84q-24 -7 -80.5 1.5t-65.5 20.5q-13 19 56.5 56.5t50.5 101.5q-63 21 -105 70t-42 120z" />
<glyph unicode="&#x2026;" horiz-adv-x="2514" d="M250 155q0 85 61 146t146 61q84 0 145.5 -61.5t61.5 -145.5q0 -85 -61 -145.5t-146 -60.5t-146 60.5t-61 145.5zM1050 155q0 85 61 146t146 61q84 0 145.5 -61.5t61.5 -145.5q0 -85 -61 -145.5t-146 -60.5q-56 0 -103.5 27.5t-75.5 75t-28 103.5zM1850 155q0 85 61 146 t146 61q84 0 145.5 -61.5t61.5 -145.5q0 -56 -28 -103.5t-75.5 -75t-103.5 -27.5t-103.5 27.5t-75.5 75t-28 103.5z" />
<glyph unicode="&#x202f;" horiz-adv-x="445" />
<glyph unicode="&#x205f;" horiz-adv-x="556" />
<glyph unicode="&#x20ac;" horiz-adv-x="1598" d="M50 601l17 162h85q-1 14 -1 43q0 38 1 56h-102l17 162h111q54 201 213 360q239 241 578 241l-1 -4q174 0 321.5 -66.5t257.5 -172.5l-231 -231q-147 144 -346 144q-205 0 -347 -144q-59 -59 -93 -127h706l-17 -162h-737q-3 -27 -3 -57q0 -14 2 -42h728l-17 -162h-670 q37 -81 101 -143q142 -144 347 -144q202 0 347 145l231 -232q-108 -107 -255 -172.5t-324 -65.5q-340 1 -578 238q-164 163 -216 374h-125z" />
<glyph unicode="&#x25fc;" horiz-adv-x="1610" d="M0 0v1610h1610v-1610h-1610z" />
</font>
</defs>
</svg>
