<?xml version="1.0" standalone="no"?>
<!DOCTYPE svg PUBLIC "-//W3C//DTD SVG 1.1//EN" "http://www.w3.org/Graphics/SVG/1.1/DTD/svg11.dtd" >
<svg xmlns="http://www.w3.org/2000/svg" xmlns:xlink="http://www.w3.org/1999/xlink" version="1.1">
<metadata></metadata>
<defs>
<font id="tahuregular" horiz-adv-x="751" >
<font-face units-per-em="2048" ascent="1638" descent="-410" />
<missing-glyph horiz-adv-x="409" />
<glyph horiz-adv-x="0" />
<glyph unicode="&#xd;" horiz-adv-x="409" />
<glyph horiz-adv-x="0" />
<glyph horiz-adv-x="0" />
<glyph unicode=" "  horiz-adv-x="409" />
<glyph unicode="&#x09;" horiz-adv-x="409" />
<glyph unicode="&#xa0;" horiz-adv-x="409" />
<glyph unicode="!" horiz-adv-x="569" d="M3 148.5q-5 33.5 7.5 67.5t48.5 48q45 14 71 -12.5t30 -66.5t-15.5 -76.5t-62.5 -40.5q-31 -4 -52.5 21.5t-26.5 59zM98.5 532.5q1.5 63.5 12.5 126.5q10 57 33.5 147.5t55 182.5t69.5 170t75 109q14 14 35.5 14t39 -8t28 -24.5t4.5 -37.5q-8 -31 -26.5 -89t-44.5 -131.5 t-55.5 -156.5t-60.5 -164t-60.5 -154t-51.5 -124q-8 -18 -22.5 -14t-20.5 20q-12 70 -10.5 133.5z" />
<glyph unicode="&#x22;" horiz-adv-x="534" d="M110 1070q1 11 7 30.5t14 39t10 25.5q16 41 27.5 65.5t40.5 49.5q16 16 37.5 2t19.5 -33q-4 -37 -24.5 -62.5t-42.5 -47.5q-35 -37 -80 -70q-10 -10 -9 1zM273.5 1070q0.5 11 7 30.5t14.5 39t10 25.5q16 41 27.5 65.5t40.5 49.5q16 16 37.5 2t19.5 -33 q-4 -37 -24.5 -62.5t-43.5 -47.5q-35 -37 -79 -70q-10 -10 -9.5 1z" />
<glyph unicode="#" horiz-adv-x="921" d="M108.5 328.5q-2.5 25.5 9 51.5t34.5 38q33 16 68.5 22t70.5 17q10 4 16 18q12 31 24.5 62.5t22.5 62.5q6 10 12.5 24.5t14.5 27t18.5 18.5t20.5 0q10 -4 13 -24.5t3 -31.5q-10 -35 -17 -68.5t-22 -62.5q33 4 65 8.5t64 4.5q35 0 49 32q16 35 31 70t37 57q10 14 25.5 19.5 t27.5 1.5t20.5 -16.5t8.5 -28.5q-4 -41 -14.5 -76t-20.5 -72q33 -8 62.5 -11t54.5 -19q20 -14 4 -30.5t-35 -16.5q-29 -6 -57.5 -6.5t-52.5 -10.5q-4 -2 -8.5 -5t-6.5 -7q-10 -25 -18 -50.5t-19 -50.5q23 0 47.5 -4t37 -12t5 -16.5t-48.5 -16.5q-12 -4 -25.5 -5t-25.5 -3 q-14 -2 -26 -18l-93 -160q-4 -8 -12 -15.5t-16 -11.5q-18 -10 -27 11q-12 29 -7 61.5t9 60.5l6 31q-4 0 -6 1t-6 1q-35 -4 -71 -9t-72 -9q-18 -4 -25 -21q-16 -37 -34.5 -74.5t-37.5 -76.5q-14 -23 -20 -29t-9 -1t-2 17.5t3 26.5q6 37 17 73t18 70h-43q-23 0 -29 17 q-4 10 1 18t13 13q23 10 48.5 17t35.5 34q4 14 10.5 29.5t12.5 33.5q-23 -10 -43.5 -17t-40.5 -13q-23 -8 -35 8t-14.5 41.5zM311 254q37 4 72 9t70 11q10 0 14 13q8 16 14 33.5t15 37.5q-37 -6 -72 -11t-70 -11q-4 0 -7 -3l-5 -5q-17 -35 -31 -74z" />
<glyph unicode="$" horiz-adv-x="888" d="M10 311q0 72 31 133q27 55 77 102.5t101 65.5q35 18 41 13.5t-2 -18t-22.5 -32t-20.5 -28.5q-23 -45 -40 -103.5t-15 -113t31.5 -92t101.5 -43.5q29 141 55.5 271t54.5 271q-29 12 -51 19.5t-44.5 12.5t-49.5 12t-61 20q-49 18 -60.5 58t-0.5 84t38 83t53 57 q70 41 133.5 56.5t137.5 7.5q10 0 16 -2q10 33 17.5 61.5t19.5 55.5q14 25 24.5 28.5t10.5 -30.5q-6 -45 -11.5 -74t-9.5 -56q57 -31 99.5 -61.5t62.5 -95.5q4 -20 -16 -31q-14 -6 -33 8q-35 20 -64.5 34.5t-66.5 23.5q-10 -39 -18.5 -77t-16.5 -75q51 -23 97 -43t83 -49 t63.5 -70t41.5 -100q25 -104 -3 -212t-93.5 -192t-157.5 -132t-197 -35q-10 -43 -14 -90.5t-19 -94.5q-10 -39 -21 -43t-11 41q2 47 4 92t2 90q-57 4 -107.5 30t-88.5 66t-59.5 91t-21.5 106zM223 909q45 -16 109.5 -20t109.5 -17q18 72 39 136q-25 4 -63.5 2t-77.5 -12.5 t-72 -32t-45 -56.5zM381 186q57 8 104 38t83 72t59.5 92t34.5 101q12 94 -43.5 149.5t-135.5 78.5q-29 -135 -52 -267.5t-50 -263.5z" />
<glyph unicode="%" horiz-adv-x="741" d="M-6 797q-4 61 16.5 115.5t55.5 101.5q20 27 49.5 31t58.5 -15q8 -4 14.5 -5t12.5 -3q68 -10 98 -68q10 -23 16.5 -25.5t28.5 1.5q27 4 51.5 7t48.5 7l80 80q18 18 36 12t28 -26.5t9 -46t-15 -43.5q-74 -92 -117 -203t-84 -217q-25 -61 -50.5 -127t-53 -132.5t-53 -132 t-50.5 -122.5q-18 -35 -31.5 -32t-13.5 44q-4 84 8.5 165t36.5 161q41 139 101.5 260t115.5 243q4 4 5 10.5t5 12.5q-23 -2 -43 -4t-43 -4q-23 -63 -59.5 -118.5t-105.5 -70.5q-35 -8 -64 3.5t-48.5 33t-30.5 50t-13 57.5zM116 811.5q1 -22.5 11 -47.5q35 23 52.5 52.5 t27.5 64.5q-10 45 -26.5 50t-26.5 7q-10 -20 -19.5 -40.5t-14.5 -42t-4 -44zM343 93.5q-5 33.5 4 66.5t28.5 62.5t42.5 56.5q4 6 10 10q59 47 96 -23h8q33 10 59.5 2t43 -27.5t24 -46t3.5 -53.5q-10 -59 -59.5 -99t-100.5 -56q-35 -12 -70 0t-57 41q-27 33 -32 66.5z M465 104q39 8 62.5 31t-3.5 55q-4 4 -10 8.5t-12 10.5q-12 -29 -26.5 -51.5t-10.5 -53.5z" />
<glyph unicode="&#x26;" horiz-adv-x="1241" d="M3.5 168q-3.5 49 6.5 96q14 76 53 134.5t88.5 102.5t102.5 74.5t98 51.5q-41 43 -53 94t-5 102t29.5 100.5t51.5 90.5q53 68 136 115t171 60t169 -15.5t130 -112.5q18 -35 23.5 -62.5t5.5 -62.5q-6 -25 -27 -8q-16 14 -31 30q-45 61 -121.5 73.5t-156.5 -9t-146.5 -69.5 t-91.5 -107q-18 -47 14.5 -85t89 -64.5t124 -38t116.5 -3.5q31 8 38 -2t1 -26.5t-20.5 -34t-28.5 -23.5q-90 -23 -178 -54.5t-165 -75.5t-135.5 -101t-88.5 -133q-41 -98 -13.5 -144.5t86.5 -54.5q61 -10 140.5 15.5t156 65.5t141 86t95.5 81q-4 53 -4 107.5t18 101.5 q6 20 26.5 28.5t44.5 5.5t42 -18.5t18 -40.5q2 -37 1 -55t-1 -53q14 6 38 24.5t49.5 36t48 27.5t32.5 2q10 -10 12.5 -34t-1.5 -34q-33 -63 -70 -112.5t-74 -98.5q14 -45 30.5 -77.5t35 -59.5t40 -51.5t46.5 -50.5q37 -33 21.5 -40t-51.5 -1t-75 19.5t-51 19.5 q-41 25 -71.5 58.5t-53.5 74.5q-135 -80 -255 -129t-253 -49q-111 0 -194.5 61t-130.5 154q-20 49 -23.5 98z" />
<glyph unicode="'" horiz-adv-x="399" d="M110 1070q1 11 7 30.5t14 39t10 25.5q16 41 27.5 65.5t40.5 49.5q16 16 37.5 2t19.5 -33q-4 -37 -24.5 -62.5t-42.5 -47.5q-35 -37 -80 -70q-10 -10 -9 1z" />
<glyph unicode="(" horiz-adv-x="495" d="M8 277.5q-6 95.5 4 199.5q10 133 45 268.5t88.5 259t122 230t148.5 186.5q27 25 54.5 50.5t55.5 46.5q25 18 48.5 9t37 -31.5t15.5 -52.5t-17 -50q-78 -86 -148.5 -194.5t-128 -229.5t-97 -249t-55 -256t-3.5 -251t60 -231q20 -47 43.5 -90.5t48.5 -90.5q16 -35 19 -48 t-4 -12t-25.5 13.5t-45.5 28.5q-92 68 -148 145.5t-84 165.5t-34 183.5z" />
<glyph unicode=")" horiz-adv-x="673" d="M-55 -168q-2 29 16 51q76 84 145.5 191.5t127 229.5t97.5 252t56 259t5 251t-58 228q-20 47 -44 90t-48 91q-16 35 -19.5 48t3.5 12t25.5 -13.5t45.5 -28.5q92 -68 148.5 -145.5t84 -165.5t32.5 -183.5t-3 -199.5q-10 -133 -45 -268.5t-88 -259.5t-121.5 -230.5 t-148.5 -185.5q-27 -25 -54.5 -50.5t-56.5 -46.5q-25 -18 -48.5 -9t-36.5 31.5t-15 51.5z" />
<glyph unicode="*" horiz-adv-x="665" d="M141 1323q16 29 36 48.5t46 35.5q-14 12 -27.5 22.5t-23.5 24.5q-8 10 -7 23.5t11 19.5q18 25 47 8q18 -10 35.5 -19t36.5 -20q8 16 15 30.5t18 29.5q12 18 27.5 21t27.5 -3t20.5 -19.5t8.5 -31.5q0 -6 -8.5 -26.5t-8.5 -28.5q23 4 44.5 5t43.5 -9q23 -10 16 -21.5 t-24 -15.5q-18 -4 -38.5 -5t-39.5 -18q51 -49 64 -108q12 -49 0 -48t-39 17q-14 16 -30 31.5t-32 33.5q-16 -27 -29.5 -49t-27.5 -45q-8 -12 -16 -22t-25 -6q-12 2 -16 22.5t-5 44t1 45t2 27.5q-16 -10 -27.5 -17.5t-21.5 -13.5q-25 -18 -43 -6q-20 16 -11 43z" />
<glyph unicode="+" horiz-adv-x="849" d="M88 309q0 33 35 39q55 6 112.5 9t116.5 1q8 31 15.5 62t13.5 63q4 20 10 42t15.5 38.5t22.5 26.5t32 6q31 -6 31 -41q-4 -51 -12.5 -102.5t-20.5 -104.5q102 -12 198 -47q29 -10 28 -26.5t-36 -16.5q-55 -10 -109.5 -12t-107.5 0q-18 -55 -41.5 -106.5t-52.5 -98.5 q-16 -27 -32.5 -23t-8.5 39q4 51 11 99.5t18 95.5q-29 0 -55.5 1t-55.5 1q-20 0 -42.5 2t-41 7t-31 16.5t-12.5 29.5z" />
<glyph unicode="," horiz-adv-x="555" d="M198.5 104.5q-3.5 32.5 9.5 60.5t39.5 44t61.5 6q29 -10 48.5 -40t2.5 -93q-10 -51 -37.5 -90t-62.5 -74q-29 -29 -42 -25t-5 33q6 23 13 45.5t14 44.5q6 23 -9 33q-29 23 -32.5 55.5z" />
<glyph unicode="-" horiz-adv-x="849" d="M88 309q0 33 35 39q131 16 272.5 8t261.5 -55q29 -10 28 -26.5t-36 -16.5q-111 -16 -217 -10t-217 6q-20 0 -42.5 2t-41 7t-31 16.5t-12.5 29.5z" />
<glyph unicode="." horiz-adv-x="376" d="M90 82q2 39 29.5 67.5t66.5 28.5q31 0 51.5 -22.5t18.5 -51.5q-4 -41 -22.5 -67.5t-55.5 -24.5q-88 6 -88 70z" />
<glyph unicode="/" horiz-adv-x="692" d="M-8 -129q10 43 21.5 84t25.5 82q61 168 145 355.5t180.5 371.5t201 356t206.5 310q14 18 30.5 35.5t39.5 29.5t36 10t19 -11t7 -21.5t-1 -24.5q-4 -12 -7 -21.5t-7 -19.5q-82 -164 -176.5 -351.5t-193.5 -380t-198.5 -376.5t-191.5 -338q-20 -31 -40.5 -58.5t-43.5 -56.5 q-29 -37 -49 -28.5t-4 53.5z" />
<glyph unicode="0" horiz-adv-x="862" d="M3 288q-1 89 20.5 174t64.5 161t102 133q-23 59 -2 117.5t63 109.5t95 90t100 62q35 16 71 27.5t73 11.5q76 0 124 -45.5t74.5 -108t33.5 -130t1 -112.5q-18 -109 -57 -221.5t-100.5 -212.5t-143.5 -182t-182 -131q-98 -43 -178 -25.5t-127 109.5q-31 84 -32 173z M97.5 277.5q-11.5 -80.5 17.5 -148.5q8 -14 24.5 -20.5t34.5 -4.5q59 4 120.5 50.5t120 117t109.5 157.5t89 176t60.5 171t22.5 142q0 63 -12 108t-41 41q-47 -4 -98 -27.5t-96.5 -58.5t-80 -79t-46.5 -87q-8 -33 -7.5 -64.5t7.5 -64.5q12 -49 10 -64.5t-14.5 -12.5 t-31 17.5t-34.5 26.5q-18 -25 -52 -85t-62.5 -135t-40 -155.5z" />
<glyph unicode="1" horiz-adv-x="509" d="M9 963.5q1 15.5 18 25.5q90 45 180 87t184 77q31 29 64 8q29 -25 20 -65q-10 -27 -18 -52.5t-19 -52.5q-35 -94 -70.5 -185t-68.5 -183q-59 -156 -102 -307.5t-84 -299.5q-4 -25 -17 -45q-4 -10 -12 -9t-12 11t-7.5 23.5t-7.5 26.5q-14 94 -10 190t31 184 q53 172 103.5 313.5t107.5 276.5q-53 -23 -101.5 -46t-101.5 -34q-23 -4 -41 5.5t-27.5 22.5t-8.5 28.5z" />
<glyph unicode="2" horiz-adv-x="856" d="M-35 55q0 16 3 30.5t14 25.5q12 10 18 24.5t10 30.5q39 88 92.5 164t115 143.5t127 131t126.5 124.5q66 63 132.5 131t94.5 127q10 35 -10 47.5t-57 14.5q-92 2 -185.5 -24t-152.5 -85q-25 -14 -33 3.5t-4 46t20.5 60t40.5 48.5q68 51 146 63.5t146.5 -1t118.5 -46.5 t65 -72q14 -33 14 -65q-2 -74 -41 -136.5t-86 -109.5q-63 -68 -130 -131t-131.5 -128.5t-125 -134t-109.5 -144.5q57 8 133 11t149 -10.5t132 -46t88 -94.5q8 -16 6 -20t-18 -8h-15q-141 31 -266 30.5t-246 -16.5q-29 -4 -51 -12.5t-45 -20.5q-31 -16 -56.5 -1t-29.5 50z " />
<glyph unicode="3" horiz-adv-x="823" d="M27 293q37 57 101.5 93t123.5 52q10 2 33.5 6.5t42 3t22.5 -7.5t-22 -20q-25 -14 -58.5 -38t-65.5 -53.5t-59.5 -63.5t-42.5 -70q-10 -25 -6 -45.5t33 -36.5q41 -20 112.5 0t147.5 67t141.5 112.5t94.5 135.5q25 82 9 133t-55.5 79t-98 33t-120.5 -3q-16 0 -24 -2 q-27 -2 -37 19.5t6 41.5q23 29 48.5 52.5t54.5 45.5q20 14 73.5 42t105.5 57.5t85 58.5t14 47q-49 16 -108.5 13t-118 -19t-114.5 -42t-99 -50q-31 -14 -37 2t3 45t30.5 60.5t48.5 50.5q121 57 219 59t190 -39q37 -20 60.5 -60t11.5 -89q-6 -37 -32.5 -68t-61.5 -55.5 t-71 -46t-62 -39.5q33 -18 66.5 -38t62 -42.5t51.5 -51t33 -67.5q23 -70 10.5 -136.5t-48.5 -127t-90.5 -111.5t-115.5 -91t-125.5 -64.5t-120.5 -32.5q-170 2 -234.5 88t-6.5 213z" />
<glyph unicode="4" horiz-adv-x="862" d="M1 424q1 35 5 70q25 96 62.5 186t83 174t96.5 164t100 158q18 23 40 18.5t38 -23t25.5 -44t7.5 -46.5q-4 -31 -22.5 -58.5t-35.5 -59.5q-16 -29 -50 -89.5t-68.5 -127t-62 -124t-32.5 -81.5q51 33 105.5 70.5t110 71.5t109.5 59.5t105 35.5q6 4 18.5 38t27 76t30 82 t25.5 56q14 29 39.5 26t46 -26.5t30 -59.5t-11.5 -71q-45 -115 -80.5 -226.5t-69.5 -220t-68 -213t-77 -204.5q-4 -8 -10 -17.5t-13 -15.5t-14.5 -6t-13.5 12q-4 10 -6 22.5t-2 22.5q-4 100 6 180t28.5 154t43 150t53.5 170q-61 -23 -135 -65t-147.5 -94t-141 -107.5 t-115.5 -102.5q-4 -8 -13 -14.5t-19 -4.5q-20 6 -25 35q-4 35 -3 70z" />
<glyph unicode="5" horiz-adv-x="835" d="M2 184q4 102 59.5 169t131.5 116q12 6 36.5 15.5t45 14.5t28.5 1t-10 -23q-27 -29 -61.5 -68.5t-65.5 -82.5t-51.5 -86t-20.5 -80q2 -25 18.5 -33t37 -7t42 7t33.5 10q61 35 137 88.5t141.5 118t107.5 136t34 143.5q-10 39 -54 63.5t-102.5 35.5t-120 8t-102.5 -19 q-23 -8 -40 -2t-28.5 21t-14.5 34.5t3 38.5q27 80 52.5 150.5t48.5 142.5q-8 14 -15.5 34.5t21.5 16.5q162 0 278.5 4t214.5 39q18 6 24.5 -4t2.5 -27.5t-17.5 -38t-33.5 -35.5q-104 -61 -193.5 -74.5t-197.5 29.5v-8q-12 -37 -24.5 -77t-24.5 -81q80 0 142 -9t111.5 -30.5 t86 -58.5t65.5 -94q16 -35 25 -70q18 -100 -30 -202.5t-132 -188.5t-185.5 -147.5t-187.5 -77.5q-25 -2 -55 4q-70 10 -117 62.5t-43 121.5z" />
<glyph unicode="6" horiz-adv-x="622" d="M0 227q-6 70 16.5 167.5t64.5 205t97 214t116.5 192.5t123 141t112.5 61q18 0 31.5 -14t20 -33.5t4.5 -39t-15 -29.5q-102 -78 -166.5 -173.5t-119.5 -199.5q2 0 2 -1t2 -1h2q57 23 107.5 18.5t84 -29t51 -68.5t11.5 -99q-8 -76 -30.5 -157t-60.5 -154.5t-90.5 -133 t-115.5 -92.5q-51 -14 -95 4.5t-78 54t-54.5 80.5t-20.5 86zM111.5 218q-7.5 -54 7.5 -81q2 -10 11 -13t19.5 -3t20.5 2t14 6q37 20 72 69.5t64.5 110t53 124t36.5 112.5q16 63 -2.5 81.5t-54.5 9.5t-76.5 -37.5t-71.5 -59.5q-12 -33 -32.5 -89.5t-37 -117t-24 -114.5z" />
<glyph unicode="7" horiz-adv-x="618" d="M-4 1082.5q-2 23.5 24 23.5q74 -12 140.5 -9t128 16t120 37t117.5 50q33 12 55.5 -1t33 -37.5t7 -53.5t-17.5 -49q-84 -104 -146.5 -216t-113.5 -229q-2 -4 -2 -8q37 -10 74 -13t71 -13q14 -4 1 -21.5t-21 -17.5q-35 -4 -64.5 -3t-64.5 -1q-35 0 -45 -33 q-49 -123 -88 -241t-74 -238q-8 -18 -22 -19q-16 0 -25 19q-18 57 -18 120q6 115 36.5 208t61.5 179q-23 4 -47.5 3.5t-46.5 -3.5q-16 2 -26.5 13.5t-13.5 25t4 25.5t23 16q35 10 71 6t69 -4l8 4q43 100 96 197.5t115 196.5q-45 -12 -100.5 -27.5t-112 -18.5t-106.5 10 t-83 60q-16 23 -18 46.5z" />
<glyph unicode="8" horiz-adv-x="757" d="M-4 260q16 121 50 223.5t112 180.5q-35 76 -34 145.5t28.5 129.5t77 109.5t112.5 86.5q20 12 63.5 28.5t89.5 28.5t88 16t62 -8q53 -25 71.5 -76t6.5 -104q-35 -117 -76 -206t-90 -175q-25 -35 -34 -32t-9 22.5t4 46t6 39.5q8 49 24.5 109.5t32 113.5t24.5 93t1 46 q-51 -10 -103 -26.5t-98.5 -42t-84 -60.5t-62.5 -84q-12 -29 -6 -54.5t21.5 -47t38 -41t40.5 -35.5q43 -41 89 -82t81 -87t52.5 -99t-1.5 -115q-18 -51 -54 -105.5t-83 -99.5t-100 -73.5t-105 -26.5q-63 6 -108 29.5t-74 59.5t-42 81t-11 92zM119 178q4 -94 88 -72 q35 10 69.5 33t64.5 52.5t53.5 63.5t35.5 67q6 37 -13.5 71.5t-50 66.5t-65 58.5t-59.5 44.5q-53 -86 -90 -186.5t-33 -198.5z" />
<glyph unicode="9" horiz-adv-x="563" d="M4 766q4 80 38 155.5t88 136t126 99.5t154 49q27 2 50.5 -7t39.5 -34q12 4 16 6q25 4 44.5 -8t19.5 -39q0 -16 -2.5 -33.5t-6.5 -33.5q-51 -127 -108 -253t-111.5 -252t-103.5 -254t-82 -261q-4 -10 -6 -17.5t-6 -15.5q-6 -10 -17.5 -11t-17.5 11q-20 59 -21.5 125 t8.5 125q16 98 49 194.5t81 180.5q-18 -12 -37 -16.5t-41 -6.5q-78 -6 -118 43t-36 117zM134 743q5 -16 34 0q115 82 182.5 171.5t114.5 199.5q-72 -16 -137.5 -56t-110.5 -97q-61 -78 -80 -173q-8 -29 -3 -45z" />
<glyph unicode=":" horiz-adv-x="524" d="M131 139q2 39 29.5 68t66.5 29q31 0 51.5 -23t18.5 -51q-4 -41 -22.5 -67.5t-55.5 -24.5q-88 6 -88 69zM176 440q2 39 29.5 68t66.5 29q31 0 51.5 -22.5t18.5 -51.5q-4 -41 -22.5 -67.5t-55.5 -24.5q-88 6 -88 69z" />
<glyph unicode=";" horiz-adv-x="520" d="M125 98.5q-4 32.5 9 60t40 44t62 6.5q29 -10 48 -40t3 -93q-10 -51 -38 -90t-63 -74q-29 -29 -42 -25t-5 33q6 23 13.5 45.5t13.5 44.5q6 23 -8 33q-29 23 -33 55.5zM176 440q2 39 29.5 68t66.5 29q31 0 51.5 -22.5t18.5 -51.5q-4 -41 -22.5 -67.5t-55.5 -24.5 q-88 6 -88 69z" />
<glyph unicode="&#x3c;" horiz-adv-x="776" d="M10 376q-4 40 21 68q117 121 234.5 214.5t258.5 154.5q20 8 45 8t44.5 -7t28.5 -20.5t1 -31.5q-100 -80 -217 -166t-227 -164l-4 -4q51 -55 98 -103.5t90 -97.5t83 -102t75 -117q8 -25 -0.5 -32t-22.5 -5t-29.5 9.5t-23.5 11.5q-104 82 -203.5 166t-210.5 155 q-37 23 -41 63z" />
<glyph unicode="=" horiz-adv-x="874" d="M84 213q0 33 35 39q131 16 272 8t262 -55q29 -10 28 -26.5t-36 -16.5q-111 -16 -217 -10t-217 6q-20 0 -43 2t-41 7t-30.5 16.5t-12.5 29.5zM121 383q0 33 35 39q131 16 272 8t262 -55q29 -10 28 -26.5t-36 -16.5q-111 -16 -217.5 -10t-216.5 6q-20 0 -43 2t-41.5 7 t-30.5 16.5t-12 29.5z" />
<glyph unicode="&#x3e;" horiz-adv-x="749" d="M15.5 -23.5q-7.5 7.5 4.5 31.5q45 63 93.5 116.5t98.5 102.5t105.5 97.5t114.5 103.5q0 2 -2 4q-98 78 -201.5 164t-191.5 166q-6 18 5 31.5t31.5 20.5t45 7t45.5 -8q131 -61 234.5 -154.5t201.5 -214.5q20 -29 10 -68.5t-51 -62.5q-121 -72 -234.5 -155.5t-230.5 -165.5 q-8 -4 -25.5 -11.5t-31.5 -9.5t-21.5 5.5z" />
<glyph unicode="?" horiz-adv-x="894" d="M0 160q-6 59 22.5 83.5t64.5 21.5t62.5 -30.5t18.5 -70.5q-12 -43 -38 -66.5t-52.5 -25.5t-49 19.5t-28.5 68.5zM45 469q-10 59 9.5 115.5t58.5 106.5t91 96.5t106.5 86t106.5 71.5l91 56q16 10 50 30t67.5 42.5t59.5 44t26 33.5q2 20 -21 32.5t-41 16.5q-63 10 -130.5 5 t-131 -24.5t-119 -53t-92.5 -83.5q-18 -35 -31.5 -34.5t-18.5 22t0 58t24.5 77.5t55.5 80t89 64q125 47 239.5 43t200.5 -80q25 -23 41.5 -55.5t21.5 -70.5t-5.5 -77t-36.5 -72q-35 -41 -82 -76.5t-99.5 -68.5t-106.5 -66.5t-103 -72.5q-100 -78 -170 -170t-89 -176 q-4 -18 -19 -14.5t-21 22.5q-14 39 -21 92z" />
<glyph unicode="@" horiz-adv-x="1150" d="M102 147q-16 94 9.5 193.5t78 188.5t123 162t144.5 116q70 35 139.5 44t142.5 -17q76 -25 142.5 -72t106.5 -109.5t45 -136.5t-40 -149q-84 -133 -231 -185q-49 -12 -93 -0.5t-79 49.5q-4 2 -6 5.5t-6 5.5q-47 -25 -93.5 -51.5t-99.5 -14.5q-49 10 -74.5 47t-19.5 82 q6 41 32.5 88t64.5 82t84 48.5t89 -11.5q12 12 25 18q27 18 55.5 6t32.5 -40q2 -16 1 -31.5t-1 -32.5q0 -20 -1 -45t3 -43t17.5 -28.5t41.5 -4.5q106 41 154 142q29 63 19.5 112t-42 84t-84 52.5t-109 16.5t-115.5 -20.5t-103 -60.5q-25 -23 -61 -64t-71.5 -91t-65.5 -105 t-44 -106.5t-6 -95.5t49 -71q39 -23 90 -33t104.5 -12t106.5 3.5t96 13.5q41 6 82 14t82 12q18 4 22.5 1t1.5 -9t-11.5 -14t-16.5 -14q-88 -57 -182 -94.5t-197 -47.5q-57 -2 -111.5 12.5t-99.5 43t-76.5 70.5t-44.5 97zM424 309q25 2 47.5 11.5t39.5 23.5t26.5 33.5 t3.5 44.5q-41 -18 -71 -44t-46 -69z" />
<glyph unicode="A" horiz-adv-x="1447" d="M-43 63q-10 10 1 25.5t28 28.5q123 88 237.5 187t225.5 200q4 4 8 7t14 11q-90 12 -173 34t-169 38q-29 10 -57.5 18.5t-55.5 22.5q-14 16 1.5 19t25.5 3q31 4 58.5 7.5t58.5 7.5q131 2 240.5 8t217.5 6q10 0 17.5 4t15.5 8q92 86 171 176.5t152 184.5t140.5 191.5 t136.5 195.5q25 36 65 36q12 0 25 -3q16 -6 30.5 -25.5t14.5 -42.5q-16 -184 -60 -355t-79 -343q0 -4 -1 -9.5t-1 -7.5q47 -6 92 -20t58 -64q2 -6 2 -12q0 -25 -27 -43q-37 -18 -75 -24.5t-78 -12.5q-2 0 -6.5 -4t-4.5 -8q-47 -156 -75.5 -325t-63.5 -328q-4 -10 -10 -20.5 t-17 -10.5q-14 0 -20 8t-10 18q-39 180 -39 361q4 74 12 145.5t25 141.5v6q-10 4 -54 5q-22 0 -45 0.5t-49 -0.5q-51 -1 -97 -2t-65 -1q-12 0 -47 -21q-84 -57 -156.5 -125.5t-146.5 -132t-155.5 -114t-182.5 -70.5q-29 -4 -53 20zM850 686h2q35 0 92 3t92 3q2 0 4 2l4 4 q23 66 35.5 130.5t28.5 127.5q-25 -29 -59.5 -63.5l-71.5 -71.5t-71 -72.5t-56 -62.5z" />
<glyph unicode="B" horiz-adv-x="1464" d="M50 250q-3 21 -3 40q1 40 13 78q18 56 73 99q39 35 81 62.5t95 37.5q10 4 17.5 7.5t17.5 3.5h6q-10 -10 -16 -20.5t-12 -16.5q-35 -43 -68 -97q-32 -52 -50 -110q-16 -52 -16 -103v-12q2 -57 35 -104q29 -41 69 -63q40 -20 86 -28q31 -5 63 -6q15 0 30 2q47 4 90 9 q139 27 253 94t210 164q25 29 52.5 64.5t51 73.5t41 78t23.5 77q-10 57 -38 86.5t-75 39.5q-37 8 -85 9q-14 0 -28 -1q-66 -3 -153 -12q-29 -4 -59.5 -5t-61.5 -5q-2 0 -6 -4q-2 -2 -4 -2q-66 -123 -125 -250t-145 -235q-4 -6 -19.5 -27.5t-33 -39t-34 -20.5t-20.5 27 q-10 20 -8 54t10 71t19.5 71t17.5 52q10 37 20.5 73t24.5 70q45 90 85 178.5t87 174.5q25 53 50.5 104t52.5 101q18 29 46.5 29.5t54.5 -17.5q26 -16 43 -46q14 -24 14 -52q0 -6 -1 -13q-10 -41 -26.5 -76.5t-32.5 -70.5q12 0 22.5 3t22.5 3q61 0 138 32.5t141.5 82 t104.5 109.5q32 48 32 92q0 11 -2 22q-29 63 -87 96t-136 42q-35 4 -72 4q-46 0 -94 -6q-88 -11 -172.5 -34.5t-159 -57.5t-123.5 -71q-23 -8 -26 11.5t4 47t20.5 55.5t23.5 40q27 53 68 84t90 49q80 29 201 37q35 2 70 2q86 1 172 -13q120 -20 217.5 -69t132.5 -135 q14 -47 14 -92q0 -20 -3 -40q-9 -64 -39 -119.5t-77 -103t-102 -81.5q-4 -4 -8.5 -6.5t-12.5 -6.5q35 -14 66 -27.5t59 -35.5q35 -27 59.5 -65t32.5 -77q13 -42 13 -84q0 -25 -5 -50q-12 -66 -34 -122q-31 -61 -73 -119.5t-91 -99.5q-127 -141 -288 -218t-341 -99 q-20 -1 -40 -1q-38 0 -74 3q-54 4 -99 22.5t-82 53.5t-65 94q-41 61 -71 125.5t-39 128.5z" />
<glyph unicode="C" horiz-adv-x="1251" d="M-4 322q0 106 21.5 197t52.5 177q12 39 32 76q59 125 152.5 240.5t207 211t240.5 167t256 108.5q18 6 35 6t33 -6q10 -4 20.5 -4t22.5 10q16 10 34 10q15 0 31 -8q34 -16 37 -57q1 -13 1 -26q0 -44 -15 -87q-14 -49 -29.5 -92t-32 -87t-30.5 -95t-25 -117 q-2 -10 -7 -23.5t-11 -17.5q-10 -18 -27.5 -21t-31.5 13q-4 6 -9.5 12t-9.5 15q-20 46 -26 106q-2 25 -2 51q0 34 4 69q8 60 29.5 112.5t54.5 87.5q-4 0 -14.5 -6.5t-23 -13.5t-22.5 -13t-12 -6q-29 -16 -56.5 -30.5t-52.5 -31.5q-119 -76 -222 -162t-189 -186 q-57 -66 -106.5 -140.5t-85.5 -155.5t-56 -165q-18 -76 -17 -152v-16q2 -61 14.5 -115.5t41.5 -82.5q42 -40 99 -40h8q62 3 135 36.5t153 93t156.5 130.5t147.5 147.5t128 146.5q14 12 27.5 34.5t29.5 36.5q16 10 27.5 -6t11.5 -32q-4 -88 -37.5 -161t-80.5 -134 q-57 -74 -135 -147t-166.5 -132t-182.5 -96t-182 -37q-78 0 -134 26.5t-96 70.5t-66 101.5t-40 120.5q-4 18 -7 42t-3 47z" />
<glyph unicode="D" horiz-adv-x="1415" d="M4 49q0 8 21 23q20 10 40.5 16t40.5 8q80 23 159 38.5t151 47.5v6q-6 0 -6 5q-31 31 -38 75q-4 22 -4 46t4 50q7 52 25.5 105t36.5 100q74 180 143.5 368.5t124.5 350.5q-92 -23 -174 -59.5t-141 -102.5q-14 -14 -35.5 -40.5t-40 -56.5t-30 -59.5t-7.5 -47.5 q-4 -18 -19 -8t-31.5 34.5t-28 56t-5.5 58.5q23 96 79.5 164.5t132 116t161.5 74t168 38.5q67 12 147 16q28 2 55 2q53 0 106 -6q81 -8 154 -31.5t124 -66.5q113 -72 156 -180q34 -86 34 -177q0 -24 -2 -48q-31 -133 -109.5 -261.5t-183 -239t-225.5 -199.5t-233 -146 q-14 -10 -29.5 -17.5t-34.5 -17.5q-90 -43 -170 -66.5t-158 -30.5q-32 -3 -66 -3q-47 0 -95 6q-82 10 -174 39q-23 12 -23 20zM461 203q31 2 71.5 18.5t83.5 39t82 46t64 39.5q174 123 324.5 269.5t240.5 336.5q12 27 22.5 54.5t14.5 56.5q3 21 3 39q1 38 -13 68 q-20 44 -59.5 74t-92.5 46q-52 17 -108 24q-49 6 -95 6h-13q-52 -1 -89 -5q-6 0 -6 -15v-24q-86 -281 -187.5 -550t-242.5 -523z" />
<glyph unicode="E" horiz-adv-x="1277" d="M8 238q-1 13 0 26q0 22 2 45q6 41 20.5 78t32.5 72q49 82 122 146.5t153 109.5q4 4 6 5t6 5q-12 10 -21.5 18.5t-19.5 18.5q0 4 -3 7l-7 7q-23 37 -24 77v5q0 38 14 76q25 72 75 141.5t116.5 134t143 119.5t153.5 97t149.5 69t130.5 31q11 1 22 1q52 0 88 -24 q29 -14 53.5 -33.5t20.5 -54.5q-16 -104 -22.5 -203.5t-6.5 -201.5q-4 -12 -4 -22.5t-14 -14.5q-8 -3 -16 -3q-22 0 -43 21q-41 39 -59.5 83t-22.5 90q-1 15 -1 31q0 31 5 63q8 48 22 94q-4 10 -41 4q-47 -8 -105.5 -35t-123 -64.5t-126.5 -84t-116.5 -94.5t-94.5 -96 t-56 -87q-12 -29 -3 -49.5t54 -20.5q43 0 86 9.5t95 28t119 47t157 69.5q31 8 34 -12.5t-5.5 -48t-23 -53t-20.5 -31.5q-33 -27 -75.5 -48.5t-89 -42t-90.5 -42t-79 -46.5t-84 -59.5t-101 -75.5t-100 -88t-81 -95t-42 -96q-2 -13 -2 -26q0 -35 17 -68q14 -27 50 -35 q21 -5 47 -4q17 0 36 2q47 6 103.5 20.5t113.5 37.5q154 59 286 128t249 153q20 14 37 30q4 6 10 -4t10 -27.5t7.5 -39t3.5 -41.5q-6 -70 -57.5 -123.5t-125.5 -93.5q-86 -49 -180 -89.5t-192 -64.5q-96 -25 -196 -28h-20q-89 0 -174 24q-29 10 -53 25.5t-43 37.5 q-29 25 -43 54.5t-28 58.5q-13 36 -15 70z" />
<glyph unicode="F" horiz-adv-x="1036" d="M-25 1393.5q0 7.5 23 5.5q29 -4 56.5 -12.5t54.5 -14.5q115 -27 243 -34q40 -2 79 -2q87 0 173 10q125 16 239.5 57t205.5 115q27 20 38 53q10 33 33 28.5t42.5 -30t28.5 -66.5q4 -16 4 -32q0 -25 -9 -50q-25 -66 -73 -107.5t-107.5 -67t-124 -39t-125.5 -19.5 q-55 -6 -87 -9t-49.5 -5.5t-24.5 -2.5h-11q-10 0 -15 -8q-16 -37 -32.5 -73.5t-32.5 -69.5q-23 -53 -44.5 -104.5t-45.5 -102.5h20q141 0 233.5 5t153 10.5t96 6.5t62.5 -6q18 -6 16 -34.5t-17 -60.5t-39 -57.5t-44 -25.5q-137 -6 -269 -6h-261q-14 0 -15 -16 q-23 -55 -43 -121q-10 -33 -21.5 -70t-25.5 -100.5t-30.5 -164.5t-36.5 -263q0 -12 -5 -19q-12 -20 -34 -10q-25 10 -42.5 41t-27.5 71t-15.5 86t-5.5 89q-1 19 -1 39q0 103 27 203q32 118 65 227q-20 2 -55 6.5t-66 20.5q-18 6 -21.5 22t8.5 27q35 35 89.5 61.5t101.5 26.5 l12 12q45 98 83 193.5t93 181.5q-49 12 -100 27.5t-101.5 34t-96.5 42t-85 56.5q-2 0 -13 9t-19.5 19t-8.5 17.5z" />
<glyph unicode="G" horiz-adv-x="1257" d="M-10 569q12 133 77.5 244t139.5 207q115 123 236.5 224.5t263.5 176.5q72 37 149 58q12 4 24.5 15t26.5 22q20 17 42 17q10 0 20 -3q35 -10 54 -38q9 -14 9 -29q0 -17 -10 -36q-39 -80 -81 -164.5t-83 -164.5q-10 -25 -23.5 -52.5t-25.5 -46.5q-23 -23 -41 -4t-27 43 q-10 20 -14 49t-4 59t5 57.5t15 47.5q-133 -94 -252.5 -199.5t-202.5 -224t-116 -249.5q-15 -59 -15 -120q0 -77 23 -157q20 -55 70 -65q22 -5 44 -5q32 0 66 9q58 14 115 43.5t96 56.5q94 70 171 131t157 141l6 6q-53 -8 -107.5 -18t-107.5 -18q-16 -2 -37.5 3t-42 19 t-35 37t-16.5 57q0 23 10.5 29t32.5 6q21 -1 42 -1q61 0 121 8q81 12 159 28q23 4 57.5 13.5t70 17.5t67.5 13t50 3q31 -4 31 -33.5t-4 -64.5q0 -14 -5 -26.5t-11 -22.5q-74 -76 -124 -143.5t-90 -145.5t-77 -174t-84 -228q-4 -10 -7 -23t-10 -24q-6 -10 -15 -13t-18.5 -2 t-17.5 7t-10 15q-25 74 -26 141v17q0 59 6 122q-150 -96 -275 -123q-42 -8 -82 -8q-82 0 -160 35q-86 45 -139 135q-45 72 -56 152q-7 53 -7 104q0 29 2 57z" />
<glyph unicode="H" horiz-adv-x="1253" d="M4 683q-6 28 16 40q-4 -4 23 3t67 17.5t85 22.5t77 22q16 4 22.5 16.5t16.5 29.5q16 27 45 81t62 119.5t64.5 133t57 124t40 92t12.5 35.5l-17 -2q-23 -8 -60.5 -26.5t-82.5 -45t-92 -58.5t-87 -62.5t-69.5 -59t-40.5 -49.5q-42 14 -42 49q1 37 21 79q20 40 46.5 74 t38.5 44q35 29 85 62.5t104 59.5q55 28 109 44q40 12 74 12q13 0 25 -2h4q43 0 80 -36t45 -75q6 -23 6 -45q0 -18 -4 -34q-8 -38 -22 -80q-41 -86 -70 -149.5t-50.5 -110.5t-38.5 -85t-36 -71h4q68 14 119 23.5t99 15.5t99.5 11t118.5 11q23 0 27 19q41 109 85 207t91 196 l25 58q14 31 38.5 29.5t47 -19t38 -43t13.5 -45.5q-6 -29 -15.5 -40t-15.5 -38q-35 -92 -67.5 -174t-71.5 -160q4 0 8 -1t8 -1q12 -2 49 -10t68 -19q18 -8 25.5 -23t4.5 -29.5t-14.5 -26t-29.5 -11.5q-35 -2 -54.5 -4t-35 -4t-31.5 -5t-47 -7q-16 -8 -17 -14 q-39 -94 -79.5 -203t-80.5 -220.5t-77 -219t-70 -201.5q-10 -25 -30.5 -19t-36.5 29q-19 23 -19 79v8q2 62 14.5 133t29 134.5t24.5 91.5q31 117 70.5 214.5t68.5 164.5q-8 0 -16.5 -1t-18.5 -3q-123 -20 -226 -41.5t-208 -44.5q-6 0 -11 -3t-3 -9q-35 -68 -70 -153 t-67.5 -174t-62.5 -175t-56 -155q-8 -18 -18.5 -50t-20.5 -63t-20.5 -51.5t-16.5 -14.5q-18 -2 -32.5 14.5t-24.5 43.5q-21 54 -21 117q0 25 4 51q12 92 42 189t70 193.5t69 176.5l-58 -8q-25 -10 -54.5 7t-50 43.5t-26.5 54.5z" />
<glyph unicode="I" horiz-adv-x="956" d="M8 -72q4 33 24.5 48.5t43.5 25.5q66 29 129 40t127 28q-25 97 -25 197q0 30 2 60q10 130 46 258t85 253t95 241q25 59 45 106.5t36 94.5q-98 -33 -178 -60.5t-164 -68.5q-35 -18 -53 6q-8 21 -8 42q-1 20 7 40q16 41 50 70q76 57 199 100t255 65q126 22 247 22h11 q126 -1 208 -32q31 -10 42 -40.5t1 -61.5q-4 -16 -19.5 -30.5t-34 -23t-39 -8.5t-36.5 13q-10 8 -26.5 10t-30.5 4q-24 1 -53.5 1t-64.5 -1q-69 -2 -128 -12q-29 -78 -56.5 -153t-56.5 -148q-45 -115 -85 -229.5t-69.5 -230.5t-47 -232.5t-17.5 -237.5q59 2 116.5 2 t110.5 -12q98 -25 183 -92q12 -12 20 -33t-14 -27q-10 -2 -22.5 -2h-22.5q-156 10 -304 10h-50q-172 -2 -345 -47q-16 -4 -29.5 -9t-29.5 -11t-29 -6q-19 -1 -31 13q-20 24 -14 58z" />
<glyph unicode="J" horiz-adv-x="1339" d="M2 218q6 52 22.5 103.5t40 99.5t50.5 87q111 158 250 260t292 168q88 35 179 40q14 1 27 1q77 0 147 -25q14 -4 34 -18q25 -29 -10 -51q-8 -8 -16 -10.5t-19 -6.5q-106 -37 -212.5 -74.5t-205 -90t-184.5 -125t-153 -179.5q-23 -31 -44.5 -69.5t-38 -80.5t-24.5 -84 q-5 -28 -5 -53q0 -12 1 -24q2 -41 39 -51q25 -7 54 -7q14 0 30 2q47 5 93 18t69 20q135 51 268 146t233.5 219t153.5 273q37 106 37 217q0 46 -6 93q-2 23 -12.5 40t-20.5 31q-26 31 -26 68q0 4 1 9q3 42 35 83l6 8q-23 0 -42 1t-37 6q-135 4 -266.5 6t-262.5 6 q-29 0 -65 10q-29 12 -31 49q-2 16 6 29.5t21 23.5q27 18 54.5 24.5t55.5 8.5q123 14 243 19q72 2 143 2q48 0 96 -1q118 -3 236 -8.5t237 -7.5q35 -4 56 -31q18 -24 18 -52q0 -5 -1 -11q-4 -41 -32 -67q-27 -23 -61 -23h-5q-4 0 -7 -1t-7 1q-25 2 -59 -4t-64.5 -19.5 t-52 -33t-21.5 -41.5q25 -129 25 -232v-15q-2 -108 -33 -218q-49 -160 -158.5 -308.5t-249 -263t-295.5 -182.5q-151 -67 -289 -67h-8q-92 16 -147 87.5t-78 174.5q-6 31 -6 62q0 19 2 39z" />
<glyph unicode="K" horiz-adv-x="1179" d="M-1 78q-3 21 -3 42q0 45 14 89q45 137 105.5 267t128 254t137.5 245t133 244q14 29 32.5 61.5t16.5 56.5q0 10 -27.5 4t-68.5 -25.5t-92 -48t-100.5 -64.5t-89.5 -77t-60 -84q-55 8 -75 41q-16 27 -17 59q0 8 1 16q5 42 32.5 84t68.5 71q57 39 111.5 65.5t132.5 59.5 q63 25 129 40q30 7 54 7q30 0 52 -10q41 -16 64.5 -54.5t48.5 -91.5q12 -25 10 -52.5t-10 -55t-21.5 -55t-25.5 -52.5l-270 -461q53 51 122.5 116t148.5 130.5t164 125.5t172 103q87 44 172 64q51 12 99 12q33 0 66 -6q14 -2 35.5 -14.5t38 -26.5t19.5 -26.5t-20 -14.5 q-8 0 -28 -4q-94 -18 -205 -70.5t-217.5 -121t-198.5 -146t-151 -147.5q31 -96 79 -207t113.5 -209t149.5 -170t186 -88q31 -4 59.5 -3t45.5 13q6 4 11 2t4 -8t-10.5 -17.5t-33.5 -27.5q-102 -70 -187.5 -70t-158 45t-133 124t-109.5 170t-89 183.5t-73 159.5 q-37 -31 -99.5 -100.5t-123.5 -156.5t-107.5 -181t-52.5 -172q-4 -33 -25.5 -14.5t-43 65.5t-30.5 113z" />
<glyph unicode="L" horiz-adv-x="1538" d="M-16 -102q-10 29 4 56.5t43 37.5q45 16 90 30.5t88 26.5q23 6 24 27q29 172 91.5 348t137.5 339t150.5 302t135.5 235q-29 -12 -55.5 -26.5t-55.5 -26.5q-12 -6 -41 -14t-61.5 -14.5t-63.5 -8.5t-47 4.5t-11 22.5t42 47q84 57 162.5 106.5t164.5 77.5q17 6 33 6 q19 0 37 -8q33 -14 56.5 -43.5t35.5 -69.5q8 -27 8 -52q0 -13 -2 -25q-2 -8 -7 -13.5t-9 -13.5q-66 -115 -141.5 -252t-149.5 -285.5t-140.5 -300t-111.5 -294.5l-6 -33q119 23 258 47.5t279 30.5q29 1 57 1q110 -1 214 -19q130 -24 230 -97q8 -6 16.5 -17.5t12.5 -24.5 t1 -23.5t-17 -12.5q-164 33 -331 36h-49q-142 -1 -284 -15q-166 -18 -326.5 -54t-308.5 -83q-18 -6 -41.5 -8.5t-46 3t-41 17.5t-24.5 33z" />
<glyph unicode="M" horiz-adv-x="1763" d="M-18 58q6 74 25.5 154.5t37.5 141.5q51 164 111.5 305.5t126 276.5t132 270t130.5 289q12 12 41.5 3t60.5 -29.5t55.5 -48t24.5 -52.5q0 -27 -24.5 -79t-58.5 -114.5t-69.5 -129t-58.5 -121.5q125 135 252 258t274 215q22 12 44 12q12 0 23 -4q32 -10 53 -38 q20 -27 28 -65q3 -15 3 -30q0 -22 -7 -43q-16 -39 -41 -99.5t-51.5 -126t-51 -127t-38.5 -98.5q63 82 157 174t192.5 177t188.5 156t150 112q13 9 27 9q17 0 35 -14q34 -24 58.5 -64t31.5 -81t-13 -53q-98 -168 -173 -311.5t-127 -286.5t-78 -294.5t-26 -334.5 q0 -10 -10 -13t-16 -3q-35 2 -58.5 10t-42.5 23q-61 49 -70 147q-2 26 -2 53q0 77 18 166q26 121 75 254t105.5 253t109.5 214t84 139q-92 -55 -195.5 -148t-205 -199.5t-192.5 -217t-155 -199.5q-20 -8 -49.5 -0.5t-57.5 28t-45 50.5q-14 25 -14 57q0 7 1 15q20 76 52 157 t67.5 160.5t72.5 155.5t70 143q-96 -59 -193.5 -143t-189.5 -186.5t-174 -221t-146.5 -246.5t-105.5 -263.5t-50 -272.5q-10 -23 -25 -23.5t-34 3.5q-47 13 -61 69q-10 39 -11 86q1 21 3 44z" />
<glyph unicode="N" horiz-adv-x="1316" d="M0 158q8 188 35.5 347t68.5 307.5t92.5 294.5t104.5 312q10 33 30.5 39t44 -4t48.5 -33.5t43 -52.5t27.5 -57.5t5.5 -48.5q-20 -80 -55 -162t-80.5 -189.5t-96.5 -254t-106 -353.5q104 119 231 270.5t277.5 301t324.5 282.5t373 217q31 14 57.5 -3t49.5 -40 q30 -26 30 -61q-1 -4 -1 -8q-4 -40 -17 -68q-84 -139 -157 -303t-131 -336t-101 -342t-66 -319q-4 -33 -6 -58.5t-2 -64.5q0 -27 -18 -27q-12 0 -24.5 15.5t-20.5 35.5q-35 92 -38 208v35q0 100 14 206q17 125 54 256t83 258t99.5 242.5t104.5 209.5q-172 -98 -329.5 -227 t-299 -272.5t-264.5 -295t-225 -294.5q-20 -29 -31.5 -56.5t-26.5 -52.5q-12 -23 -29.5 -14.5t-33.5 34t-27.5 60.5t-11.5 66z" />
<glyph unicode="O" horiz-adv-x="1146" d="M2 377q0 86 8 168t25 164q10 53 22.5 106t24.5 109q14 55 51 65q15 4 29 4q22 0 43 -9q35 -15 57 -48q14 -20 14 -39q0 -13 -6 -25q-23 -53 -45 -142t-37.5 -189.5t-21.5 -197.5q-2 -32 -2 -61q0 -58 8 -104q8 -47 30 -85q19 -34 46 -34h6h6q36 0 90 40q58 44 117 107.5 t110.5 135.5t73.5 123q-80 31 -143.5 92t-108.5 141t-69 172q-21 81 -20 161v21q3 91 34 174t94 146q84 82 178 102q35 8 68 8q59 0 117 -22q78 -29 121 -88t60 -137q15 -70 15 -148v-19q-2 -89 -16 -178t-34 -169t-36 -139q49 -4 85 -4h23q42 2 103 8q45 6 45 -7.5 t-19.5 -32t-46 -35.5t-34.5 -19q-35 -16 -61.5 -27.5t-53 -19t-53.5 -9.5t-59 -2q-37 -66 -92.5 -148.5t-124 -155.5t-149.5 -122t-167 -49q-98 2 -158.5 45t-93 106.5t-43 135t-10.5 131.5zM484 1006q5 -84 34 -161t78 -140.5t117 -98.5q33 61 59.5 138t40.5 159t16 162v21 q0 68 -11 126q-13 66 -45 112t-85 62q-78 -29 -124 -88q-46 -60 -66 -134q-16 -59 -15 -124q0 -17 1 -34z" />
<glyph unicode="P" horiz-adv-x="1740" d="M-8 860q2 113 51 203t130 158.5t184.5 116.5t214 78t219 44.5t198.5 14.5q94 0 196.5 -14.5t197 -44.5t175 -78t132.5 -116q50 -69 66 -160q5 -28 6 -58q0 -69 -25 -150q-35 -111 -119 -201t-194.5 -156.5t-236.5 -109.5t-246 -57q-62 -8 -120 -8q-53 0 -103 6 q-102 14 -163 59q-25 -53 -51.5 -108.5t-52 -120t-51 -140t-48.5 -168.5q-4 -12 -8 -25t-10 -21.5t-14.5 -7.5t-16.5 20q-29 53 -33 137q-1 19 -1 39q1 66 11 137q14 92 40 180t59 154q8 12 12 24.5t-8 22.5q-14 -1 -28 -1q-61 -1 -115 21q-68 26 -121 75.5t-87 116 t-40 138.5zM227 922q-4 -23 -4 -46q0 -64 32 -128q44 -88 165 -156q51 119 84 189.5t51 110.5t27.5 58.5t17.5 32.5q18 27 52 18.5t64 -35.5q30 -28 46 -68q8 -20 8 -40q0 -19 -8 -37q-23 -49 -43.5 -89t-38.5 -78t-38.5 -77.5t-43.5 -89.5q82 2 189.5 18.5t218 48.5t213 80 t178.5 114q111 96 153 179q35 68 36 126q0 13 -2 25q-9 68 -62.5 119.5t-131.5 86.5q-78 34 -178 50q-79 12 -159 13q-20 0 -41 -1q-129 -6 -261.5 -36t-242 -82t-186 -129t-95.5 -177z" />
<glyph unicode="Q" horiz-adv-x="1148" d="M2 377q0 86 8 168t25 164l47 215q14 55 51 65q15 4 29 4q22 0 43 -9q35 -15 57 -48q14 -20 14 -39q0 -13 -6 -25q-23 -53 -45 -142t-37.5 -189.5t-21.5 -197.5q-2 -32 -2 -61q0 -59 8 -104q8 -47 27.5 -74.5t50.5 -23.5h7q35 0 89 37q60 41 119 100t111.5 128t74.5 120 q-80 31 -143.5 92t-108.5 141t-69 172q-20 81 -20 161v21q3 91 34 174t94 146q106 104 228 110q9 1 17 1q113 0 220 -80q45 -33 65.5 -95.5t25.5 -139.5q2 -29 2 -60q0 -49 -5 -101q-8 -85 -22.5 -165t-32 -147.5t-29.5 -108.5q66 -6 110 -6t105 6q45 6 45 -7.5t-19.5 -32 t-46 -35.5t-34.5 -19q-68 -35 -117 -46q-41 -8 -94 -8h-20q-25 -45 -58 -100t-72.5 -111.5t-88 -107.5t-103.5 -88q69 3 128 3q29 0 55 -1q79 -2 96 -4q43 -8 86 -16.5t84 -24.5q25 -6 28.5 -12.5t-2.5 -11.5t-20.5 -9t-26.5 -6q-211 -23 -407.5 -46.5t-393.5 -68.5 q-2 -2 -5 -2t-7 -2q-33 0 -45 27q-11 21 -11 39q0 22 16 38q30 31 91 52q-57 27 -92 72.5t-54.5 100t-25.5 112t-6 106.5zM465 1017q10 -87 43 -167t85 -144.5t120 -99.5q33 61 58.5 142t38.5 169.5t13 173.5t-16 153.5t-51 112.5t-90 50q-82 -27 -129.5 -87t-64.5 -138 q-11 -49 -11 -102q0 -31 4 -63z" />
<glyph unicode="R" horiz-adv-x="1150" d="M4 670q10 16 27.5 20t36.5 8q27 4 53 7.5t55 7.5q20 0 27 20q18 29 49 80t69.5 109.5t85 116t95.5 98.5t100 57q21 7 43 7q29 0 57 -13q41 -20 61.5 -50t-5.5 -46q-29 -16 -62.5 -29.5t-56.5 -36.5q-53 -53 -92 -122.5t-84 -125.5q57 8 140 46t172 92.5t172 119 t137 122.5q54 59 72 107q5 14 5 25q0 29 -31 43q-41 20 -91 29.5t-104 9.5t-108.5 -7t-103.5 -19q-47 -10 -115.5 -37t-136.5 -62t-125 -76t-82 -79q-20 38 -20 72q0 16 4 32q14 49 53 91t95.5 77t116.5 60.5t115.5 43t92.5 25.5q110 25 205 25h28q106 -4 207 -56 q45 -20 77 -55t48 -77q18 -45 18 -91q0 -42 -18 -80q-47 -102 -119.5 -186t-163 -149.5t-191.5 -115t-202 -79.5q-6 -4 -13 -5t-13 -6q-4 0 -4 -4v-8q0 -68 21.5 -148.5t57 -160.5t80.5 -149.5t92 -116.5q70 -68 158 -114q89 -45 185 -67q78 -17 156 -18q18 0 37 1 q97 5 183 40q2 0 2 -4q4 -8 2 -16q-12 -51 -58 -87t-106 -56q-62 -20 -130 -28q-31 -3 -59 -4q-35 0 -66 5q-154 20 -285 106t-228.5 211t-156.5 275.5t-70 302.5h-47q-16 0 -16 -9q-35 -55 -57.5 -115.5t-42 -121t-40 -120.5t-49.5 -118q-20 -39 -43 0q-23 33 -28 84 q-6 57 -6 109q0 61 8 115q14 100 61 200q-18 6 -35.5 12.5t-36.5 10.5q-18 6 -33.5 16.5t-25.5 28.5z" />
<glyph unicode="S" horiz-adv-x="1030" d="M2 119q-7 38 -7 74q-1 41 9 81q18 74 61.5 135.5t102.5 110.5t125 80q39 20 80 31.5t82 17.5q39 8 39 -3t-18.5 -29.5t-44.5 -38l-34 -25.5q-76 -53 -141.5 -130t-105.5 -153t-48 -140q-1 -9 -1 -19q0 -49 36 -72q19 -12 46 -13q23 0 53 10q64 20 137 65.5t150 110 t140.5 132.5t104.5 130.5t45 105.5q1 9 1 17q0 33 -20 59q-24 32 -68 55.5t-99.5 41t-111.5 33t-107.5 32t-85.5 38.5q-39 25 -61.5 58.5t-32.5 70.5q-10 34 -10 69v7q1 39 11 74q16 68 74.5 131t134.5 111t158 74q61 19 112 19q18 0 35 -2q61 -10 102.5 -34.5t61.5 -83.5 q7 -24 7 -50t-7 -54q-14 -56 -43.5 -106t-68.5 -92t-74 -65q-16 -12 -34.5 -18.5t-35 -8.5t-26 2.5t-4.5 12.5q25 43 52 96t52 105.5t41 97.5t20 71q4 23 -11 25t-38 -4q-39 -12 -93 -39t-106.5 -60.5t-92 -71.5t-48.5 -71q-10 -20 -5 -38.5t16.5 -34t27 -26.5t27.5 -20 q55 -35 110.5 -60.5t107.5 -53t101 -59t92 -76.5q66 -70 84 -154q7 -32 6 -63q0 -52 -18 -103q-33 -102 -109.5 -201.5t-176.5 -174.5q-100 -76 -210 -117q-85 -32 -162 -32q-22 0 -44 3q-98 14 -159.5 65.5t-82.5 143.5z" />
<glyph unicode="T" horiz-adv-x="845" d="M68 1249q0 57 55 86q119 57 293 88t370 38q65 2 130 2q130 0 264 -9q200 -14 368 -45q10 -2 32 -10t46.5 -20.5t47 -26t33.5 -26.5t6 -23.5t-34 -14.5t-57.5 -4h-56.5h-361.5t-357.5 -10q-4 -10 4 -22.5t16 -27t11.5 -29.5t-7.5 -30q-119 -221 -215 -482t-194 -595 q-6 -23 -11.5 -41t-11.5 -36.5t-13 -41t-15 -53.5q-12 -27 -33 -16q-29 12 -39 60t-12 106q-1 19 -1 37q0 37 3 72q4 52 8 73q18 117 53 251t84 267t109.5 257t132.5 224q10 10 12 15q-9 4 -37 4q-14 0 -32 -1q-56 -3 -122.5 -10.5t-131 -18.5t-97.5 -22q8 -10 35 -32.5 t50.5 -45t28.5 -40t-30 -17.5q-47 0 -91 11.5t-83 31.5q-20 10 -46 23.5t-48.5 29t-38.5 34t-16 40.5z" />
<glyph unicode="U" horiz-adv-x="1142" d="M0 244q27 129 70 268t97 275.5t115.5 266.5t125.5 240q-49 -31 -87 -60.5t-70 -63t-59.5 -78t-54.5 -103.5q-12 -6 -32.5 4.5t-40 30.5t-32 46t-7.5 48q14 82 66 144.5t118.5 105.5t135.5 68.5t114 31.5q19 4 36 4q21 0 39 -6q32 -10 53 -34q21 -22 27 -54q3 -13 3 -27 q0 -19 -5 -38q-6 -49 -48 -144.5t-102.5 -215t-126 -251t-117.5 -249t-80 -209.5q-17 -56 -18 -94q0 -24 7 -41q8 -18 22.5 -10.5t32.5 16.5q82 35 173 132t183.5 227t182.5 278.5t169 287t143.5 251t105.5 171.5q24 27 51 27h6q30 -4 53 -29.5t31 -63.5q2 -12 2 -23 q0 -26 -12 -52q-43 -78 -84 -154.5t-72 -156.5q-45 -119 -85 -249t-68.5 -264.5t-42.5 -268.5q-8 -77 -7 -151q0 -55 4 -108q1 -14 1 -25q0 -50 -14 -63q-4 -4 -11 -4q-18 0 -53 35q-43 43 -64 95q-22 53 -28 111q-3 29 -3.5 59.5t3.5 62.5q6 64 18 131q23 125 54.5 245.5 t64.5 245.5q-20 -37 -57.5 -113.5t-87.5 -171t-111.5 -196.5t-131 -188.5t-144.5 -146.5t-152 -73q-13 -3 -26 -3q-31 0 -58 20q-39 30 -67 75.5t-41 96.5q-9 35 -9 60q0 12 2 22z" />
<glyph unicode="V" horiz-adv-x="845" d="M12 736q33 247 107 487q12 27 53 26.5t82 -19.5q42 -18 68 -48q17 -20 17 -41q0 -11 -5 -23q-23 -49 -45.5 -132t-43 -183.5t-35.5 -210.5q-14 -109 -22 -209q-5 -65 -5 -122q0 -30 1 -59q4 -81 25 -128q96 129 176 267t150.5 280.5t134 288t125.5 286.5 q31 72 60.5 151.5t78.5 137.5q20 18 31.5 12t15.5 -23.5t4 -37v-29.5q-14 -94 -24.5 -186.5t-42.5 -178.5q-53 -135 -109.5 -268t-121 -262t-139.5 -251t-163 -232q-71 -87 -139 -93q-5 0 -9 -1q-63 0 -118 71q-35 47 -61.5 104.5t-43.5 116.5q-18 135 -18 266q0 123 16 243 z" />
<glyph unicode="W" horiz-adv-x="1355" d="M-29 289q4 117 25.5 245t47.5 247.5t52.5 222t42.5 172.5q10 39 44 43q6 1 13 1l55 -14q35 -18 59 -51q18 -25 18 -52q0 -9 -2 -18q-10 -43 -31 -122.5t-46.5 -178t-52 -208t-47 -212t-29.5 -188.5q-5 -46 -5 -81q0 -32 4 -56q2 -12 10 -32.5t19.5 -36t25.5 -19.5t31 18 q25 35 60.5 123t77.5 198.5t86 227.5t85 207q37 82 80 151.5t100 122.5q8 8 19.5 11.5t21.5 -2.5q29 -16 57 -43q24 -24 24 -62q0 -6 -1 -12q-6 -51 -15 -121t-18.5 -149.5t-16.5 -163.5t-10 -161q-1 -33 -1 -64q0 -40 2 -78q4 -66 18 -107q6 -25 17.5 -29t25.5 5 q23 16 43.5 45.5t38.5 64.5q57 119 113.5 269.5t105.5 305t90 300t66 254.5q4 18 11 48.5t17.5 60.5t23.5 51.5t32 21.5q25 -8 38 -37t20 -63.5t7 -69.5t-2 -55q-23 -135 -61.5 -290t-95.5 -315q-25 -66 -57.5 -153.5t-73.5 -175.5t-89.5 -163t-103.5 -114q-39 -29 -82 -41 q-32 -9 -63 -9q-10 0 -20 1q-40 4 -74.5 27.5t-55.5 68.5q-29 59 -41 139t-15 161q-2 40 -1.5 78.5t1.5 74.5q3 72 7 117q-23 -31 -49.5 -96.5t-56 -147.5t-64.5 -170t-72 -164t-76.5 -129t-82.5 -63q-18 -4 -39 -1t-40.5 12t-37 21.5t-27.5 24.5q-49 60 -67 160 q-14 81 -14 174q0 21 1 43z" />
<glyph unicode="X" horiz-adv-x="1161" d="M-4.5 -4q-18.5 12 0.5 49q43 86 101.5 174t121 171t126 157t118.5 133q-57 174 -93 354q-32 162 -32 326v37q6 49 41 60q17 5 35 5q20 0 41 -6q41 -12 72.5 -39.5t31.5 -54.5q0 -49 3 -112.5t9.5 -133t16.5 -138.5t22 -130q33 43 88.5 103.5t122 128t139 135t141 125 t126 98.5t94.5 55q27 10 54.5 -3t45 -34.5t18.5 -46.5t-24 -37q-47 -25 -112.5 -73t-138 -109.5t-147.5 -131t-142.5 -137t-124 -128t-91.5 -103.5q8 -53 33 -128t60.5 -156.5t80 -164.5t93.5 -154t101 -120t101 -63q23 -6 12.5 -23.5t-26.5 -17.5q-90 0 -168 41 t-143.5 105.5t-118.5 143t-93 155.5t-67.5 143.5t-40.5 105.5q-59 -49 -111.5 -106.5t-104.5 -124t-106.5 -142t-117.5 -161.5q-29 -39 -47.5 -27z" />
<glyph unicode="Y" horiz-adv-x="1062" d="M47 1124q14 88 70.5 161t134.5 120t167 65q42 9 81 9q45 0 88 -11q6 0 12 -3t10 -7q18 -14 19.5 -25.5t-13.5 -27.5q-10 -12 -12 -25q-18 -39 -51 -106.5t-66.5 -147t-65.5 -164.5t-49 -159q-13 -63 -13 -109v-17q3 -52 38 -67h4q25 0 66 40q45 44 100.5 114t113.5 159 t110.5 177t91.5 165.5t55 127.5q8 20 18.5 37.5t26.5 17.5q18 0 46 -14.5t52.5 -35t41 -40t14.5 -31.5q-4 -90 -19.5 -175t-38 -172t-50.5 -178t-58 -190q-37 -96 -87 -213.5t-118 -229.5t-153 -203t-189 -134q-39 -17 -79 -17h-5q-43 1 -85 13t-78 34.5t-60 47.5 q-57 61 -65 146q-3 20 -3 40q0 63 21 123q28 78 84.5 135.5t126.5 65.5q37 0 49 -7t11 -17.5t-10.5 -24t-15.5 -21.5q-43 -41 -72.5 -116.5t-37.5 -148.5q-3 -24 -3 -46q0 -44 11 -77q14 -43 56 -43q7 0 14 1q35 2 89 55.5t116.5 140.5t128 198.5t123 231.5t99.5 240.5 t58 223.5q-41 -68 -90 -148t-110.5 -149.5t-135.5 -115.5t-162 -48q-63 2 -108 27.5t-78 66.5q-28 36 -28 96q0 18 3 39q11 88 46.5 186.5t81.5 193.5t79 159q-51 -18 -94 -54t-80 -77t-66.5 -80t-50.5 -64q-10 -16 -21 -15t-20.5 13.5t-14.5 34t-1 49.5z" />
<glyph unicode="Z" horiz-adv-x="1314" d="M0 162q-2 17 -2 34q0 70 40 133q50 79 131 139t176 98t173 44q30 2 59 2q67 0 134 -12q33 -6 32.5 -13t-16.5 -15.5t-38.5 -14.5t-35.5 -8q-74 -25 -146.5 -62.5t-142 -85t-131 -101.5t-110.5 -112q-21 -30 -21 -55q0 -33 37 -55q21 -17 61 -17q14 1 32 3 q64 8 148.5 40.5t178.5 85t183 115t165 132t122 135.5q45 66 55 128q2 11 2 22q0 48 -35 85q-41 41 -119 56.5t-164 15.5t-162 -8.5t-110 -12.5q-23 -10 -51.5 -8t-38.5 22q-6 16 2 27.5t18 22.5q16 20 61 53t104.5 70.5t125 78.5t126 80t109.5 73t72 56q23 23 23 38.5 t-37 17.5q-135 -14 -270.5 -52.5t-245.5 -105.5q-27 -23 -44.5 -13.5t-21.5 35t4 60.5t31 65q37 47 103 74t142 38q69 10 138 10h12q74 -1 127 -7q39 -6 82 -25.5t73 -47.5q32 -29 46 -66q6 -17 6 -34q0 -21 -10 -44q-20 -49 -63.5 -92t-94.5 -80t-104.5 -66.5t-96.5 -52.5 q76 -4 147.5 -22.5t127 -54.5t89.5 -90t38 -128v-40.5t-2 -41.5q-4 -18 -8.5 -37.5t-12.5 -35.5q-27 -68 -77 -139.5t-118.5 -141.5t-149.5 -134.5t-168 -113.5t-176 -80.5t-171 -38.5q-14 -1 -29 -1q-35 0 -73 6q-54 10 -103 40.5t-87 85t-50 144.5z" />
<glyph unicode="[" horiz-adv-x="583" d="M2 -119.5q0 21.5 9 42t24 28.5q4 4 9 5t11 5q-4 104 16.5 236.5t53.5 274.5t75 285.5t83 272.5t77 234.5t56 171.5q-4 8 -7 12t-8 8q-10 16 -13 35.5t1 35t18.5 24t36.5 5.5q66 -10 126.5 -10t119.5 -14q35 -4 40 -18.5t-11 -32.5q-20 -23 -38.5 -32t-39 -11t-42 0 t-46.5 2q-51 -172 -102.5 -357.5t-101.5 -376t-98 -378t-93 -361.5q25 -4 59.5 -11t66 -19.5t53 -32t17.5 -45.5q-6 -29 -48 -37t-94 -7t-100.5 6t-68.5 5q-23 0 -32 16.5t-9 38z" />
<glyph unicode="\" horiz-adv-x="778" d="M-157 1472.5q1 12.5 7.5 21.5t19.5 11t36 -10t39 -29.5t30 -35.5q102 -137 207 -309.5t201 -356.5t180 -371.5t146 -355.5q14 -41 25.5 -82t21.5 -84q16 -45 -4.5 -53t-49.5 28q-23 29 -43 56.5t-41 58.5q-92 154 -191 338t-198.5 376.5t-193.5 380t-176 351.5 q-4 10 -7.5 19.5t-7.5 21.5q-2 12 -1 24.5z" />
<glyph unicode="]" horiz-adv-x="610" d="M-154 -141q10 27 41 46t69 31.5t76 19.5t64 11q43 174 88 361.5t90 378t87 376t77 357.5q-25 0 -48 -2t-41.5 0t-33 11t-22.5 32q-18 41 53 51q68 14 128.5 14t129.5 10q25 2 34 -6t7 -23.5t-15.5 -34.5t-31.5 -36q-6 -4 -11.5 -8t-13.5 -12q-12 -66 -29.5 -171.5 t-41 -234.5t-54 -272.5t-68.5 -285.5t-84 -274t-101 -237q4 -4 8 -5t8 -5q10 -8 8 -28.5t-12 -42t-27.5 -38t-40.5 -16.5q-20 0 -70.5 -5t-102.5 -6t-89 7t-31 37z" />
<glyph unicode="^" horiz-adv-x="634" d="M120 1230.5q-3 20.5 11 37.5q31 35 59.5 70.5t59.5 70.5q33 41 80 43t82 -51q29 -41 48 -88t27 -92q6 -16 4 -21.5t-9 -3.5t-16.5 8.5t-19.5 12.5q-23 16 -42 56t-52 79q-41 -41 -74.5 -84t-74.5 -78q-18 -16 -37 -12t-31 18t-15 34.5z" />
<glyph unicode="_" horiz-adv-x="1107" d="M49 -55q0 35 51 41q96 8 197.5 11t203 -2t199 -19.5t185.5 -38.5q43 -10 41.5 -28t-54.5 -18q-162 -18 -319.5 -11t-316.5 7q-31 0 -64 2t-60.5 8.5t-45 17.5t-17.5 30z" />
<glyph unicode="`" horiz-adv-x="587" d="M145 1464q0 18 16.5 28.5t33.5 -3.5q61 -47 112 -100q23 -23 45.5 -48.5t44.5 -52.5q25 -37 23 -45t-16.5 -3t-35 17.5t-34.5 20.5q-20 12 -52 33.5t-63 48t-52.5 54.5t-21.5 50z" />
<glyph unicode="a" d="M-74 199q10 53 28.5 112.5t45.5 116.5q45 94 114.5 168t168.5 94q20 5 42 5q13 0 27 -2q36 -5 62 -23.5t40.5 -46t6.5 -60.5q-4 -12 -9.5 -24.5t-12.5 -20.5t-13 -9t-12 11q-2 6 -5 17.5t-9.5 22.5t-17.5 20.5t-30 9.5q-39 0 -88 -48t-94 -112.5t-78 -129t-41 -97.5 q-12 -53 2.5 -56.5t45 22.5t69.5 71t73.5 89t60.5 77.5t28 35.5q27 20 53.5 18.5t46 -19t26.5 -43t-5 -52.5q-14 -33 -38 -78t-30 -80q-1 -13 -1 -24q0 -34 14 -46q9 -8 23 -7q17 0 44 10q39 16 82 58t85 89t78.5 90t61.5 64q6 6 15.5 13t15.5 3q10 -4 11 -11t1 -15 q-27 -66 -63.5 -129.5t-82.5 -117.5t-102.5 -96t-122.5 -67q-30 -10 -56 -10q-10 0 -18 1q-32 5 -58.5 23.5t-43 47t-22.5 61.5q-18 -14 -41 -31.5t-49.5 -31t-56 -20.5t-62.5 -1q-25 4 -45.5 17.5t-38.5 31.5t-22.5 53t-2.5 56z" />
<glyph unicode="b" horiz-adv-x="780" d="M-133 -223q-2 28 -2 56q0 71 11 143q15 102 41 202.5t57.5 196.5t58.5 186q72 207 151.5 384t169.5 351q37 68 73 133.5t83 118.5q14 18 35.5 26.5t44.5 -1.5q40 -18 40 -63q0 -6 -1 -13q-10 -78 -27.5 -156.5t-48.5 -154.5q-61 -147 -137 -281.5t-174 -255.5 q-12 -12 -24.5 -43t-24 -65.5t-21.5 -68.5t-20 -54q39 29 76.5 49t74.5 41q33 18 76 31.5t83 14.5h5q37 0 67 -16q32 -16 50 -59q0 -12 4 -14t12 -2q70 0 140.5 -11.5t113.5 -41.5q14 -10 12 -14.5t-11 -6.5t-21.5 -2h-14.5q-47 4 -89 11.5t-85 7.5h-45q-10 -63 -36.5 -133 t-69.5 -129q-42 -58 -102 -95q-54 -33 -120 -33h-14h-10q-42 0 -71 14q-32 16 -51.5 42t-30.5 57t-17 57q0 -4 -4 -7t-4 -7q-14 -41 -28.5 -82t-32 -87t-39 -98t-48.5 -116q-4 -10 -8 -12t-10 -6q-10 -8 -21.5 -6t-15.5 12zM98 258q25 0 37 11.5t27 21.5q47 49 105.5 87 t121.5 68q31 12 51 27h-16q-6 -4 -12 -5t-17 -5q-156 -55 -278 -176q-6 -4 -8.5 -12.5t-10.5 -16.5zM197 242q36 -25 75 -25h11q45 4 84 28.5t65.5 65.5t30.5 86q-70 -31 -138.5 -72.5t-127.5 -82.5zM289 786q18 18 45.5 62.5t58.5 101t61.5 122t57.5 127t46.5 115.5 t27.5 87q-88 -147 -158 -303t-139 -312z" />
<glyph unicode="c" horiz-adv-x="585" d="M-58 257q6 83 42 160t95.5 131t131.5 58q23 4 46.5 -13.5t29.5 -39.5q6 -18 2 -41t-11.5 -50.5t-15.5 -60t-14 -67.5q-4 -12 -11.5 -13.5t-13.5 9.5q-23 35 -28 66.5t-11 60.5q-12 0 -31.5 -23.5t-38 -58.5t-30.5 -75t-12 -71q0 -41 12 -61.5t30.5 -24.5t43 2.5 t49.5 18.5q109 51 209 109.5t192 132.5q23 10 28 -1.5t-3 -27.5q-12 -25 -30.5 -45.5t-41.5 -38.5q-47 -43 -78.5 -70.5t-53 -44t-36 -27t-26.5 -18.5q-47 -29 -93.5 -55.5t-87.5 -38.5q-32 -9 -64 -9q-30 0 -60 8q-60 17 -91 73q-30 53 -30 120q0 13 1 26z" />
<glyph unicode="d" horiz-adv-x="937" d="M-57 195q0 76 29.5 153.5t80.5 137.5t121 96q60 30 127 30h23q23 -4 46 -11t40 -26l8 -8q0 4 2 6q0 2 2 2q63 135 125.5 261.5t127 243t135.5 225t151 211.5q40 45 66 45q3 -1 7 -1q28 -6 40 -42q14 -34 16 -84q1 -16 0 -31q0 -29 -3 -49q-31 -127 -83 -254t-117.5 -253 t-141 -251t-153.5 -250q-10 -12 -15.5 -25.5t-9.5 -29.5q-4 -18 -9 -52t-6 -71v-10q0 -32 5 -58q6 -30 23 -39q10 -5 24 -5q20 0 48 10q46 18 99.5 53t107.5 80t93 86q4 4 12.5 -1t13.5 -15.5t4 -24t-15 -25.5q-47 -41 -116 -103.5t-143.5 -115.5t-146.5 -81 q-37 -14 -68 -14q-30 0 -55 13q-47 25 -66 79q-20 55 -22 119v28q0 50 5 98q7 62 14 100q-4 -4 -7.5 -11t-7.5 -14q-29 -33 -65.5 -78.5t-80.5 -84.5q-44 -40 -93 -60q-26 -11 -53 -10q-24 0 -48 8q-29 16 -50 40t-21 63zM96 258l4 -6q70 55 140.5 109.5t146.5 107.5 q-25 11 -51 11q-20 0 -42 -6q-50 -15 -94 -51t-74 -82t-30 -83zM610 440q47 86 111.5 197t126 226.5t109 225t59.5 191.5q-129 -199 -229.5 -407.5t-176.5 -432.5z" />
<glyph unicode="e" horiz-adv-x="544" d="M-55 182q-1 13 -1 26q0 66 18 136q20 84 60.5 154.5t103 115.5t146.5 48q42 -10 66 -43q16 -23 17 -53q0 -13 -3 -27q-8 -45 -23.5 -77t-52.5 -67q-18 -16 -50.5 -42.5t-63.5 -55.5t-53.5 -58.5t-22.5 -50.5q-1 -11 -1 -21q-1 -35 17 -47q22 -16 58.5 -13t73 19.5 t59.5 29.5q27 18 59.5 45.5t65.5 58.5t63.5 59.5t50.5 47.5q16 16 29.5 30.5t32.5 24.5q16 4 25.5 2t-3.5 -31q-16 -35 -39.5 -65.5t-50.5 -61.5q-37 -41 -78.5 -86t-88 -83t-96.5 -65.5t-103 -35.5q-11 -1 -22 -1q-78 0 -132 40q-60 45 -61 147zM139 418q45 33 81 66.5 t52 82.5q-55 -20 -86.5 -53t-46.5 -96z" />
<glyph unicode="f" horiz-adv-x="518" d="M-88 -68q25 172 69 348.5t103 343.5t132 316.5t157 269.5q18 23 40.5 40.5t53.5 13.5q29 0 44 -21.5t5 -48.5v-33q0 -53 -3 -110.5t-19 -112.5q-49 -178 -133.5 -318.5t-184.5 -273.5q0 -4 -2 -10q92 -24 181 -24h19q99 3 204 12q20 0 18 -9.5t-6 -11.5q-94 -51 -188 -65 q-36 -6 -73 -6q-59 0 -122 14q10 -55 17 -127q6 -63 6 -129v-20q-1 -76 -9 -151t-27.5 -137.5t-51 -107.5t-76.5 -59q-9 -1 -17 -1q-26 0 -50 5q-32 6 -50 41q-46 90 -46 182q0 86 9 190zM49 -256q18 -6 33.5 21.5t26 74.5t15.5 105.5t6 112.5v18q0 44 -4 79q-5 42 -15 56 q-23 -117 -45 -231q-18 -95 -18 -198q0 -19 1 -38zM195 463q51 61 98 144t85 172t64.5 177t38.5 164q-37 -47 -81 -139t-85 -192.5t-73.5 -190.5t-46.5 -135z" />
<glyph unicode="g" horiz-adv-x="833" d="M-181 -826q3 56 19.5 111.5t34.5 96.5q51 117 117.5 220t143.5 195t163 175t176 161q8 8 15.5 36t10.5 53.5t-1 41t-21 -1.5q-41 -33 -87 -65.5t-95 -57t-101 -39.5q-36 -10 -72 -10q-15 0 -30 2q-47 8 -73.5 34t-38 59.5t-11.5 73.5t11 77q18 76 63 135t121 82 q53 17 104 17q62 0 121 -25q23 -10 40 -20.5t24 -30.5q5 -12 5 -21q0 -19 -27 -19q-5 0 -11 1q-23 4 -46.5 6t-43.5 2q-63 0 -107.5 -32t-70 -75t-33.5 -86q-4 -21 -4 -37.5t4 -29.5q12 -12 46 7t74 50t83 64.5t73 52.5q12 8 40 20.5t57.5 18.5t54 2t28.5 -29 q4 -37 5.5 -73.5t5.5 -77.5v-21q41 31 85 58.5t85 52.5q47 27 91 52.5t91 41.5l4 -2v-2q-4 -4 -5 -6t-5 -6q-37 -41 -73 -75t-73 -69q-43 -43 -80.5 -74.5t-82.5 -72.5q-33 -33 -46.5 -66t-23.5 -76q-41 -133 -85 -284.5t-105.5 -294t-148.5 -261t-210 -184.5 q-31 -4 -60.5 1.5t-56.5 27.5q-43 37 -57 88q-12 42 -12 88q0 10 1 20zM-72 -790q-3 -19 -3 -38q0 -36 9 -73q41 20 82 71.5t77 113t64.5 119.5t47.5 95q14 29 44 91.5t59.5 131t52 128.5t22.5 85q-63 -70 -128 -140t-121 -144t-103 -155t-78 -171q-18 -59 -25 -114z" />
<glyph unicode="h" horiz-adv-x="921" d="M-64 206q2 64 14.5 126.5t26.5 109.5q33 119 75 245t90 249t100.5 237.5t101.5 212.5q27 51 57.5 90.5t63.5 63.5q18 14 37.5 15t36 -7t28 -23.5t13.5 -31.5q3 -25 4 -51q0 -70 -23 -152q-31 -114 -84 -230t-117.5 -217.5t-121.5 -160.5q-8 -8 -9 -12q-33 -86 -57.5 -168 t-52.5 -164q-4 -23 -9.5 -47.5t-5.5 -48.5q23 31 54 59q63 61 132.5 116.5t149.5 96.5q33 16 65 26q16 5 31 4l33 -5q27 -6 54 -21q29 -20 29.5 -42.5t-7.5 -51.5q-20 -76 -52 -166t-60.5 -171t-48.5 -139q-17 -49 -18 -66q0 -3 1 -5q10 -20 40 -1.5t72 59t92 98t100 116 t97 110.5t80 83q27 27 45.5 22.5t5.5 -42.5q-16 -29 -53 -83.5t-87 -120t-107.5 -133t-113.5 -123t-107.5 -91t-88.5 -35.5t-68.5 14t-53.5 40t-34 60q-8 23 -9 50q0 12 2 24q2 16 6 33.5t10 42.5q23 59 42 118.5t42 119.5q33 86 86 178v4q0 4 -10 4q-78 -59 -151 -115.5 t-132 -128.5q-35 -43 -64.5 -89t-48.5 -93q-16 -20 -39 -8q-50 37 -68 94q-17 53 -17 112q1 5 1 10zM246 754q18 14 52 61t69.5 112.5t71.5 140.5t61.5 144.5t37.5 125.5q5 25 5 44q0 23 -8 37q-23 -49 -63 -140t-83 -191.5t-83 -192.5t-60 -141z" />
<glyph unicode="i" horiz-adv-x="440" d="M-41 82q-1 22 -1 43q0 91 20 187q26 118 61 214q10 29 29 60q18 18 42.5 10t44 -33.5t29.5 -62.5q4 -16 4 -31q0 -21 -8 -43q-10 -35 -18 -66.5t-19 -66.5q-4 -16 -13 -47t-19.5 -65t-18.5 -64.5t-10 -46.5q-4 -31 16.5 -16.5t55.5 48.5q84 86 159.5 167t149.5 163l24 25 h2v-4q1 -12 1 -22q0 -31 -9 -49q-12 -24 -12 -26q-20 -31 -55 -79t-73 -98t-73 -92t-55 -60q-25 -29 -53 -54q-10 -8 -27.5 -14t-36 -9t-36 -1t-27.5 10q-35 23 -54.5 54.5t-19.5 68.5zM121 764q-3 15 -3 30q0 30 11 60q8 27 36 44t50 11q12 -4 26.5 -13t18.5 -22 q5 -18 4 -35q0 -36 -20 -71q-30 -51 -68 -90q-14 -14 -20 0q-27 41 -35 86z" />
<glyph unicode="j" horiz-adv-x="370" d="M-702 -807q12 96 57 196.5t112.5 200t138 186.5t134 154.5t98.5 104.5q35 35 69 70.5t64 70.5q12 16 17.5 66.5t7.5 109.5q1 38 1 75v36q-1 53 -1 78q10 29 36.5 31.5t55.5 -12.5t52.5 -43t27.5 -58q2 -23 1 -36t-5 -25.5t-7 -26t-3 -33.5q16 10 27.5 19.5t23.5 17.5 q45 29 92 61.5t92 59.5q16 8 35.5 14t31 4t10.5 -14t-26 -41q-66 -84 -143.5 -150.5t-151.5 -140.5q-8 -10 -15 -20.5t-7 -24.5q-25 -240 -86.5 -468t-173.5 -437q-35 -68 -80 -127.5t-105 -102.5q-51 -35 -104 -51q-39 -12 -81 -12q-16 0 -32 2q-41 6 -77.5 32.5 t-57.5 59.5q-31 60 -31 130q0 22 3 44zM-592 -850q4 -33 22.5 -46t49.5 -4t67 46q84 76 137.5 172t88 201.5t57 212t47.5 202.5q0 -4 -4 -4q-63 -86 -130 -166.5t-128 -164.5t-112.5 -174.5t-82.5 -192.5q-13 -39 -13 -68q0 -7 1 -14zM31 760q4 29 21.5 51.5t43.5 36.5 q15 6 30 6q17 0 34 -8q30 -17 35 -47q4 -31 -4.5 -54.5t-21.5 -44t-31 -35t-32 -26.5q-8 -8 -17 -7t-13 11q-18 33 -31.5 61.5t-13.5 55.5z" />
<glyph unicode="k" horiz-adv-x="729" d="M-55 53q0 47 2 89t6 65q10 78 34.5 188.5t62.5 235.5t85 256t103.5 253t118 226t126.5 174q20 20 48 15t50.5 -24.5t34 -48t-1.5 -52.5q-20 -43 -45.5 -126t-70.5 -200t-116 -263.5t-179 -312.5q-20 -41 -30.5 -76.5t-16.5 -78.5q10 16 37.5 49t66.5 71.5t84 78.5t88 72 t80 52.5t59 18.5q18 0 31.5 -9.5t21 -20.5t5.5 -20.5t-17 -11.5q-23 -4 -67.5 -36.5t-91.5 -75.5t-86 -84t-48 -58q33 -14 47 -60q13 -47 16 -109q2 -31 1.5 -63.5t-1.5 -66.5q-2 -40 -2 -77q0 -25 1 -47q2 -58 13.5 -95t39.5 -35q12 0 38 26t57.5 65.5t66.5 89t66.5 97.5 t56 89t39.5 66q14 27 24.5 22.5t5.5 -22.5q-8 -39 -22 -74t-33 -66q-14 -27 -39.5 -70.5t-59.5 -92t-72 -95.5t-80 -79q-42 -34 -84 -46q-15 -4 -29 -4q-27 0 -52 15q-39 10 -58 48t-27 90q-7 46 -6 98v13q1 60 5.5 117t7.5 107q1 21 1 38q0 23 -2 37q-39 -20 -73 -77.5 t-59.5 -124t-42 -127t-20.5 -84.5q-2 -10 -2 -18.5t-4 -18.5q-6 -23 -16.5 -28t-20.5 0t-18.5 18.5t-14.5 25.5q-12 33 -17 79t-5 93zM219 604q31 47 65.5 117t71.5 148.5t72 159.5t63.5 153.5t48 130t27.5 88.5q-41 -74 -86 -165t-91 -192.5t-90 -213t-81 -226.5z" />
<glyph unicode="l" horiz-adv-x="534" d="M-66 -98q-5 52 -5 104q0 74 10 148q18 147 59 304.5t99.5 313.5t128 303.5t145.5 274.5q35 55 69.5 105t73.5 93q14 18 35.5 26.5t44.5 -1.5q40 -18 40 -63q0 -6 -1 -13q-14 -121 -50 -235.5t-87.5 -221t-115 -205t-134.5 -186.5q-6 -6 -9.5 -14t-7.5 -17 q-31 -82 -60.5 -180t-51 -191t-30.5 -173q-5 -42 -5 -74q0 -28 4 -49q10 -20 27.5 -21.5t33.5 9.5q61 53 116.5 114.5t106 123t98.5 119.5t93 105q16 16 25.5 7t3.5 -27q-29 -47 -57.5 -91t-59.5 -89q-63 -90 -130 -192.5t-146 -174.5q-49 -45 -107 -51q-53 2 -100 33.5 t-56 85.5zM293 786q18 18 46 62.5t58.5 101t61 122t57.5 127t47.5 115.5t26.5 87q-88 -147 -158 -303t-139 -312z" />
<glyph unicode="m" horiz-adv-x="1136" d="M-45 100q-2 18 -2 38.5t2 42.5q4 44 8 57q8 35 21.5 79.5t28 91t27.5 90.5t26 79q8 25 28.5 29.5t40 -6.5t30.5 -37q6 -15 6 -36q0 -15 -3 -32q-8 -41 -18.5 -82t-18.5 -80q59 66 117.5 136.5t113.5 139.5q27 18 55.5 8t43.5 -45q14 -33 14 -67v-8q-2 -38 -10 -74 q59 61 139 120.5t156 90.5q22 8 41 8q15 0 27 -4q30 -10 52 -38q22 -27 34 -67q10 -34 10 -70v-13q-25 -51 -47.5 -99.5t-41 -95.5t-29.5 -94q-9 -40 -9 -81v-15q14 -10 48 12t77 59t89 78t81 70q86 69 106 69q3 0 4 -1.5t1 -4.5q0 -19 -58 -88q-66 -78 -138.5 -153.5 t-154.5 -131.5q-28 -18 -62 -19h-4q-32 0 -64 12q-34 14 -58.5 41.5t-28.5 68.5q-2 17 -2 34q0 38 9 78q13 60 35.5 118.5t51.5 113.5t53 102q-6 16 -46 -11.5t-97 -76.5t-120.5 -110.5t-117.5 -112.5q-23 -20 -34 -25.5t-19 -5.5q-20 0 -26 34q-6 29 -6 66v12q1 44 7.5 86 t10.5 58q-86 -96 -161 -194.5t-146 -196.5q-16 -14 -28.5 -12t-22 12t-14.5 25.5t-7 27.5z" />
<glyph unicode="n" horiz-adv-x="700" d="M-51 119q-1 22 -1 44.5t1 45.5q6 51 24.5 111.5t44 120t53 111.5t52.5 85q12 18 33.5 20t42 -10t33 -34.5t6.5 -51.5q-2 -2 -8.5 -12t-12.5 -22.5t-12 -23.5t-8 -14q23 16 45 37t45.5 39.5t48 31.5t53.5 13q35 0 61.5 -19.5t44 -47t21.5 -59t-4 -60.5q-18 -55 -51 -107.5 t-67 -103.5t-62.5 -103.5t-40.5 -107.5q-12 -43 -1 -53t29.5 -4t38 20.5t27.5 20.5q84 66 157.5 144.5t145.5 150.5q61 61 76.5 66t4.5 -20.5t-36.5 -68.5t-46.5 -76q-25 -41 -68 -99t-95 -112.5t-107.5 -92.5t-102.5 -38q-35 0 -61.5 15.5t-45 38t-27.5 51t-9 57.5 q0 102 42 200.5t89 180.5q23 43 13 59q-4 7 -16 7q-15 0 -44 -13q-41 -18 -76 -66t-64.5 -104.5t-54.5 -111.5t-45 -88q-8 -16 -12 -21q-33 -23 -45 12q-4 16 -6 30.5t-2 31.5z" />
<glyph unicode="o" horiz-adv-x="608" d="M-54 183q-1 17 -1 33q0 34 4 66q6 48 14 78q2 14 6 19.5t8.5 7.5t9.5 4t9 8q6 23 12 47.5t19 45.5q35 61 89 113t126 61q18 3 34 4q26 0 48 -8q38 -12 67 -48q25 -27 35 -58.5t12 -61t-2 -54.5t-6 -37q25 2 53.5 12.5t53.5 16.5q29 8 60.5 19.5t59.5 17.5 q20 0 16.5 -11.5t-19 -26.5t-35 -29.5t-29.5 -20.5q-49 -23 -97.5 -35t-91.5 -35q-18 -33 -51 -87t-72.5 -105t-83.5 -88t-85 -37q-57 0 -99 33q-31 20 -46 63t-18 93zM107 173q3 -32 8.5 -60.5t15.5 -44.5q20 4 46 29.5t49.5 58t41 66.5t23.5 57q-41 -5 -88 -5h-5 q-44 0 -83 9q-6 -18 -8.5 -48t0.5 -62zM119 442q0 -10 4 -14q20 -18 18 -41q0 -10 23.5 -12t53.5 -1t57.5 5t37.5 4q4 0 8.5 4t4.5 8q15 37 15 80v6q-1 47 -30 76q-14 16 -36.5 18.5t-43.5 -8.5q-41 -25 -65.5 -57.5t-46.5 -67.5z" />
<glyph unicode="p" horiz-adv-x="854" d="M-319 -672q-3 22 -3 43q0 34 7 66q18 98 50 206.5t69.5 220t80.5 225.5t86 222q51 123 96.5 227.5t90.5 204.5q16 25 42.5 20t49 -27.5t35 -55.5t4.5 -62q-25 -66 -54.5 -121t-52.5 -114q72 70 143.5 133.5t163.5 85.5q15 2 29 2q22 0 38 -6q26 -10 41 -30.5t22.5 -49.5 t11.5 -57q2 4 7 3t9 3q66 18 133.5 26.5t132.5 8.5q33 4 47.5 -10.5t-18.5 -24.5q-37 -10 -78 -19.5t-82 -20.5t-78.5 -23.5t-66.5 -30.5q-27 -16 -47 -62q-25 -59 -72 -115.5t-105.5 -99.5t-122.5 -66q-45 -15 -88 -15q-19 0 -38 3q-37 10 -49.5 44t-16.5 69q0 37 31 37 q10 6 16.5 9t12.5 13q20 37 53 68q66 55 138.5 94t144.5 66q29 8 32.5 14t8.5 35q-4 41 -36 55q-9 5 -22 5q-29 0 -76 -25q-31 -18 -66.5 -47t-71.5 -61t-68.5 -63.5t-59.5 -56.5q-59 -133 -107 -256.5t-91 -243.5t-85 -240t-92 -247q-2 -6 -5 -16t-11 -21 q-12 -16 -19.5 -16t-11.5 6q-25 33 -32 88zM197 174q20 -10 59 0t80 32.5t77 53.5t54 62q-72 -29 -138 -65t-132 -83z" />
<glyph unicode="q" horiz-adv-x="737" d="M-164 -907q-1 17 -1 35q0 84 23 181q29 118 76.5 235.5t102.5 225t100 187.5l19.5 39t29 56.5t28.5 57t22 40.5q-29 -6 -61 -12.5t-61.5 -4.5t-56 14.5t-45.5 40.5q-25 44 -25 99q0 21 3 43q14 82 61 154.5t122 120.5q72 46 154 46h7q51 -2 89 -21.5t55.5 -41t14 -37.5 t-33.5 -10q-24 4 -47 4q-52 0 -100 -21q-70 -32 -119.5 -84.5t-74.5 -109.5q-16 -39 -16 -67q0 -14 4 -25q6 -10 19.5 -8.5t28.5 6.5q37 14 70.5 40.5t63 58.5t55.5 65.5t46 62.5q8 14 26.5 31.5t39 26.5t38 4t23.5 -36q1 -15 1 -30q0 -30 -5 -60q-8 -45 -35 -92 q-20 -31 -43.5 -69.5t-47.5 -80.5t-43 -83t-30 -74q102 43 228.5 150.5t244.5 244.5q14 18 18.5 6t1.5 -33.5t-11.5 -44t-14.5 -26.5q-96 -143 -227 -245.5t-274 -147.5q-8 -141 -33 -300t-65 -294t-94 -226.5t-122 -97.5h-13q-46 0 -77 24q-35 29 -39 83zM-12 -930 q35 8 67.5 64.5t61 136.5t51 172t39 173t23.5 140q6 46 6 63v7q0 8 -5 4q-16 -31 -40.5 -97.5t-52 -149.5t-55.5 -171t-50.5 -162.5t-34.5 -124t-10 -55.5z" />
<glyph unicode="r" horiz-adv-x="718" d="M-66 11.5q-6 23.5 5 49.5q14 49 27.5 110.5t25.5 129.5t25.5 135.5t27.5 128.5q4 16 19.5 25.5t34 10.5t32.5 -7t19 -25q3 -15 3 -33q-1 -29 -9 -65q-14 -57 -29 -113q37 45 81 105.5t96 112.5t110 86q50 28 103 29q9 0 19 -1q33 -10 52.5 -33.5t29.5 -53.5t11 -58.5 t-5 -48.5q-14 -29 -34 -63q-19 -35 -30 -69q-9 -29 -10 -58q0 -5 1 -10q2 -34 32 -60q12 -16 -2 -24.5t-38.5 -9.5t-49 5t-35.5 18q-33 45 -40 91q-3 18 -3 37q1 29 7 57q10 48 32.5 92.5t51.5 85.5q-78 -35 -143.5 -103.5t-124 -152.5t-114 -174t-110.5 -168 q-16 -18 -39 -10t-29 31.5z" />
<glyph unicode="s" horiz-adv-x="561" d="M-137 -186q-2 16 -2 33q0 44 12 87q12 37 31 68q45 78 99.5 132.5t113.5 103.5q-41 57 -81 116.5t-40 130.5q0 80 46 151t105 114q25 16 50.5 26t54.5 -2q12 -6 25.5 -9t23.5 -7t22.5 -12.5t12.5 -22.5q0 -57 3 -93t9 -61.5t12.5 -45t12.5 -42.5q4 -20 -2 -34.5t-31 -4.5 q-45 16 -66.5 65.5t-31.5 90.5q-2 8 -10.5 28.5t-10.5 28.5q-16 4 -38.5 -11t-40.5 -42q-17 -28 -22 -62q-1 -8 -1 -15q0 -27 14 -54q8 -12 23.5 -29.5t31 -36t30.5 -36t26 -27.5q12 -12 16 -13t21 5q20 10 62 26.5t88 33t88 27.5t65 11q14 0 20 -10q6 -6 -2 -16.5 t-21.5 -20.5t-27.5 -18.5t-18 -10.5q-35 -20 -88.5 -45.5t-92.5 -50.5q-4 -4 -15 -8t-17 -8q25 -55 35 -95q7 -30 7 -58v-19q-4 -37 -16 -75t-33 -87q-29 -47 -58.5 -90t-66 -78t-79.5 -55.5t-95 -20.5q-29 0 -55.5 7.5t-44.5 29.5q-47 51 -53 111zM-14 -190q41 18 84 60 t75.5 92t45.5 99q5 21 5 39q0 25 -10 45q-23 -23 -61.5 -64.5t-72.5 -90.5q-34 -50 -56 -98q-14 -32 -14 -57q0 -13 4 -25z" />
<glyph unicode="t" horiz-adv-x="557" d="M-204 1065q1 18 20.5 31.5t56.5 13.5q23 0 74 -4t107 -6q38 -1 72 -1h33q48 1 62 7q6 2 6 6q12 37 26.5 78t29 80t28 73.5t23.5 59.5q8 18 33.5 15t53.5 -17.5t48 -36t18 -39.5q-6 -53 -28.5 -104.5t-38.5 -116.5q129 2 222 3t181 1q29 0 57.5 -1t44 -5t7.5 -11.5 t-53 -19.5q-129 -41 -250 -62.5t-238 -31.5q-10 -2 -9 -4t-5 -12q0 -2 -2 -4.5t-2 -4.5q-33 -90 -72 -202.5t-78 -231.5t-73.5 -233.5t-59 -207.5t-36.5 -156q-6 -34 -5 -53q0 -17 4 -24q9 -28 31 -28q8 0 19 4q38 14 88.5 61t105.5 114.5t105.5 133.5t87 119t49.5 69 q10 16 23 30.5t34 31.5q8 6 19.5 13t19.5 6t7 -13t-15 -41q-12 -25 -39 -75t-66 -112.5t-86 -129t-101 -124t-110.5 -100.5t-113.5 -55q-51 -12 -95 -13h-2q-42 0 -73 32q-31 31 -35 88q-1 18 -1 36q0 41 6 85q9 64 25.5 125t26.5 94q33 106 62.5 209.5t58.5 207.5 q31 92 56.5 189.5t52.5 175.5q-41 2 -84 3l-86 2t-85 5t-79 14q-33 8 -48.5 27t-14.5 37z" />
<glyph unicode="u" horiz-adv-x="815" d="M-31 274q4 14 7.5 28.5t9.5 27.5q12 35 29.5 80t36 90t35.5 85t30 64q14 37 42.5 37t52.5 -22.5t36 -59.5q5 -15 5 -29q0 -22 -11 -43q-10 -25 -31 -69.5t-42.5 -92.5t-37.5 -91t-18 -64q0 -45 17 -47t47 22.5t66 68.5t72.5 93t68.5 95.5t54 74.5q29 51 48.5 91t58.5 79 q20 8 49 -3t51.5 -33.5t31.5 -50t-5 -48.5q-37 -47 -67 -80t-56 -84q-14 -33 -32.5 -72.5t-34 -81.5t-24.5 -82q-6 -28 -6 -51q0 -10 1 -20q0 -35 34 -29q49 8 108.5 52.5t117 100.5t106.5 110t78 81h2v-16q-20 -74 -63 -133q-16 -20 -40 -58t-42 -61q-43 -47 -81 -83 t-91 -64q-25 -12 -54.5 -21.5t-59.5 -9.5t-56.5 10t-44.5 37q-33 42 -36 98v13q0 50 19 102l-12 -12l-18.5 -18.5l-19.5 -19.5t-13 -11q-31 -31 -61.5 -53.5t-63.5 -39.5q-27 -12 -46.5 -14t-36 7t-31.5 27.5t-34 43.5q-27 37 -40 73q-8 22 -8 46q0 14 3 30z" />
<glyph unicode="v" d="M-10 291v94q0 31 2 58.5t6 58.5q0 23 2 45t6 47q0 10 5 15t14 1q59 -10 87.5 -53t28.5 -96q0 -31 -4 -70t-7 -80t-3 -76.5t8 -60.5q0 -4 2 -4h2q18 -14 37 7.5t38 65.5t37.5 104.5t40 120.5t45 116.5t52.5 93.5q10 18 33.5 30.5t42.5 4.5q16 -4 26.5 -20.5t6.5 -35.5 v-25.5t4 -29.5q12 -47 47 -71.5t79 -34.5q33 -8 67 -8h23q46 4 83 14q6 0 15 2t16.5 1t9.5 -5t-8 -15q-40 -41 -88 -58q-41 -14 -82 -14h-15q-49 3 -96 25.5t-84 59.5q-18 -39 -49 -107.5t-69 -140.5t-81 -130.5t-88 -74.5q-25 -8 -46 -8q-25 -1 -46 11q-37 22 -59.5 63 t-31.5 92t-9 88z" />
<glyph unicode="w" horiz-adv-x="974" d="M-26 207q6 65 21 137t31.5 135.5t24.5 93.5q0 18 21.5 16.5t45.5 -17.5q24 -14 42 -42q13 -20 14 -46q0 -8 -2 -17q-10 -49 -19.5 -90t-20.5 -79t-24.5 -79t-29.5 -90q6 -12 32.5 23.5t57.5 88t59.5 107.5t42.5 80q14 18 16.5 38.5t12.5 41.5q12 18 30.5 16t37 -13 t32 -24.5t15.5 -17.5q8 -17 8 -43q0 -13 -2 -28q-6 -46 -14.5 -98t-13.5 -102q-1 -12 -1 -23q0 -34 12 -56q6 -4 16.5 -5t20.5 15q27 47 56.5 123t54 159t41 161.5t16.5 132.5q0 27 19.5 32.5t42 -5.5t42 -33.5t19.5 -53.5q0 -59 27.5 -98t70.5 -60.5t93 -26.5q19 -2 39 -2 q30 0 57 5q12 2 14 -1t-1 -9.5t-5 -8.5l-8 -8q-37 -25 -78 -34q-26 -6 -53 -6l-29 2q-41 5 -80 21.5t-69 43.5q-18 -59 -42 -129t-54.5 -131.5t-71.5 -108.5t-95 -61q-12 -6 -30.5 -2t-38 15t-35.5 25.5t-27 28.5q-16 23 -21 52.5t-5 61.5t4 61.5t4 52.5q-12 -18 -39 -66.5 t-58.5 -98.5t-64.5 -88q-31 -36 -51 -36h-2q-35 4 -62.5 23.5t-39.5 48.5q-8 21 -8 56q0 18 2 40z" />
<glyph unicode="x" horiz-adv-x="612" d="M-101 -90q1 12 5 24q29 82 69.5 142.5t94.5 130.5q-35 84 -57.5 137t-33.5 111q-1 10 -1 21q0 47 22 95q8 16 21.5 38t26.5 38.5t23.5 24.5t12.5 -2q12 -49 26.5 -101.5t29 -96.5t25.5 -79t17 -51q25 29 44.5 52.5t38 43t39 34.5t46.5 32q16 8 30.5 4t23 -14.5 t11.5 -21.5t-3 -15q-16 -14 -40 -36t-49.5 -48.5t-52 -55t-47.5 -55.5q8 -23 21.5 -52.5t31 -57t38 -49t42.5 -25.5q8 -2 16 -2q29 0 60 22q39 28 77 72.5t71.5 94.5t60.5 87q16 16 24.5 13t11.5 -16t1 -29.5t-6 -26.5q-29 -51 -64 -99.5t-73.5 -87t-79.5 -66.5t-80 -38 q-40 -10 -74 -10q-45 0 -79 19q-58 32 -101 112q-53 -47 -96 -104.5t-91 -114.5q-12 -16 -20 -17.5t-11 5t-2 18.5z" />
<glyph unicode="y" horiz-adv-x="735" d="M-338 -850q27 127 86 247t142 235.5t183.5 231.5t211.5 234q14 10 26.5 48t20.5 81t11 81t-1 46q-20 -37 -45 -87t-51.5 -96t-53 -80t-51.5 -36q-15 -3 -29 -3q-37 0 -70 20q-46 26 -56 80q-8 45 -8 102q-1 4 -1 8q0 53 7 108q6 58 17 113.5t24 98.5q10 18 31.5 18t45 -9 t41 -23.5t21.5 -28.5q2 -7 2 -16q0 -26 -14 -69q-17 -59 -37.5 -122.5t-32.5 -117.5q-5 -23 -5 -39q0 -21 9 -30q14 -14 37.5 7.5t50.5 63.5t55.5 98.5t56 111.5t50 102t37.5 72q4 8 19.5 7t31.5 -9t30.5 -21.5t18.5 -29.5q13 -54 13 -114q0 -20 -1 -41q-6 -83 -22 -156 q76 59 148.5 106t156.5 84q8 6 31.5 9t40 1t17.5 -13t-38 -36q-94 -59 -190.5 -135t-179.5 -143q-14 -10 -19 -33q-16 -115 -57 -254t-99.5 -280.5t-131 -269.5t-152.5 -220q-51 -59 -108 -83q-38 -16 -72 -16q-18 0 -34 5q-48 12 -80 60t-34 132zM-256 -848q-3 -20 -3 -35 q0 -34 17 -51q3 -1 6 -1q23 0 60 45q43 52 96 139t108.5 194.5t101.5 209t77 183.5t33 117q-53 -57 -117 -138t-125 -170t-115.5 -181.5t-90.5 -172t-48 -139.5z" />
<glyph unicode="z" horiz-adv-x="741" d="M-178 -768q29 100 83 227t124.5 254t152.5 237.5t166 178.5q-41 29 -86 30h-8q-41 0 -84 -9q-6 -2 -20 -3q-18 0 -31 11.5t-18 27t-1 31.5t19 27q27 35 58.5 78t64 87t60.5 88t46 83q-15 4 -29 4l-65 -21q-47 -31 -88 -81t-70.5 -106.5t-44.5 -92.5q-12 -33 -32.5 -25 t-30.5 27q-13 22 -13 49q0 6 1 14q4 36 17 73.5t32.5 70t35.5 55.5q47 63 109.5 93t138.5 40q31 4 54.5 -6t40 -31.5t25.5 -51.5t11 -63q-4 -66 -33.5 -130t-82.5 -124q35 -2 70.5 -13t64.5 -42q61 47 139 94t143 74q12 6 36 4t42.5 -8t24.5 -15.5t-17 -17.5 q-27 -10 -69.5 -31.5t-87.5 -49t-87 -57.5t-65 -58q38 -68 56 -128q12 -42 12 -90q0 -22 -2 -45q-12 -119 -66.5 -256t-137.5 -263t-185.5 -227t-206.5 -146q-20 -8 -44 -7.5t-46.5 10t-41 25t-30.5 35.5q-22 47 -22 80q0 34 18 90zM-102 -797q-6 -16 5 -22t36 2 q39 12 92 64.5t110.5 130t111.5 171t91 187.5t53 182q7 39 7 72q0 43 -11 78q-78 -90 -150.5 -199t-137 -223.5t-118 -228t-89.5 -214.5z" />
<glyph unicode="{" horiz-adv-x="530" d="M-2 698.5q-2 24.5 12 36.5q16 14 40 10t46 -4q72 0 114 41t66.5 101.5t40 130t31.5 127.5q20 74 53 128t74 82.5t88 25.5t101 -42q14 -8 14 -22.5t-14 -18.5q-14 -8 -28.5 -14t-29.5 -14q-57 -23 -83.5 -75t-43.5 -110q-18 -66 -36.5 -132t-44 -125.5t-61.5 -110.5 t-87 -86q39 -39 54 -85t16.5 -95.5t-9 -101.5t-20.5 -103q-18 -66 -32.5 -127.5t-14.5 -113.5t17.5 -96t60.5 -75q25 -20 -5 -45q-53 -39 -111.5 -18.5t-78.5 86.5q-25 74 -23 145.5t17 140.5q8 41 21.5 87t24.5 93.5t18.5 92.5t0.5 82q-6 41 -43 63.5t-65 26.5 q-18 4 -35.5 23.5t-30 43t-14.5 48z" />
<glyph unicode="|" horiz-adv-x="647" d="M150 -86q14 180 41.5 387t59.5 421t64.5 422t61.5 390q4 10 6 19.5t6 21.5q6 10 14.5 20.5t18.5 13.5t21.5 -3.5t23.5 -28.5q10 -23 13 -47.5t5 -46.5q4 -170 -11 -371t-45 -407.5t-71 -407.5t-88 -373q-12 -41 -27.5 -81t-31.5 -81q-14 -47 -34.5 -41.5t-24.5 52.5 q0 35 -1 70.5t-1 70.5z" />
<glyph unicode="}" horiz-adv-x="692" d="M-86 -215q-16 23 14 45q55 31 91 75t58.5 96t35 113.5t22.5 127.5q10 51 23.5 103t35 101.5t57.5 95.5t91 85q-37 35 -51.5 86t-14.5 110.5t10.5 126t20.5 131.5q8 57 3 109.5t-52 75.5q-10 8 -21.5 14t-21.5 14q-12 4 -6 18.5t22 22.5q70 39 118 42t78 -25.5t38 -83 t-2 -127.5q-6 -57 -21.5 -127t-16.5 -130.5t23.5 -101.5t96.5 -41q23 0 47 4.5t35 -10.5q8 -12 -3.5 -36.5t-34 -48t-49 -43t-44.5 -23.5q-31 -4 -78 -26.5t-70 -63.5q-23 -37 -35 -82t-20 -92.5t-15.5 -93.5t-15.5 -87q-16 -70 -45 -141.5t-86 -144.5q-25 -33 -54.5 -54.5 t-60 -31t-57.5 -5t-45 22.5z" />
<glyph unicode="~" horiz-adv-x="735" d="M30 305q11 27 34.5 54.5t50 49t39.5 29.5q33 20 66.5 20.5t66.5 -22.5q31 -25 52 -49.5t41.5 -41.5t45.5 -20t59 19q27 16 53.5 32.5t51.5 33.5q20 12 26 0.5t2 -29.5q-41 -131 -167 -156q-39 -8 -67 4.5t-50.5 34t-41 46t-36.5 42t-37.5 20.5t-46.5 -18 q-29 -20 -53.5 -42.5t-48.5 -45.5q-12 -12 -31 -4q-20 16 -9 43z" />
<glyph unicode="&#xa1;" horiz-adv-x="673" d="M288 -34q8 31 26.5 89t44.5 131.5t55.5 156.5t60.5 164t60.5 154t51.5 124q8 18 22.5 14t20.5 -20q12 -70 10.5 -133.5t-12.5 -126.5q-10 -57 -33.5 -147.5t-55 -182.5t-69.5 -170t-75 -109q-14 -14 -35.5 -14t-39 8t-28 24.5t-4.5 37.5zM579 993q-4 40 15.5 76.5 t62.5 40.5q31 4 52.5 -21.5t26.5 -59t-7.5 -67.5t-48.5 -48q-45 -14 -71 12.5t-30 66.5z" />
<glyph unicode="&#xa2;" horiz-adv-x="585" d="M4 397q6 55 27.5 102.5t56.5 88.5t77 72.5t81 54.5q10 4 11 16t3 23q2 12 6 33.5t10.5 42t14.5 36t20 17.5q23 -2 31 -21.5t8 -36.5q4 -16 3 -33.5t-1 -33.5q23 0 49.5 -1t49 -8.5t38 -22.5t15.5 -46q0 -25 -14.5 -46.5t-36.5 -10.5q-10 2 -32 4t-43.5 -1t-38.5 -10.5 t-20 -21.5q-6 -25 -15 -56.5t-18.5 -63.5t-17.5 -62.5t-10 -51.5q14 -6 40 2.5t50.5 20.5t45 23.5t26.5 13.5q10 4 15 -2t3 -15q-10 -31 -31.5 -61.5t-51 -55t-63.5 -40t-65 -15.5q-18 -4 -24 -20q-6 -14 -10.5 -26.5t-10.5 -28.5q-20 -41 -34.5 -38t-14.5 44q0 16 3 32.5 t5 32.5q-33 0 -58.5 15.5t-44 40t-27.5 55.5t-7 59zM136 407.5q-1 -34.5 24 -45.5q4 16 13 49t20.5 70t20.5 70t13 49q-18 -10 -39.5 -45t-36 -74t-15.5 -73.5z" />
<glyph unicode="&#xa3;" horiz-adv-x="761" d="M4 509q0 17 8 32.5t21 19.5h13h22.5h21.5h12q18 68 35 130.5t38.5 119.5t51 109.5t70.5 99.5q23 23 44 41t48 31q47 25 105.5 19.5t106.5 -36.5t76 -87t15 -136q-2 -12 -12 -16.5t-22.5 -1t-24.5 11.5t-19 18q-8 10 -11 20.5t-7 20.5q-14 31 -37.5 46.5t-50.5 15.5 t-54.5 -14.5t-50.5 -39.5q-53 -63 -90 -157t-53 -181q8 0 40 -3t69 -7t73.5 -11t57 -15.5t17.5 -18.5t-44 -22q-59 -16 -118.5 -25.5t-116.5 -26.5q-12 -63 -16.5 -125.5t-8.5 -127.5q29 12 80 17t110.5 0t120 -19.5t109.5 -39t76.5 -59.5t23.5 -82q0 -6 -8 -10t-20 0 q-49 12 -111 24.5t-128.5 18.5t-135 1t-131.5 -28q-12 -4 -23.5 -11t-23.5 -13q-18 -6 -35 -1t-29 17t-16 29.5t2 34.5q4 10 4 19t-2 20q-12 43 -13.5 85t3 85t10.5 83.5t8 81.5q-12 4 -26.5 4.5t-26.5 4.5q-14 6 -20.5 21.5t-6.5 32.5z" />
<glyph unicode="&#xa4;" horiz-adv-x="641" d="M53 762q2 29 23.5 35t38.5 -15q29 -29 47 -54.5t39 -47.5q20 8 38.5 15t34.5 14q0 20 2 24q14 14 36 20.5t45.5 5.5t44 -6t36.5 -14q6 0 8 -4q2 0 5 -2q8 12 13 25.5t15 23.5q6 10 17 17q18 12 35.5 4t21.5 -31q4 -25 0 -49.5t-21 -44.5q-16 -18 -6 -41 q23 -53 13.5 -101.5t-37.5 -95.5l-31 -43q29 -18 43 -45.5t25 -58.5q6 -29 -17 -45q-10 -6 -22.5 -5t-22.5 15q-14 20 -29.5 39.5t-31.5 42.5q-47 -39 -100.5 -58.5t-116.5 -7.5q-12 -20 -23.5 -39.5t-21.5 -37.5q-8 -16 -13 -23q-25 -31 -53 -10q-25 14 -16 47q20 51 55 88 l6 3t8 5q-37 31 -48 73t-6 86t23.5 85t41.5 70q-20 25 -45 55.5t-46 64.5q-4 4 -5 10.5t-3 10.5zM223 467q-6 -33 8 -51q8 -10 18.5 -7t20.5 7q45 16 75 48t54 73q18 37 -10 69l-33 33q-8 -4 -13 -10t-13 -11q-86 -53 -107 -151z" />
<glyph unicode="&#xa5;" horiz-adv-x="671" d="M18 1055q4 8 16.5 20t28 17.5t31 1.5t27.5 -25q66 -123 133.5 -225.5t126.5 -173.5q53 78 90 165t82 169q10 20 27.5 25t34 -1t27.5 -20.5t9 -34.5q-2 -31 -14 -68t-28.5 -73.5t-34 -71.5t-29.5 -62q-20 -47 -44 -90t-46 -90q0 -2 -1 -4t-1 -6q27 -10 52 -20.5t52 -20.5 q16 -6 21.5 -18.5t-17.5 -12.5q-29 0 -57.5 -2t-57.5 -2q-23 0 -24.5 -3t-7.5 -21q-4 -8 -4 -11q41 -6 79.5 -11t75.5 -21q27 -8 18.5 -18.5t-22.5 -14.5q-49 -6 -96 -15.5t-94 -17.5q-23 -72 -43.5 -144.5t-61.5 -127.5q-20 -27 -37 2q-10 20 -14 55t-3 73t5 76.5t10 67.5 q-18 0 -33.5 -2t-29.5 6q-10 4 -15.5 16.5t-4.5 25.5t10.5 23.5t31.5 10.5h21.5t26 1t21.5 4t11 9q4 10 8.5 21.5t10.5 27.5q-25 -4 -46.5 -4t-41.5 -2q-29 -4 -37 15q-8 23 -1 41t23 22q25 8 57.5 7t57.5 -1q16 0 19 2t8 17q8 20 16 43q-14 12 -47 42.5t-73 70.5t-81 87 t-72.5 95.5t-46 93.5t-2.5 82z" />
<glyph unicode="&#xa8;" horiz-adv-x="804" d="M190 1311q2 39 30 67.5t67 28.5q31 0 51 -22.5t18 -51.5q-4 -41 -22 -67.5t-55 -24.5q-88 6 -89 70zM436 1311q2 39 30 67.5t66 28.5q31 0 51.5 -22.5t18.5 -51.5q-4 -41 -22.5 -67.5t-55.5 -24.5q-88 6 -88 70z" />
<glyph unicode="&#xad;" horiz-adv-x="849" d="M88 309q0 33 35 39q131 16 272.5 8t261.5 -55q29 -10 28 -26.5t-36 -16.5q-111 -16 -217 -10t-217 6q-20 0 -42.5 2t-41 7t-31 16.5t-12.5 29.5z" />
<glyph unicode="&#xb4;" horiz-adv-x="638" d="M188 1243q-2 8 23 45q23 27 45.5 52.5t44.5 48.5q51 53 113 100q16 14 32.5 4t16.5 -29q0 -23 -21.5 -50.5t-52.5 -54t-63 -48t-52 -33.5q-14 -8 -34.5 -20.5t-35 -17.5t-16.5 3z" />
<glyph unicode="&#xb8;" horiz-adv-x="612" d="M134 -245q-5 9 1 14.5t19.5 7.5t29.5 2q59 6 116.5 27.5t80.5 76.5q-35 2 -64.5 3t-58.5 -3q-23 0 -36 16.5t-9 37.5q6 23 12 47t15 49q2 10 7 18t11 15q10 10 18.5 8t8.5 -15q4 -14 3 -27.5t-1 -27.5q0 -10 -1 -22.5t-1 -26.5h57.5t60 -7t45 -24.5t15.5 -52.5 q-4 -41 -25.5 -74t-54.5 -57q-106 -84 -219 -8q-25 14 -30 23z" />
<glyph unicode="&#xbf;" horiz-adv-x="978" d="M267 42q-5 38 5.5 77t36.5 72q35 41 82 76.5t99.5 68.5t106.5 66.5t103 72.5q100 78 170 170t89 176q4 18 19 14.5t21 -22.5q14 -39 21 -92q10 -59 -9.5 -115.5t-58.5 -106.5t-91 -96.5t-106.5 -86t-106.5 -71.5l-91 -56q-16 -10 -50 -30t-67.5 -42.5t-59.5 -44 t-26 -33.5q-2 -20 21 -32.5t41 -16.5q63 -10 130.5 -5t131 24.5t119 53t92.5 83.5q18 35 31.5 34.5t18.5 -22t0 -58t-24.5 -77.5t-55.5 -80t-89 -64q-125 -47 -239.5 -43t-200.5 80q-25 23 -41.5 55.5t-21.5 70.5zM897 1026q12 43 38 66.5t52.5 25.5t49 -19.5t28.5 -68.5 q6 -59 -22.5 -83.5t-64.5 -21.5t-62.5 30.5t-18.5 70.5z" />
<glyph unicode="&#xc0;" horiz-adv-x="1447" d="M-43 63q-10 10 1 25.5t28 28.5q123 88 237.5 187t225.5 200q4 4 8 7t14 11q-90 12 -173 34t-169 38q-29 10 -57.5 18.5t-55.5 22.5q-14 16 1.5 19t25.5 3q31 4 58.5 7.5t58.5 7.5q131 2 240.5 8t217.5 6q10 0 17.5 4t15.5 8q92 86 171 176.5t152 184.5t140.5 191.5 t136.5 195.5q33 47 90 33q16 -6 30.5 -25.5t14.5 -42.5q-16 -184 -60 -355t-79 -343q0 -4 -1 -9.5t-1 -7.5q47 -6 92 -20t58 -64q8 -33 -25 -55q-37 -18 -75 -24.5t-78 -12.5q-2 0 -6.5 -4t-4.5 -8q-47 -156 -75.5 -325t-63.5 -328q-4 -10 -10 -20.5t-17 -10.5q-14 0 -20 8 t-10 18q-39 180 -39 361q4 74 12 145.5t25 141.5v6q-10 4 -53.5 5t-94.5 0t-97 -2t-65 -1q-12 0 -47 -21q-84 -57 -156.5 -125.5t-146.5 -132t-155.5 -114t-182.5 -70.5q-29 -4 -53 20zM850 686h2q35 0 92 3t92 3q2 0 4 2l4 4q23 66 35.5 130.5t28.5 127.5 q-25 -29 -59.5 -63.5l-71.5 -71.5t-71 -72.5t-56 -62.5zM1175 1833q0 18 16.5 28.5t33.5 -3.5q61 -47 112 -100q23 -23 45.5 -48.5t44.5 -52.5q25 -37 23 -45t-16.5 -3t-35 17.5t-34.5 20.5q-20 12 -52 33.5t-63 48t-52.5 54.5t-21.5 50z" />
<glyph unicode="&#xc1;" horiz-adv-x="1447" d="M-43 63q-10 10 1 25.5t28 28.5q123 88 237.5 187t225.5 200q4 4 8 7t14 11q-90 12 -173 34t-169 38q-29 10 -57.5 18.5t-55.5 22.5q-14 16 1.5 19t25.5 3q31 4 58.5 7.5t58.5 7.5q131 2 240.5 8t217.5 6q10 0 17.5 4t15.5 8q92 86 171 176.5t152 184.5t140.5 191.5 t136.5 195.5q33 47 90 33q16 -6 30.5 -25.5t14.5 -42.5q-16 -184 -60 -355t-79 -343q0 -4 -1 -9.5t-1 -7.5q47 -6 92 -20t58 -64q8 -33 -25 -55q-37 -18 -75 -24.5t-78 -12.5q-2 0 -6.5 -4t-4.5 -8q-47 -156 -75.5 -325t-63.5 -328q-4 -10 -10 -20.5t-17 -10.5q-14 0 -20 8 t-10 18q-39 180 -39 361q4 74 12 145.5t25 141.5v6q-10 4 -53.5 5t-94.5 0t-97 -2t-65 -1q-12 0 -47 -21q-84 -57 -156.5 -125.5t-146.5 -132t-155.5 -114t-182.5 -70.5q-29 -4 -53 20zM850 686h2q35 0 92 3t92 3q2 0 4 2l4 4q23 66 35.5 130.5t28.5 127.5 q-25 -29 -59.5 -63.5l-71.5 -71.5t-71 -72.5t-56 -62.5zM1278 1610q-2 8 23 45q23 27 45.5 52.5t44.5 48.5q51 53 113 100q16 14 32.5 4t16.5 -29q0 -23 -21.5 -50.5t-52.5 -54t-63 -48t-52 -33.5q-14 -8 -34.5 -20.5t-35 -17.5t-16.5 3z" />
<glyph unicode="&#xc2;" horiz-adv-x="1447" d="M-43 63q-10 10 1 25.5t28 28.5q123 88 237.5 187t225.5 200q4 4 8 7t14 11q-90 12 -173 34t-169 38q-29 10 -57.5 18.5t-55.5 22.5q-14 16 1.5 19t25.5 3q31 4 58.5 7.5t58.5 7.5q131 2 240.5 8t217.5 6q10 0 17.5 4t15.5 8q92 86 171 176.5t152 184.5t140.5 191.5 t136.5 195.5q33 47 90 33q16 -6 30.5 -25.5t14.5 -42.5q-16 -184 -60 -355t-79 -343q0 -4 -1 -9.5t-1 -7.5q47 -6 92 -20t58 -64q8 -33 -25 -55q-37 -18 -75 -24.5t-78 -12.5q-2 0 -6.5 -4t-4.5 -8q-47 -156 -75.5 -325t-63.5 -328q-4 -10 -10 -20.5t-17 -10.5q-14 0 -20 8 t-10 18q-39 180 -39 361q4 74 12 145.5t25 141.5v6q-10 4 -53.5 5t-94.5 0t-97 -2t-65 -1q-12 0 -47 -21q-84 -57 -156.5 -125.5t-146.5 -132t-155.5 -114t-182.5 -70.5q-29 -4 -53 20zM850 686h2q35 0 92 3t92 3q2 0 4 2l4 4q23 66 35.5 130.5t28.5 127.5 q-25 -29 -59.5 -63.5l-71.5 -71.5t-71 -72.5t-56 -62.5zM1193 1654.5q-3 20.5 11 37.5q31 35 59.5 70.5t59.5 70.5q33 41 80 43t82 -51q29 -41 48 -88t27 -92q6 -16 4 -21.5t-9 -3.5t-16.5 8.5t-19.5 12.5q-23 16 -42 56t-52 79q-41 -41 -74.5 -84t-74.5 -78 q-18 -16 -37 -12t-31 18t-15 34.5z" />
<glyph unicode="&#xc3;" horiz-adv-x="1447" d="M-43 63q-10 10 1 25.5t28 28.5q123 88 237.5 187t225.5 200q4 4 8 7t14 11q-90 12 -173 34t-169 38q-29 10 -57.5 18.5t-55.5 22.5q-14 16 1.5 19t25.5 3q31 4 58.5 7.5t58.5 7.5q131 2 240.5 8t217.5 6q10 0 17.5 4t15.5 8q92 86 171 176.5t152 184.5t140.5 191.5 t136.5 195.5q33 47 90 33q16 -6 30.5 -25.5t14.5 -42.5q-16 -184 -60 -355t-79 -343q0 -4 -1 -9.5t-1 -7.5q47 -6 92 -20t58 -64q8 -33 -25 -55q-37 -18 -75 -24.5t-78 -12.5q-2 0 -6.5 -4t-4.5 -8q-47 -156 -75.5 -325t-63.5 -328q-4 -10 -10 -20.5t-17 -10.5q-14 0 -20 8 t-10 18q-39 180 -39 361q4 74 12 145.5t25 141.5v6q-10 4 -53.5 5t-94.5 0t-97 -2t-65 -1q-12 0 -47 -21q-84 -57 -156.5 -125.5t-146.5 -132t-155.5 -114t-182.5 -70.5q-29 -4 -53 20zM850 686h2q35 0 92 3t92 3q2 0 4 2l4 4q23 66 35.5 130.5t28.5 127.5 q-25 -29 -59.5 -63.5l-71.5 -71.5t-71 -72.5t-56 -62.5zM1175 1669q9 23 27.5 46.5t40 43t31.5 25.5q27 16 54.5 17t54.5 -19q25 -20 42 -42t34.5 -36t37 -17t48.5 15q20 16 41.5 29.5t42.5 27.5q16 10 21 1t1 -25q-33 -113 -135 -133q-47 -10 -75.5 16.5t-52.5 56t-45.5 47 t-51.5 -9.5q-23 -16 -43.5 -36.5t-40.5 -39.5q-10 -10 -25 -4q-16 14 -7 37z" />
<glyph unicode="&#xc4;" horiz-adv-x="1447" d="M-43 63q-10 10 1 25.5t28 28.5q123 88 237.5 187t225.5 200q4 4 8 7t14 11q-90 12 -173 34t-169 38q-29 10 -57.5 18.5t-55.5 22.5q-14 16 1.5 19t25.5 3q31 4 58.5 7.5t58.5 7.5q131 2 240.5 8t217.5 6q10 0 17.5 4t15.5 8q92 86 171 176.5t152 184.5t140.5 191.5 t136.5 195.5q33 47 90 33q16 -6 30.5 -25.5t14.5 -42.5q-16 -184 -60 -355t-79 -343q0 -4 -1 -9.5t-1 -7.5q47 -6 92 -20t58 -64q8 -33 -25 -55q-37 -18 -75 -24.5t-78 -12.5q-2 0 -6.5 -4t-4.5 -8q-47 -156 -75.5 -325t-63.5 -328q-4 -10 -10 -20.5t-17 -10.5q-14 0 -20 8 t-10 18q-39 180 -39 361q4 74 12 145.5t25 141.5v6q-10 4 -53.5 5t-94.5 0t-97 -2t-65 -1q-12 0 -47 -21q-84 -57 -156.5 -125.5t-146.5 -132t-155.5 -114t-182.5 -70.5q-29 -4 -53 20zM850 686h2q35 0 92 3t92 3q2 0 4 2l4 4q23 66 35.5 130.5t28.5 127.5 q-25 -29 -59.5 -63.5l-71.5 -71.5t-71 -72.5t-56 -62.5zM1159 1669q2 39 30 67.5t67 28.5q31 0 51 -22.5t18 -51.5q-4 -41 -22 -67.5t-55 -24.5q-88 6 -89 70zM1405 1669q2 39 30 67.5t66 28.5q31 0 51.5 -22.5t18.5 -51.5q-4 -41 -22.5 -67.5t-55.5 -24.5q-88 6 -88 70z " />
<glyph unicode="&#xc5;" horiz-adv-x="1447" d="M-43 63q-10 10 1 25.5t28 28.5q123 88 237.5 187t225.5 200q4 4 8 7t14 11q-90 12 -173 34t-169 38q-29 10 -57.5 18.5t-55.5 22.5q-14 16 1.5 19t25.5 3q31 4 58.5 7.5t58.5 7.5q131 2 240.5 8t217.5 6q10 0 17.5 4t15.5 8q92 86 171 176.5t152 184.5t140.5 191.5 t136.5 195.5q33 47 90 33q16 -6 30.5 -25.5t14.5 -42.5q-16 -184 -60 -355t-79 -343q0 -4 -1 -9.5t-1 -7.5q47 -6 92 -20t58 -64q8 -33 -25 -55q-37 -18 -75 -24.5t-78 -12.5q-2 0 -6.5 -4t-4.5 -8q-47 -156 -75.5 -325t-63.5 -328q-4 -10 -10 -20.5t-17 -10.5q-14 0 -20 8 t-10 18q-39 180 -39 361q4 74 12 145.5t25 141.5v6q-10 4 -53.5 5t-94.5 0t-97 -2t-65 -1q-12 0 -47 -21q-84 -57 -156.5 -125.5t-146.5 -132t-155.5 -114t-182.5 -70.5q-29 -4 -53 20zM850 686h2q35 0 92 3t92 3q2 0 4 2l4 4q23 66 35.5 130.5t28.5 127.5 q-25 -29 -59.5 -63.5l-71.5 -71.5t-71 -72.5t-56 -62.5zM1267 1697.5q-4 29.5 4.5 57t25.5 54t36 49.5q2 6 8 8q51 41 84 -18h6q29 8 51.5 1t38 -23.5t21.5 -40t2 -46.5q-10 -51 -52 -86t-87 -49q-29 -10 -60 1t-49 34q-25 29 -29 58.5zM1353 1684q25 6 47.5 16t36 24.5 t13.5 33t-19 38.5q-6 6 -13 10.5t-18 14.5q-16 -37 -34.5 -66.5t-12.5 -70.5z" />
<glyph unicode="&#xc6;" horiz-adv-x="2160" d="M-41 63q-10 10 1 25.5t28 28.5q123 88 237.5 187t225.5 200q4 4 8 7t14 11q-90 12 -173 34t-169 38q-29 10 -57.5 18.5t-55.5 22.5q-14 16 1.5 19t25.5 3q31 4 58.5 7.5t58.5 7.5q131 2 240.5 8t218.5 6q10 0 17 4t15 8q121 129 231.5 251t209.5 257q45 66 81.5 124.5 t77.5 115.5q33 47 90 33q16 -6 31 -25.5t15 -42.5q-6 -63 -11.5 -109.5t-13.5 -91.5q66 63 142.5 118.5t153.5 97.5t149.5 69t129.5 31q66 6 111 -23q29 -14 53.5 -33.5t20.5 -54.5q-16 -104 -22.5 -203.5t-6.5 -201.5q-4 -12 -4 -22.5t-14 -14.5q-31 -10 -60 18 q-41 39 -59.5 83t-22.5 90t4.5 93.5t22.5 94.5q-4 10 -41 4q-47 -8 -105.5 -35t-123 -64.5t-127 -84t-116.5 -94.5t-94 -96t-57 -87q-12 -29 -2.5 -49.5t54.5 -20.5q43 0 86 9.5t95 28t118.5 47t156.5 69.5q31 8 34 -12.5t-5 -48t-22.5 -53t-20.5 -31.5q-33 -27 -76 -48.5 t-89 -42t-90 -42t-79 -46.5t-84 -59.5t-101 -75.5t-100.5 -88t-81 -95t-42 -96t15.5 -94q14 -27 50 -35t83 -2.5t103.5 20.5t113.5 38q154 59 286 128t249 153q20 14 37 30q4 6 10 -4t10 -27.5t7 -39t3 -41.5q-6 -70 -57 -123.5t-125 -93.5q-86 -49 -180 -89.5t-191.5 -65 t-197 -27.5t-193.5 24q-29 10 -53.5 25.5t-42.5 37.5q-29 25 -43 54.5t-29 58.5q-12 35 -14 69.5t2 71.5q6 41 20.5 78t32.5 72q8 12 15.5 24.5t17.5 24.5q-27 2 -68 2t-83 -1t-77.5 -2t-50.5 -1q-12 0 -47 -21q-84 -57 -156.5 -125.5t-146.5 -132t-155.5 -114t-182.5 -70.5 q-29 -4 -53 20zM852 686h2q35 0 92.5 3t91.5 3q2 0 4 2q4 4 5 4q23 66 35 130.5t28 127.5q-25 -29 -59.5 -63.5l-71.5 -71.5t-71 -72.5t-56 -62.5z" />
<glyph unicode="&#xc7;" horiz-adv-x="1251" d="M-4 322q0 106 21.5 197t52.5 177q12 39 32 76q59 125 152.5 240.5t207 211t240.5 167t256 108.5q35 12 68 0q10 -4 20.5 -4t22.5 10q31 18 64.5 2t37.5 -57q6 -57 -14 -113q-14 -49 -29.5 -92t-32 -87t-30.5 -95t-25 -117q-2 -10 -7 -23.5t-11 -17.5q-10 -18 -27.5 -21 t-31.5 13q-4 6 -9.5 12t-9.5 15q-20 47 -25.5 106.5t2 119.5t29 112.5t54.5 87.5q-4 0 -14.5 -6.5t-23 -13.5t-22.5 -13t-12 -6q-29 -16 -56.5 -30.5t-52.5 -31.5q-119 -76 -222 -162t-189 -186q-57 -66 -106.5 -140.5t-85.5 -155.5t-55.5 -165t-17.5 -168 q2 -61 14.5 -115.5t41.5 -82.5q45 -43 107.5 -40t135 36.5t152.5 93t156.5 130.5t147.5 147.5t128 146.5q14 12 27.5 34.5t29.5 36.5q16 10 27.5 -6t11.5 -32q-4 -88 -37.5 -161t-80.5 -134q-57 -74 -135 -147t-166.5 -132t-182.5 -96t-182 -37v-10q0 -10 -1 -22.5t-1 -26.5 h57.5t60 -7.5t45 -25t15.5 -51.5q-4 -41 -25.5 -74t-54.5 -57q-106 -84 -219 -9q-25 14 -30 23.5t1.5 14.5t20 7t29.5 2q59 6 116.5 28t79.5 77q-35 2 -64.5 3t-58.5 -3q-23 0 -36 16.5t-9 36.5t9.5 41t11.5 41q-63 8 -110.5 37t-81.5 72t-56.5 95t-34.5 111q-4 18 -7 42 t-3 47z" />
<glyph unicode="&#xc8;" horiz-adv-x="1277" d="M8.5 237.5q-2.5 34.5 1.5 71.5q6 41 20.5 78t32.5 72q49 82 122 146.5t153 109.5q4 4 6 5t6 5q-12 10 -21.5 18.5t-19.5 18.5q0 4 -3 7l-7 7q-23 37 -24 77t14 81q25 72 75 141.5t116.5 134t143 119.5t153.5 97t149.5 69t130.5 31q66 6 110 -23q29 -14 53.5 -33.5 t20.5 -54.5q-16 -104 -22.5 -203.5t-6.5 -201.5q-4 -12 -4 -22.5t-14 -14.5q-31 -10 -59 18q-41 39 -59.5 83t-22.5 90t4 93.5t22 94.5q-4 10 -41 4q-47 -8 -105.5 -35t-123 -64.5t-126.5 -84t-116.5 -94.5t-94.5 -96t-56 -87q-12 -29 -3 -49.5t54 -20.5q43 0 86 9.5t95 28 t119 47t157 69.5q31 8 34 -12.5t-5.5 -48t-23 -53t-20.5 -31.5q-33 -27 -75.5 -48.5t-89 -42t-90.5 -42t-79 -46.5t-84 -59.5t-101 -75.5t-100 -88t-81 -95t-42 -96t15 -94q14 -27 50 -35t83 -2.5t103.5 20.5t113.5 38q154 59 286 128t249 153q20 14 37 30q4 6 10 -4 t10 -27.5t7.5 -39t3.5 -41.5q-6 -70 -57.5 -123.5t-125.5 -93.5q-86 -49 -180 -89.5t-191.5 -65t-197 -27.5t-193.5 24q-29 10 -53 25.5t-43 37.5q-29 25 -43 54.5t-28 58.5q-12 35 -14.5 69.5zM694 1841q0 18 16.5 28.5t33.5 -3.5q61 -47 112 -100q23 -23 45.5 -48.5 t44.5 -52.5q25 -37 23 -45t-16.5 -3t-35 17.5t-34.5 20.5q-20 12 -52 33.5t-63 48t-52.5 54.5t-21.5 50z" />
<glyph unicode="&#xc9;" horiz-adv-x="1277" d="M8.5 237.5q-2.5 34.5 1.5 71.5q6 41 20.5 78t32.5 72q49 82 122 146.5t153 109.5q4 4 6 5t6 5q-12 10 -21.5 18.5t-19.5 18.5q0 4 -3 7l-7 7q-23 37 -24 77t14 81q25 72 75 141.5t116.5 134t143 119.5t153.5 97t149.5 69t130.5 31q66 6 110 -23q29 -14 53.5 -33.5 t20.5 -54.5q-16 -104 -22.5 -203.5t-6.5 -201.5q-4 -12 -4 -22.5t-14 -14.5q-31 -10 -59 18q-41 39 -59.5 83t-22.5 90t4 93.5t22 94.5q-4 10 -41 4q-47 -8 -105.5 -35t-123 -64.5t-126.5 -84t-116.5 -94.5t-94.5 -96t-56 -87q-12 -29 -3 -49.5t54 -20.5q43 0 86 9.5t95 28 t119 47t157 69.5q31 8 34 -12.5t-5.5 -48t-23 -53t-20.5 -31.5q-33 -27 -75.5 -48.5t-89 -42t-90.5 -42t-79 -46.5t-84 -59.5t-101 -75.5t-100 -88t-81 -95t-42 -96t15 -94q14 -27 50 -35t83 -2.5t103.5 20.5t113.5 38q154 59 286 128t249 153q20 14 37 30q4 6 10 -4 t10 -27.5t7.5 -39t3.5 -41.5q-6 -70 -57.5 -123.5t-125.5 -93.5q-86 -49 -180 -89.5t-191.5 -65t-197 -27.5t-193.5 24q-29 10 -53 25.5t-43 37.5q-29 25 -43 54.5t-28 58.5q-12 35 -14.5 69.5zM784 1612q-2 8 23 45q23 27 45.5 52.5t44.5 48.5q51 53 113 100q16 14 32.5 4 t16.5 -29q0 -23 -21.5 -50.5t-52.5 -54t-63 -48t-52 -33.5q-14 -8 -34.5 -20.5t-35 -17.5t-16.5 3z" />
<glyph unicode="&#xca;" horiz-adv-x="1277" d="M8.5 237.5q-2.5 34.5 1.5 71.5q6 41 20.5 78t32.5 72q49 82 122 146.5t153 109.5q4 4 6 5t6 5q-12 10 -21.5 18.5t-19.5 18.5q0 4 -3 7l-7 7q-23 37 -24 77t14 81q25 72 75 141.5t116.5 134t143 119.5t153.5 97t149.5 69t130.5 31q66 6 110 -23q29 -14 53.5 -33.5 t20.5 -54.5q-16 -104 -22.5 -203.5t-6.5 -201.5q-4 -12 -4 -22.5t-14 -14.5q-31 -10 -59 18q-41 39 -59.5 83t-22.5 90t4 93.5t22 94.5q-4 10 -41 4q-47 -8 -105.5 -35t-123 -64.5t-126.5 -84t-116.5 -94.5t-94.5 -96t-56 -87q-12 -29 -3 -49.5t54 -20.5q43 0 86 9.5t95 28 t119 47t157 69.5q31 8 34 -12.5t-5.5 -48t-23 -53t-20.5 -31.5q-33 -27 -75.5 -48.5t-89 -42t-90.5 -42t-79 -46.5t-84 -59.5t-101 -75.5t-100 -88t-81 -95t-42 -96t15 -94q14 -27 50 -35t83 -2.5t103.5 20.5t113.5 38q154 59 286 128t249 153q20 14 37 30q4 6 10 -4 t10 -27.5t7.5 -39t3.5 -41.5q-6 -70 -57.5 -123.5t-125.5 -93.5q-86 -49 -180 -89.5t-191.5 -65t-197 -27.5t-193.5 24q-29 10 -53 25.5t-43 37.5q-29 25 -43 54.5t-28 58.5q-12 35 -14.5 69.5zM710 1652.5q-3 20.5 11 37.5q31 35 59.5 70.5t59.5 70.5q33 41 80 43t82 -51 q29 -41 48 -88t27 -92q6 -16 4 -21.5t-9 -3.5t-16.5 8.5t-19.5 12.5q-23 16 -42 56t-52 79q-41 -41 -74.5 -84t-74.5 -78q-18 -16 -37 -12t-31 18t-15 34.5z" />
<glyph unicode="&#xcb;" horiz-adv-x="1277" d="M8.5 237.5q-2.5 34.5 1.5 71.5q6 41 20.5 78t32.5 72q49 82 122 146.5t153 109.5q4 4 6 5t6 5q-12 10 -21.5 18.5t-19.5 18.5q0 4 -3 7l-7 7q-23 37 -24 77t14 81q25 72 75 141.5t116.5 134t143 119.5t153.5 97t149.5 69t130.5 31q66 6 110 -23q29 -14 53.5 -33.5 t20.5 -54.5q-16 -104 -22.5 -203.5t-6.5 -201.5q-4 -12 -4 -22.5t-14 -14.5q-31 -10 -59 18q-41 39 -59.5 83t-22.5 90t4 93.5t22 94.5q-4 10 -41 4q-47 -8 -105.5 -35t-123 -64.5t-126.5 -84t-116.5 -94.5t-94.5 -96t-56 -87q-12 -29 -3 -49.5t54 -20.5q43 0 86 9.5t95 28 t119 47t157 69.5q31 8 34 -12.5t-5.5 -48t-23 -53t-20.5 -31.5q-33 -27 -75.5 -48.5t-89 -42t-90.5 -42t-79 -46.5t-84 -59.5t-101 -75.5t-100 -88t-81 -95t-42 -96t15 -94q14 -27 50 -35t83 -2.5t103.5 20.5t113.5 38q154 59 286 128t249 153q20 14 37 30q4 6 10 -4 t10 -27.5t7.5 -39t3.5 -41.5q-6 -70 -57.5 -123.5t-125.5 -93.5q-86 -49 -180 -89.5t-191.5 -65t-197 -27.5t-193.5 24q-29 10 -53 25.5t-43 37.5q-29 25 -43 54.5t-28 58.5q-12 35 -14.5 69.5zM735 1673q2 39 30 67.5t67 28.5q31 0 51 -22.5t18 -51.5q-4 -41 -22 -67.5 t-55 -24.5q-88 6 -89 70zM981 1673q2 39 30 67.5t66 28.5q31 0 51.5 -22.5t18.5 -51.5q-4 -41 -22.5 -67.5t-55.5 -24.5q-88 6 -88 70z" />
<glyph unicode="&#xcc;" horiz-adv-x="956" d="M8 -72q4 33 24.5 48.5t43.5 25.5q66 29 129 40t127 28q-33 127 -23 257t46 258t85 253t95 241q25 59 45 106.5t36 94.5q-98 -33 -178 -60.5t-164 -68.5q-35 -18 -53 6q-16 41 -0.5 82t49.5 70q76 57 199 100t255 65.5t258 21.5t208 -32q31 -10 42 -40.5t1 -61.5 q-4 -16 -19.5 -30.5t-34 -23t-39 -8.5t-36.5 13q-10 8 -26.5 10t-30.5 4q-49 2 -118 0t-128 -12q-29 -78 -56.5 -153t-56.5 -148q-45 -115 -85 -229.5t-69.5 -230.5t-47 -232.5t-17.5 -237.5q59 2 116.5 2t110.5 -12q98 -25 183 -92q12 -12 20 -33t-14 -27q-10 -2 -22.5 -2 h-22.5q-182 12 -353.5 10t-345.5 -47q-16 -4 -29.5 -9t-29.5 -11q-39 -16 -59.5 7.5t-14.5 57.5zM563 1822q0 18 16.5 28.5t33.5 -3.5q61 -47 112 -100q23 -23 45.5 -48.5t44.5 -52.5q25 -37 23 -45t-16.5 -3t-35 17.5t-34.5 20.5q-20 12 -52 33.5t-63 48t-52.5 54.5 t-21.5 50z" />
<glyph unicode="&#xcd;" horiz-adv-x="956" d="M8 -72q4 33 24.5 48.5t43.5 25.5q66 29 129 40t127 28q-33 127 -23 257t46 258t85 253t95 241q25 59 45 106.5t36 94.5q-98 -33 -178 -60.5t-164 -68.5q-35 -18 -53 6q-16 41 -0.5 82t49.5 70q76 57 199 100t255 65.5t258 21.5t208 -32q31 -10 42 -40.5t1 -61.5 q-4 -16 -19.5 -30.5t-34 -23t-39 -8.5t-36.5 13q-10 8 -26.5 10t-30.5 4q-49 2 -118 0t-128 -12q-29 -78 -56.5 -153t-56.5 -148q-45 -115 -85 -229.5t-69.5 -230.5t-47 -232.5t-17.5 -237.5q59 2 116.5 2t110.5 -12q98 -25 183 -92q12 -12 20 -33t-14 -27q-10 -2 -22.5 -2 h-22.5q-182 12 -353.5 10t-345.5 -47q-16 -4 -29.5 -9t-29.5 -11q-39 -16 -59.5 7.5t-14.5 57.5zM690 1595q-2 8 23 45q23 27 45.5 52.5t44.5 48.5q51 53 113 100q16 14 32.5 4t16.5 -29q0 -23 -21.5 -50.5t-52.5 -54t-63 -48t-52 -33.5q-14 -8 -34.5 -20.5t-35 -17.5 t-16.5 3z" />
<glyph unicode="&#xce;" horiz-adv-x="956" d="M8 -72q4 33 24.5 48.5t43.5 25.5q66 29 129 40t127 28q-33 127 -23 257t46 258t85 253t95 241q25 59 45 106.5t36 94.5q-98 -33 -178 -60.5t-164 -68.5q-35 -18 -53 6q-16 41 -0.5 82t49.5 70q76 57 199 100t255 65.5t258 21.5t208 -32q31 -10 42 -40.5t1 -61.5 q-4 -16 -19.5 -30.5t-34 -23t-39 -8.5t-36.5 13q-10 8 -26.5 10t-30.5 4q-49 2 -118 0t-128 -12q-29 -78 -56.5 -153t-56.5 -148q-45 -115 -85 -229.5t-69.5 -230.5t-47 -232.5t-17.5 -237.5q59 2 116.5 2t110.5 -12q98 -25 183 -92q12 -12 20 -33t-14 -27q-10 -2 -22.5 -2 h-22.5q-182 12 -353.5 10t-345.5 -47q-16 -4 -29.5 -9t-29.5 -11q-39 -16 -59.5 7.5t-14.5 57.5zM603 1644.5q-3 20.5 11 37.5q31 35 59.5 70.5t59.5 70.5q33 41 80 43t82 -51q29 -41 48 -88t27 -92q6 -16 4 -21.5t-9 -3.5t-16.5 8.5t-19.5 12.5q-23 16 -42 56t-52 79 q-41 -41 -74.5 -84t-74.5 -78q-18 -16 -37 -12t-31 18t-15 34.5z" />
<glyph unicode="&#xcf;" horiz-adv-x="956" d="M8 -72q4 33 24.5 48.5t43.5 25.5q66 29 129 40t127 28q-33 127 -23 257t46 258t85 253t95 241q25 59 45 106.5t36 94.5q-98 -33 -178 -60.5t-164 -68.5q-35 -18 -53 6q-16 41 -0.5 82t49.5 70q76 57 199 100t255 65.5t258 21.5t208 -32q31 -10 42 -40.5t1 -61.5 q-4 -16 -19.5 -30.5t-34 -23t-39 -8.5t-36.5 13q-10 8 -26.5 10t-30.5 4q-49 2 -118 0t-128 -12q-29 -78 -56.5 -153t-56.5 -148q-45 -115 -85 -229.5t-69.5 -230.5t-47 -232.5t-17.5 -237.5q59 2 116.5 2t110.5 -12q98 -25 183 -92q12 -12 20 -33t-14 -27q-10 -2 -22.5 -2 h-22.5q-182 12 -353.5 10t-345.5 -47q-16 -4 -29.5 -9t-29.5 -11q-39 -16 -59.5 7.5t-14.5 57.5zM593 1669q2 39 30 67.5t67 28.5q31 0 51 -22.5t18 -51.5q-4 -41 -22 -67.5t-55 -24.5q-88 6 -89 70zM839 1669q2 39 30 67.5t66 28.5q31 0 51.5 -22.5t18.5 -51.5 q-4 -41 -22.5 -67.5t-55.5 -24.5q-88 6 -88 70z" />
<glyph unicode="&#xd1;" horiz-adv-x="1316" d="M0 158q8 188 35.5 347t68.5 307.5t92.5 294.5t104.5 312q10 33 30.5 39t44 -4t48.5 -33.5t43 -52.5t27.5 -57.5t5.5 -48.5q-20 -80 -55 -162t-80.5 -189.5t-96.5 -254t-106 -353.5q104 119 231 270.5t277.5 301t324.5 282.5t373 217q31 14 57.5 -3t49.5 -40 q33 -29 29.5 -68.5t-17.5 -68.5q-84 -139 -157 -303t-131 -336t-101 -342t-66 -319q-4 -33 -6 -58.5t-2 -64.5q0 -27 -18 -27q-12 0 -24.5 15.5t-20.5 35.5q-35 92 -38 208t14 241t54 256t83 258t99.5 242.5t104.5 209.5q-172 -98 -329.5 -227t-299 -272.5t-264.5 -295 t-225 -294.5q-20 -29 -31.5 -56.5t-26.5 -52.5q-12 -23 -29.5 -14.5t-33.5 34t-27.5 60.5t-11.5 66zM814 1659q9 23 27.5 46.5t40 43t31.5 25.5q27 16 54.5 17t54.5 -19q25 -20 42 -42t34.5 -36t37 -17t48.5 15q20 16 41.5 29.5t42.5 27.5q16 10 21 1t1 -25 q-33 -113 -135 -133q-47 -10 -75.5 16.5t-52.5 56t-45.5 47t-51.5 -9.5q-23 -16 -43.5 -36.5t-40.5 -39.5q-10 -10 -25 -4q-16 14 -7 37z" />
<glyph unicode="&#xd2;" horiz-adv-x="1146" d="M2 377q0 86 8 168t25 164q10 53 22.5 106t24.5 109q14 55 51 65t72 -5t57.5 -48t7.5 -64q-23 -53 -45 -142t-37.5 -189.5t-21.5 -197.5t6 -165q8 -47 29.5 -85t52.5 -34q37 -4 95.5 40t117.5 107.5t110.5 135.5t73.5 123q-80 31 -143.5 92t-108.5 141t-68.5 171.5 t-20.5 182.5t34 174t94 146q84 82 177.5 102.5t185.5 -14.5q78 -29 121 -88t60 -137t15 -167t-16 -178t-34 -169t-36 -139q66 -6 108 -4t103 8q45 6 45 -7.5t-19.5 -32t-46 -35.5t-34.5 -19q-35 -16 -61.5 -27.5t-53 -19t-53.5 -9.5t-59 -2q-37 -66 -92.5 -148.5 t-124 -155.5t-149.5 -122t-167 -49q-98 2 -158.5 45t-93 106.5t-43 135t-10.5 131.5zM484 1006q5 -84 34 -161t78 -140.5t117 -98.5q33 61 59.5 138t40.5 159t16 162t-11 146.5t-45 112.5t-85 62q-78 -29 -124 -88t-65.5 -133.5t-14.5 -158.5zM553 1826q0 18 16.5 28.5 t33.5 -3.5q61 -47 112 -100q23 -23 45.5 -48.5t44.5 -52.5q25 -37 23 -45t-16.5 -3t-35 17.5t-34.5 20.5q-20 12 -52 33.5t-63 48t-52.5 54.5t-21.5 50z" />
<glyph unicode="&#xd3;" horiz-adv-x="1146" d="M2 377q0 86 8 168t25 164q10 53 22.5 106t24.5 109q14 55 51 65t72 -5t57.5 -48t7.5 -64q-23 -53 -45 -142t-37.5 -189.5t-21.5 -197.5t6 -165q8 -47 29.5 -85t52.5 -34q37 -4 95.5 40t117.5 107.5t110.5 135.5t73.5 123q-80 31 -143.5 92t-108.5 141t-68.5 171.5 t-20.5 182.5t34 174t94 146q84 82 177.5 102.5t185.5 -14.5q78 -29 121 -88t60 -137t15 -167t-16 -178t-34 -169t-36 -139q66 -6 108 -4t103 8q45 6 45 -7.5t-19.5 -32t-46 -35.5t-34.5 -19q-35 -16 -61.5 -27.5t-53 -19t-53.5 -9.5t-59 -2q-37 -66 -92.5 -148.5 t-124 -155.5t-149.5 -122t-167 -49q-98 2 -158.5 45t-93 106.5t-43 135t-10.5 131.5zM484 1006q5 -84 34 -161t78 -140.5t117 -98.5q33 61 59.5 138t40.5 159t16 162t-11 146.5t-45 112.5t-85 62q-78 -29 -124 -88t-65.5 -133.5t-14.5 -158.5zM569 1605q-2 8 23 45 q23 27 45.5 52.5t44.5 48.5q51 53 113 100q16 14 32.5 4t16.5 -29q0 -23 -21.5 -50.5t-52.5 -54t-63 -48t-52 -33.5q-14 -8 -34.5 -20.5t-35 -17.5t-16.5 3z" />
<glyph unicode="&#xd4;" horiz-adv-x="1146" d="M2 377q0 86 8 168t25 164q10 53 22.5 106t24.5 109q14 55 51 65t72 -5t57.5 -48t7.5 -64q-23 -53 -45 -142t-37.5 -189.5t-21.5 -197.5t6 -165q8 -47 29.5 -85t52.5 -34q37 -4 95.5 40t117.5 107.5t110.5 135.5t73.5 123q-80 31 -143.5 92t-108.5 141t-68.5 171.5 t-20.5 182.5t34 174t94 146q84 82 177.5 102.5t185.5 -14.5q78 -29 121 -88t60 -137t15 -167t-16 -178t-34 -169t-36 -139q66 -6 108 -4t103 8q45 6 45 -7.5t-19.5 -32t-46 -35.5t-34.5 -19q-35 -16 -61.5 -27.5t-53 -19t-53.5 -9.5t-59 -2q-37 -66 -92.5 -148.5 t-124 -155.5t-149.5 -122t-167 -49q-98 2 -158.5 45t-93 106.5t-43 135t-10.5 131.5zM484 1006q5 -84 34 -161t78 -140.5t117 -98.5q33 61 59.5 138t40.5 159t16 162t-11 146.5t-45 112.5t-85 62q-78 -29 -124 -88t-65.5 -133.5t-14.5 -158.5zM509 1648.5q-3 20.5 11 37.5 q31 35 59.5 70.5t59.5 70.5q33 41 80 43t82 -51q29 -41 48 -88t27 -92q6 -16 4 -21.5t-9 -3.5t-16.5 8.5t-19.5 12.5q-23 16 -42 56t-52 79q-41 -41 -74.5 -84t-74.5 -78q-18 -16 -37 -12t-31 18t-15 34.5z" />
<glyph unicode="&#xd5;" horiz-adv-x="1146" d="M2 377q0 86 8 168t25 164q10 53 22.5 106t24.5 109q14 55 51 65t72 -5t57.5 -48t7.5 -64q-23 -53 -45 -142t-37.5 -189.5t-21.5 -197.5t6 -165q8 -47 29.5 -85t52.5 -34q37 -4 95.5 40t117.5 107.5t110.5 135.5t73.5 123q-80 31 -143.5 92t-108.5 141t-68.5 171.5 t-20.5 182.5t34 174t94 146q84 82 177.5 102.5t185.5 -14.5q78 -29 121 -88t60 -137t15 -167t-16 -178t-34 -169t-36 -139q66 -6 108 -4t103 8q45 6 45 -7.5t-19.5 -32t-46 -35.5t-34.5 -19q-35 -16 -61.5 -27.5t-53 -19t-53.5 -9.5t-59 -2q-37 -66 -92.5 -148.5 t-124 -155.5t-149.5 -122t-167 -49q-98 2 -158.5 45t-93 106.5t-43 135t-10.5 131.5zM468 1669q9 23 27.5 46.5t40 43t31.5 25.5q27 16 54.5 17t54.5 -19q25 -20 42 -42t34.5 -36t37 -17t48.5 15q20 16 41.5 29.5t42.5 27.5q16 10 21 1t1 -25q-33 -113 -135 -133 q-47 -10 -75.5 16.5t-52.5 56t-45.5 47t-51.5 -9.5q-23 -16 -43.5 -36.5t-40.5 -39.5q-10 -10 -25 -4q-16 14 -7 37zM484 1006q5 -84 34 -161t78 -140.5t117 -98.5q33 61 59.5 138t40.5 159t16 162t-11 146.5t-45 112.5t-85 62q-78 -29 -124 -88t-65.5 -133.5t-14.5 -158.5z " />
<glyph unicode="&#xd6;" horiz-adv-x="1146" d="M2 377q0 86 8 168t25 164q10 53 22.5 106t24.5 109q14 55 51 65t72 -5t57.5 -48t7.5 -64q-23 -53 -45 -142t-37.5 -189.5t-21.5 -197.5t6 -165q8 -47 29.5 -85t52.5 -34q37 -4 95.5 40t117.5 107.5t110.5 135.5t73.5 123q-80 31 -143.5 92t-108.5 141t-68.5 171.5 t-20.5 182.5t34 174t94 146q84 82 177.5 102.5t185.5 -14.5q78 -29 121 -88t60 -137t15 -167t-16 -178t-34 -169t-36 -139q66 -6 108 -4t103 8q45 6 45 -7.5t-19.5 -32t-46 -35.5t-34.5 -19q-35 -16 -61.5 -27.5t-53 -19t-53.5 -9.5t-59 -2q-37 -66 -92.5 -148.5 t-124 -155.5t-149.5 -122t-167 -49q-98 2 -158.5 45t-93 106.5t-43 135t-10.5 131.5zM484 1006q5 -84 34 -161t78 -140.5t117 -98.5q33 61 59.5 138t40.5 159t16 162t-11 146.5t-45 112.5t-85 62q-78 -29 -124 -88t-65.5 -133.5t-14.5 -158.5zM534 1665q2 39 30 67.5 t67 28.5q31 0 51 -22.5t18 -51.5q-4 -41 -22 -67.5t-55 -24.5q-88 6 -89 70zM780 1665q2 39 30 67.5t66 28.5q31 0 51.5 -22.5t18.5 -51.5q-4 -41 -22.5 -67.5t-55.5 -24.5q-88 6 -88 70z" />
<glyph unicode="&#xd8;" horiz-adv-x="1146" d="M2 377q0 86 8 168t25 164l47 215q14 55 51 65t72 -5t57.5 -48t7.5 -64q-18 -43 -37.5 -113.5t-35 -151.5t-24.5 -166t-9 -156q47 111 99 225.5t112 230.5q-37 78 -53.5 164t-10.5 170t37 161t90 136q84 82 177.5 102.5t185.5 -14.5q0 -2 4 -2l16 23q14 18 30.5 35.5 t39.5 29.5t36 10t19 -11t7 -21.5t-1 -24.5q-4 -12 -7 -21.5t-7 -19.5l-33 -65q63 -70 79.5 -176.5t7.5 -222t-34.5 -226.5t-46.5 -186q66 -6 108 -4t103 8q45 6 45 -7.5t-19.5 -32t-46 -35.5t-34.5 -19q-35 -16 -61.5 -27.5t-53 -19t-53.5 -9.5t-59 -2q-37 -66 -92.5 -148.5 t-124 -155.5t-149.5 -122t-167 -49q-84 2 -141 35q-16 -27 -34.5 -50.5t-37.5 -45.5q-29 -37 -49 -29t-4 53q10 39 19.5 75t19.5 71q-47 68 -62.5 153.5t-15.5 155.5zM215 76q19 -19 39 -17q37 -4 95.5 40t117.5 107.5t110.5 135.5t73.5 123q-47 16 -87 45t-75 65 q-72 -135 -140 -261t-134 -238zM485.5 1092.5q-6.5 -66.5 3.5 -134.5q59 109 122 210.5t124 193.5q-22 16 -47 24q-63 -23 -105 -67.5t-66.5 -102t-31 -124zM573 735q29 -41 63 -73.5t77 -55.5q33 61 59.5 139t40.5 161t16 163t-12 148z" />
<glyph unicode="&#xd9;" horiz-adv-x="1142" d="M0 244q27 129 70 268t97 275.5t115.5 266.5t125.5 240q-49 -31 -87 -60.5t-70 -63t-59.5 -78t-54.5 -103.5q-12 -6 -32.5 4.5t-40 30.5t-32 46t-7.5 48q14 82 66 144.5t118.5 105.5t135.5 68.5t114 31.5q43 8 75.5 -2t53 -33.5t27 -55t-2.5 -64.5q-6 -49 -48 -144.5 t-102.5 -215t-126 -251t-117.5 -249t-80.5 -209.5t-10.5 -135q8 -18 22.5 -10.5t32.5 16.5q82 35 173 132t183.5 227t182.5 278.5t169 287t143.5 251t105.5 171.5q27 31 57.5 27t53 -29.5t30.5 -63.5t-10 -75q-43 -78 -84 -154.5t-72 -156.5q-45 -119 -85 -249t-68.5 -264.5 t-42 -268.5t-3.5 -259q4 -72 -13 -88t-64 31q-43 43 -64.5 95t-28 110.5t0 122t18.5 131.5q23 125 54.5 245.5t64.5 245.5q-20 -37 -57.5 -113.5t-87.5 -171t-111.5 -196.5t-131 -188.5t-144.5 -146.5t-152 -73q-45 -12 -84 17.5t-67 75t-41 96.5t-7 82zM677 1826 q0 18 16.5 28.5t33.5 -3.5q61 -47 112 -100q23 -23 45.5 -48.5t44.5 -52.5q25 -37 23 -45t-16.5 -3t-35 17.5t-34.5 20.5q-20 12 -52 33.5t-63 48t-52.5 54.5t-21.5 50z" />
<glyph unicode="&#xda;" horiz-adv-x="1142" d="M0 244q27 129 70 268t97 275.5t115.5 266.5t125.5 240q-49 -31 -87 -60.5t-70 -63t-59.5 -78t-54.5 -103.5q-12 -6 -32.5 4.5t-40 30.5t-32 46t-7.5 48q14 82 66 144.5t118.5 105.5t135.5 68.5t114 31.5q43 8 75.5 -2t53 -33.5t27 -55t-2.5 -64.5q-6 -49 -48 -144.5 t-102.5 -215t-126 -251t-117.5 -249t-80.5 -209.5t-10.5 -135q8 -18 22.5 -10.5t32.5 16.5q82 35 173 132t183.5 227t182.5 278.5t169 287t143.5 251t105.5 171.5q27 31 57.5 27t53 -29.5t30.5 -63.5t-10 -75q-43 -78 -84 -154.5t-72 -156.5q-45 -119 -85 -249t-68.5 -264.5 t-42 -268.5t-3.5 -259q4 -72 -13 -88t-64 31q-43 43 -64.5 95t-28 110.5t0 122t18.5 131.5q23 125 54.5 245.5t64.5 245.5q-20 -37 -57.5 -113.5t-87.5 -171t-111.5 -196.5t-131 -188.5t-144.5 -146.5t-152 -73q-45 -12 -84 17.5t-67 75t-41 96.5t-7 82zM782 1610 q-2 8 23 45q23 27 45.5 52.5t44.5 48.5q51 53 113 100q16 14 32.5 4t16.5 -29q0 -23 -21.5 -50.5t-52.5 -54t-63 -48t-52 -33.5q-14 -8 -34.5 -20.5t-35 -17.5t-16.5 3z" />
<glyph unicode="&#xdb;" horiz-adv-x="1142" d="M0 244q27 129 70 268t97 275.5t115.5 266.5t125.5 240q-49 -31 -87 -60.5t-70 -63t-59.5 -78t-54.5 -103.5q-12 -6 -32.5 4.5t-40 30.5t-32 46t-7.5 48q14 82 66 144.5t118.5 105.5t135.5 68.5t114 31.5q43 8 75.5 -2t53 -33.5t27 -55t-2.5 -64.5q-6 -49 -48 -144.5 t-102.5 -215t-126 -251t-117.5 -249t-80.5 -209.5t-10.5 -135q8 -18 22.5 -10.5t32.5 16.5q82 35 173 132t183.5 227t182.5 278.5t169 287t143.5 251t105.5 171.5q27 31 57.5 27t53 -29.5t30.5 -63.5t-10 -75q-43 -78 -84 -154.5t-72 -156.5q-45 -119 -85 -249t-68.5 -264.5 t-42 -268.5t-3.5 -259q4 -72 -13 -88t-64 31q-43 43 -64.5 95t-28 110.5t0 122t18.5 131.5q23 125 54.5 245.5t64.5 245.5q-20 -37 -57.5 -113.5t-87.5 -171t-111.5 -196.5t-131 -188.5t-144.5 -146.5t-152 -73q-45 -12 -84 17.5t-67 75t-41 96.5t-7 82zM708 1640.5 q-3 20.5 11 37.5q31 35 59.5 70.5t59.5 70.5q33 41 80 43t82 -51q29 -41 48 -88t27 -92q6 -16 4 -21.5t-9 -3.5t-16.5 8.5t-19.5 12.5q-23 16 -42 56t-52 79q-41 -41 -74.5 -84t-74.5 -78q-18 -16 -37 -12t-31 18t-15 34.5z" />
<glyph unicode="&#xdc;" horiz-adv-x="1142" d="M0 244q27 129 70 268t97 275.5t115.5 266.5t125.5 240q-49 -31 -87 -60.5t-70 -63t-59.5 -78t-54.5 -103.5q-12 -6 -32.5 4.5t-40 30.5t-32 46t-7.5 48q14 82 66 144.5t118.5 105.5t135.5 68.5t114 31.5q43 8 75.5 -2t53 -33.5t27 -55t-2.5 -64.5q-6 -49 -48 -144.5 t-102.5 -215t-126 -251t-117.5 -249t-80.5 -209.5t-10.5 -135q8 -18 22.5 -10.5t32.5 16.5q82 35 173 132t183.5 227t182.5 278.5t169 287t143.5 251t105.5 171.5q27 31 57.5 27t53 -29.5t30.5 -63.5t-10 -75q-43 -78 -84 -154.5t-72 -156.5q-45 -119 -85 -249t-68.5 -264.5 t-42 -268.5t-3.5 -259q4 -72 -13 -88t-64 31q-43 43 -64.5 95t-28 110.5t0 122t18.5 131.5q23 125 54.5 245.5t64.5 245.5q-20 -37 -57.5 -113.5t-87.5 -171t-111.5 -196.5t-131 -188.5t-144.5 -146.5t-152 -73q-45 -12 -84 17.5t-67 75t-41 96.5t-7 82zM692 1663 q2 39 30 67.5t67 28.5q31 0 51 -22.5t18 -51.5q-4 -41 -22 -67.5t-55 -24.5q-88 6 -89 70zM938 1663q2 39 30 67.5t66 28.5q31 0 51.5 -22.5t18.5 -51.5q-4 -41 -22.5 -67.5t-55.5 -24.5q-88 6 -88 70z" />
<glyph unicode="&#xdd;" horiz-adv-x="1062" d="M47 1124q14 88 70.5 161t134.5 120t167 65.5t169 -2.5q6 0 12 -3t10 -7q18 -14 19.5 -25.5t-13.5 -27.5q-10 -12 -12 -25q-18 -39 -51 -106.5t-66.5 -147t-65.5 -164.5t-48.5 -159t-13.5 -126t38 -67q25 -4 70 40t100.5 114t113.5 159t110.5 177t91.5 165.5t55 127.5 q8 20 18.5 37.5t26.5 17.5q18 0 46 -14.5t52.5 -35t41 -40t14.5 -31.5q-4 -90 -19.5 -175t-38 -172t-50.5 -178t-58 -190q-37 -96 -87 -213.5t-118 -229.5t-153 -203t-189 -134q-41 -18 -84 -17t-85 13t-78 34.5t-60 47.5q-57 61 -65.5 146t19 163t84 135.5t126.5 65.5 q37 0 49 -7t11 -17.5t-10.5 -24t-15.5 -21.5q-43 -41 -72.5 -116.5t-37.5 -148.5t8 -123t70 -42q35 2 89 55.5t116.5 140.5t128 198.5t123 231.5t99.5 240.5t58 223.5q-41 -68 -90 -148t-110.5 -149.5t-135.5 -115.5t-162 -48q-63 2 -108 27.5t-78 66.5q-37 47 -25.5 135 t47 186.5t81.5 193.5t79 159q-51 -18 -94 -54t-80 -77t-66.5 -80t-50.5 -64q-10 -16 -21 -15t-20.5 13.5t-14.5 34t-1 49.5zM755 1610q-2 8 23 45q23 27 45.5 52.5t44.5 48.5q51 53 113 100q16 14 32.5 4t16.5 -29q0 -23 -21.5 -50.5t-52.5 -54t-63 -48t-52 -33.5 q-14 -8 -34.5 -20.5t-35 -17.5t-16.5 3z" />
<glyph unicode="&#xdf;" horiz-adv-x="833" d="M-39 225q2 106 30.5 224t79 228.5t120 204t153.5 154.5q29 16 60.5 31.5t65.5 25t66.5 9.5t65.5 -12q47 -18 76 -60.5t29 -89.5t-17.5 -93t-42 -87t-54.5 -78t-54 -66q137 -8 194.5 -104.5t22.5 -239.5q-16 -55 -51 -100t-82.5 -78t-100.5 -54.5t-104 -29.5 q-33 -6 -64.5 -8t-64.5 4q-39 8 -76 22.5t-68 43.5q-12 8 -19 28.5t11 24.5q31 8 82 12t108.5 12.5t115 23.5t104.5 45t76.5 78t31.5 120q-2 41 -21.5 65.5t-52 34.5t-73.5 9t-86 -9q-16 -4 -30.5 -3t-31.5 3q-45 2 -56 40t20 67q6 6 33.5 32.5t63.5 63.5t75 80t67.5 84 t43 73.5t1.5 51.5q-6 8 -20 8q-68 0 -130.5 -45t-113.5 -109.5t-88 -134.5t-51 -121q-100 -279 -101 -532q-4 -23 -6 -38.5t-22 -19.5q-35 -6 -57.5 17.5t-36 59.5t-17.5 73t-4 59z" />
<glyph unicode="&#xe0;" d="M-74 199q10 53 28.5 112.5t45.5 116.5q45 94 114.5 168t168.5 94q33 8 68.5 3t62 -23.5t41 -46t6.5 -60.5q-4 -12 -9.5 -24.5t-12.5 -20.5t-13 -9t-12 11q-2 6 -5 17.5t-9.5 22.5t-17.5 20.5t-30 9.5q-39 0 -88 -48t-94 -112.5t-78 -129t-41 -97.5q-12 -53 2.5 -56.5 t45 22.5t69.5 71t73.5 89t60.5 77.5t28 35.5q27 20 53.5 18.5t46 -19t26.5 -43t-5 -52.5q-14 -33 -38 -78t-30 -80q-6 -53 12.5 -69.5t67.5 2.5q39 16 82 58t85 89t78.5 90t61.5 64q6 6 15.5 13t15.5 3q10 -4 11 -11t1 -15q-27 -66 -63.5 -129.5t-82.5 -117.5t-102.5 -96 t-122.5 -67q-41 -14 -73.5 -9t-59 23.5t-43 47t-22.5 61.5q-18 -14 -41 -31.5t-49.5 -31t-56 -20.5t-62.5 -1q-25 4 -45.5 17.5t-38.5 31.5t-22.5 53t-2.5 56zM217 1464q0 18 16.5 28.5t33.5 -3.5q61 -47 112 -100q23 -23 45.5 -48.5t44.5 -52.5q25 -37 23 -45t-16.5 -3 t-35 17.5t-34.5 20.5q-20 12 -52 33.5t-63 48t-52.5 54.5t-21.5 50z" />
<glyph unicode="&#xe1;" d="M-74 199q10 53 28.5 112.5t45.5 116.5q45 94 114.5 168t168.5 94q33 8 68.5 3t62 -23.5t41 -46t6.5 -60.5q-4 -12 -9.5 -24.5t-12.5 -20.5t-13 -9t-12 11q-2 6 -5 17.5t-9.5 22.5t-17.5 20.5t-30 9.5q-39 0 -88 -48t-94 -112.5t-78 -129t-41 -97.5q-12 -53 2.5 -56.5 t45 22.5t69.5 71t73.5 89t60.5 77.5t28 35.5q27 20 53.5 18.5t46 -19t26.5 -43t-5 -52.5q-14 -33 -38 -78t-30 -80q-6 -53 12.5 -69.5t67.5 2.5q39 16 82 58t85 89t78.5 90t61.5 64q6 6 15.5 13t15.5 3q10 -4 11 -11t1 -15q-27 -66 -63.5 -129.5t-82.5 -117.5t-102.5 -96 t-122.5 -67q-41 -14 -73.5 -9t-59 23.5t-43 47t-22.5 61.5q-18 -14 -41 -31.5t-49.5 -31t-56 -20.5t-62.5 -1q-25 4 -45.5 17.5t-38.5 31.5t-22.5 53t-2.5 56zM260 1243q-2 8 23 45q23 27 45.5 52.5t44.5 48.5q51 53 113 100q16 14 32.5 4t16.5 -29q0 -23 -21.5 -50.5 t-52.5 -54t-63 -48t-52 -33.5q-14 -8 -34.5 -20.5t-35 -17.5t-16.5 3z" />
<glyph unicode="&#xe2;" d="M-74 199q10 53 28.5 112.5t45.5 116.5q45 94 114.5 168t168.5 94q33 8 68.5 3t62 -23.5t41 -46t6.5 -60.5q-4 -12 -9.5 -24.5t-12.5 -20.5t-13 -9t-12 11q-2 6 -5 17.5t-9.5 22.5t-17.5 20.5t-30 9.5q-39 0 -88 -48t-94 -112.5t-78 -129t-41 -97.5q-12 -53 2.5 -56.5 t45 22.5t69.5 71t73.5 89t60.5 77.5t28 35.5q27 20 53.5 18.5t46 -19t26.5 -43t-5 -52.5q-14 -33 -38 -78t-30 -80q-6 -53 12.5 -69.5t67.5 2.5q39 16 82 58t85 89t78.5 90t61.5 64q6 6 15.5 13t15.5 3q10 -4 11 -11t1 -15q-27 -66 -63.5 -129.5t-82.5 -117.5t-102.5 -96 t-122.5 -67q-41 -14 -73.5 -9t-59 23.5t-43 47t-22.5 61.5q-18 -14 -41 -31.5t-49.5 -31t-56 -20.5t-62.5 -1q-25 4 -45.5 17.5t-38.5 31.5t-22.5 53t-2.5 56zM198 1230.5q-3 20.5 11 37.5q31 35 59.5 70.5t59.5 70.5q33 41 80 43t82 -51q29 -41 48 -88t27 -92 q6 -16 4 -21.5t-9 -3.5t-16.5 8.5t-19.5 12.5q-23 16 -42 56t-52 79q-41 -41 -74.5 -84t-74.5 -78q-18 -16 -37 -12t-31 18t-15 34.5z" />
<glyph unicode="&#xe3;" d="M-74 199q10 53 28.5 112.5t45.5 116.5q45 94 114.5 168t168.5 94q33 8 68.5 3t62 -23.5t41 -46t6.5 -60.5q-4 -12 -9.5 -24.5t-12.5 -20.5t-13 -9t-12 11q-2 6 -5 17.5t-9.5 22.5t-17.5 20.5t-30 9.5q-39 0 -88 -48t-94 -112.5t-78 -129t-41 -97.5q-12 -53 2.5 -56.5 t45 22.5t69.5 71t73.5 89t60.5 77.5t28 35.5q27 20 53.5 18.5t46 -19t26.5 -43t-5 -52.5q-14 -33 -38 -78t-30 -80q-6 -53 12.5 -69.5t67.5 2.5q39 16 82 58t85 89t78.5 90t61.5 64q6 6 15.5 13t15.5 3q10 -4 11 -11t1 -15q-27 -66 -63.5 -129.5t-82.5 -117.5t-102.5 -96 t-122.5 -67q-41 -14 -73.5 -9t-59 23.5t-43 47t-22.5 61.5q-18 -14 -41 -31.5t-49.5 -31t-56 -20.5t-62.5 -1q-25 4 -45.5 17.5t-38.5 31.5t-22.5 53t-2.5 56zM153 1288q9 23 27.5 46.5t40 43t31.5 25.5q27 16 54.5 17t54.5 -19q25 -20 42 -42t34.5 -36t37 -17t48.5 15 q20 16 41.5 29.5t42.5 27.5q16 10 21 1t1 -25q-33 -113 -135 -133q-47 -10 -75.5 16.5t-52.5 56t-45.5 47t-51.5 -9.5q-23 -16 -43.5 -36.5t-40.5 -39.5q-10 -10 -25 -4q-16 14 -7 37z" />
<glyph unicode="&#xe4;" d="M-74 199q10 53 28.5 112.5t45.5 116.5q45 94 114.5 168t168.5 94q33 8 68.5 3t62 -23.5t41 -46t6.5 -60.5q-4 -12 -9.5 -24.5t-12.5 -20.5t-13 -9t-12 11q-2 6 -5 17.5t-9.5 22.5t-17.5 20.5t-30 9.5q-39 0 -88 -48t-94 -112.5t-78 -129t-41 -97.5q-12 -53 2.5 -56.5 t45 22.5t69.5 71t73.5 89t60.5 77.5t28 35.5q27 20 53.5 18.5t46 -19t26.5 -43t-5 -52.5q-14 -33 -38 -78t-30 -80q-6 -53 12.5 -69.5t67.5 2.5q39 16 82 58t85 89t78.5 90t61.5 64q6 6 15.5 13t15.5 3q10 -4 11 -11t1 -15q-27 -66 -63.5 -129.5t-82.5 -117.5t-102.5 -96 t-122.5 -67q-41 -14 -73.5 -9t-59 23.5t-43 47t-22.5 61.5q-18 -14 -41 -31.5t-49.5 -31t-56 -20.5t-62.5 -1q-25 4 -45.5 17.5t-38.5 31.5t-22.5 53t-2.5 56zM170 1311q2 39 30 67.5t67 28.5q31 0 51 -22.5t18 -51.5q-4 -41 -22 -67.5t-55 -24.5q-88 6 -89 70zM416 1311 q2 39 30 67.5t66 28.5q31 0 51.5 -22.5t18.5 -51.5q-4 -41 -22.5 -67.5t-55.5 -24.5q-88 6 -88 70z" />
<glyph unicode="&#xe5;" d="M-74 199q10 53 28.5 112.5t45.5 116.5q45 94 114.5 168t168.5 94q33 8 68.5 3t62 -23.5t41 -46t6.5 -60.5q-4 -12 -9.5 -24.5t-12.5 -20.5t-13 -9t-12 11q-2 6 -5 17.5t-9.5 22.5t-17.5 20.5t-30 9.5q-39 0 -88 -48t-94 -112.5t-78 -129t-41 -97.5q-12 -53 2.5 -56.5 t45 22.5t69.5 71t73.5 89t60.5 77.5t28 35.5q27 20 53.5 18.5t46 -19t26.5 -43t-5 -52.5q-14 -33 -38 -78t-30 -80q-6 -53 12.5 -69.5t67.5 2.5q39 16 82 58t85 89t78.5 90t61.5 64q6 6 15.5 13t15.5 3q10 -4 11 -11t1 -15q-27 -66 -63.5 -129.5t-82.5 -117.5t-102.5 -96 t-122.5 -67q-41 -14 -73.5 -9t-59 23.5t-43 47t-22.5 61.5q-18 -14 -41 -31.5t-49.5 -31t-56 -20.5t-62.5 -1q-25 4 -45.5 17.5t-38.5 31.5t-22.5 53t-2.5 56zM249 1285.5q-4 29.5 4.5 57t25.5 54t36 49.5q2 6 8 8q51 41 84 -18h6q29 8 51.5 1t38 -23.5t21.5 -40t2 -46.5 q-10 -51 -52 -86t-87 -49q-29 -10 -60 1t-49 34q-25 29 -29 58.5zM335 1272q25 6 47.5 16t36 24.5t13.5 33t-19 38.5q-6 6 -13 10.5t-18 14.5q-16 -37 -34.5 -66.5t-12.5 -70.5z" />
<glyph unicode="&#xe6;" horiz-adv-x="868" d="M-74 199q10 53 28.5 112.5t45.5 116.5q45 94 114.5 168t168.5 94q27 6 53 4t51 -11t43.5 -26.5t26.5 -38.5q61 42 139 44q43 -10 66.5 -43t13.5 -80q-8 -45 -23.5 -77t-52.5 -67q-18 -16 -51 -42.5t-63.5 -55.5t-53 -58.5t-22.5 -50.5q-6 -53 16.5 -68.5t58 -12 t72.5 19.5t59 29q27 18 60 45.5t65.5 58.5t63.5 59.5t51 47.5q16 16 29.5 30.5t32.5 24.5q16 4 25 2t-3 -31q-16 -35 -39.5 -65.5t-50.5 -61.5q-37 -41 -79 -86t-88 -83t-96 -65.5t-104 -35.5h-31.5t-31.5 2q-61 4 -112.5 37t-63.5 90q-18 -14 -41 -31.5t-49.5 -31 t-56 -20.5t-62.5 -1q-25 4 -45.5 17.5t-38.5 31.5t-22.5 53t-2.5 56zM50 148.5q9 -9.5 30.5 6t52.5 47t62.5 69.5t61.5 76t48 63q31 89 90 155q-14 25 -43 25q-39 0 -88 -48t-94 -112.5t-78 -129t-41 -97.5q-10 -45 -1 -54.5zM463 418q45 33 81 66.5t52 82.5 q-55 -20 -87 -53t-46 -96z" />
<glyph unicode="&#xe7;" horiz-adv-x="585" d="M-57.5 257q6.5 83 42 160t95 131t131.5 58q23 4 46.5 -13.5t29.5 -39.5q6 -18 2 -41t-11.5 -50.5t-15.5 -60t-14 -67.5q-4 -12 -11.5 -13.5t-13.5 9.5q-23 35 -28 66.5t-11 60.5q-12 0 -31.5 -23.5t-38 -58.5t-30.5 -75t-12 -71q0 -41 12 -61.5t30.5 -24.5t43 2.5 t49.5 18.5q109 51 209 109.5t192 132.5q23 10 28 -1.5t-3 -27.5q-12 -25 -30.5 -45.5t-41.5 -38.5q-47 -43 -78.5 -70.5t-53 -44t-36 -27t-26.5 -18.5q-47 -29 -93.5 -55.5t-87.5 -38.5q-12 -4 -23 -6l-22 -4q0 -8 -1 -17.5t-1 -19.5q20 0 45 -1t46.5 -6t36 -18.5 t12.5 -40.5q-8 -63 -64 -102q-82 -66 -170 -6q-37 23 -23 30t39 7q45 4 91.5 20t62.5 59q-27 2 -50.5 3.5t-45.5 -3.5q-18 0 -28.5 13.5t-6.5 29.5l12 54q-39 4 -71.5 23.5t-53.5 56.5q-35 63 -28.5 146z" />
<glyph unicode="&#xe8;" horiz-adv-x="544" d="M-55 182q-4 78 16.5 162t61 154.5t103 115.5t146.5 48q43 -10 66.5 -43t13.5 -80q-8 -45 -23.5 -77t-52.5 -67q-18 -16 -50.5 -42.5t-63.5 -55.5t-53.5 -58.5t-22.5 -50.5q-6 -53 16.5 -68.5t58.5 -12t72.5 19.5t59.5 29q27 18 59.5 45.5t65.5 58.5t63.5 59.5t50.5 47.5 q16 16 29.5 30.5t32.5 24.5q16 4 25.5 2t-3.5 -31q-16 -35 -39.5 -65.5t-50.5 -61.5q-37 -41 -78.5 -86t-88 -83t-96.5 -65.5t-103 -35.5q-94 -6 -154.5 39t-60.5 147zM114 1464q0 18 16.5 28.5t33.5 -3.5q61 -47 112 -100q23 -23 45.5 -48.5t44.5 -52.5q25 -37 23 -45 t-16.5 -3t-35 17.5t-34.5 20.5q-20 12 -52 33.5t-63 48t-52.5 54.5t-21.5 50zM139 418q45 33 81 66.5t52 82.5q-55 -20 -86.5 -53t-46.5 -96z" />
<glyph unicode="&#xe9;" horiz-adv-x="544" d="M-55 182q-4 78 16.5 162t61 154.5t103 115.5t146.5 48q43 -10 66.5 -43t13.5 -80q-8 -45 -23.5 -77t-52.5 -67q-18 -16 -50.5 -42.5t-63.5 -55.5t-53.5 -58.5t-22.5 -50.5q-6 -53 16.5 -68.5t58.5 -12t72.5 19.5t59.5 29q27 18 59.5 45.5t65.5 58.5t63.5 59.5t50.5 47.5 q16 16 29.5 30.5t32.5 24.5q16 4 25.5 2t-3.5 -31q-16 -35 -39.5 -65.5t-50.5 -61.5q-37 -41 -78.5 -86t-88 -83t-96.5 -65.5t-103 -35.5q-94 -6 -154.5 39t-60.5 147zM139 418q45 33 81 66.5t52 82.5q-55 -20 -86.5 -53t-46.5 -96zM157 1243q-2 8 23 45q23 27 45.5 52.5 t44.5 48.5q51 53 113 100q16 14 32.5 4t16.5 -29q0 -23 -21.5 -50.5t-52.5 -54t-63 -48t-52 -33.5q-14 -8 -34.5 -20.5t-35 -17.5t-16.5 3z" />
<glyph unicode="&#xea;" horiz-adv-x="544" d="M-55 182q-4 78 16.5 162t61 154.5t103 115.5t146.5 48q43 -10 66.5 -43t13.5 -80q-8 -45 -23.5 -77t-52.5 -67q-18 -16 -50.5 -42.5t-63.5 -55.5t-53.5 -58.5t-22.5 -50.5q-6 -53 16.5 -68.5t58.5 -12t72.5 19.5t59.5 29q27 18 59.5 45.5t65.5 58.5t63.5 59.5t50.5 47.5 q16 16 29.5 30.5t32.5 24.5q16 4 25.5 2t-3.5 -31q-16 -35 -39.5 -65.5t-50.5 -61.5q-37 -41 -78.5 -86t-88 -83t-96.5 -65.5t-103 -35.5q-94 -6 -154.5 39t-60.5 147zM95 1230.5q-3 20.5 11 37.5q31 35 59.5 70.5t59.5 70.5q33 41 80 43t82 -51q29 -41 48 -88t27 -92 q6 -16 4 -21.5t-9 -3.5t-16.5 8.5t-19.5 12.5q-23 16 -42 56t-52 79q-41 -41 -74.5 -84t-74.5 -78q-18 -16 -37 -12t-31 18t-15 34.5zM139 418q45 33 81 66.5t52 82.5q-55 -20 -86.5 -53t-46.5 -96z" />
<glyph unicode="&#xeb;" horiz-adv-x="544" d="M-55 182q-4 78 16.5 162t61 154.5t103 115.5t146.5 48q43 -10 66.5 -43t13.5 -80q-8 -45 -23.5 -77t-52.5 -67q-18 -16 -50.5 -42.5t-63.5 -55.5t-53.5 -58.5t-22.5 -50.5q-6 -53 16.5 -68.5t58.5 -12t72.5 19.5t59.5 29q27 18 59.5 45.5t65.5 58.5t63.5 59.5t50.5 47.5 q16 16 29.5 30.5t32.5 24.5q16 4 25.5 2t-3.5 -31q-16 -35 -39.5 -65.5t-50.5 -61.5q-37 -41 -78.5 -86t-88 -83t-96.5 -65.5t-103 -35.5q-94 -6 -154.5 39t-60.5 147zM65 1311q2 39 30 67.5t67 28.5q31 0 51 -22.5t18 -51.5q-4 -41 -22 -67.5t-55 -24.5q-88 6 -89 70z M139 418q45 33 81 66.5t52 82.5q-55 -20 -86.5 -53t-46.5 -96zM311 1311q2 39 30 67.5t66 28.5q31 0 51.5 -22.5t18.5 -51.5q-4 -41 -22.5 -67.5t-55.5 -24.5q-88 6 -88 70z" />
<glyph unicode="&#xec;" horiz-adv-x="440" d="M-41 82q-6 113 19.5 230.5t60.5 213.5q10 29 29 60q18 18 42.5 10t44 -33.5t29 -62.5t-3.5 -74q-10 -35 -18 -66.5t-19 -66.5q-4 -16 -13 -47t-19.5 -65t-18.5 -64.5t-10 -46.5q-4 -31 16.5 -16.5t55.5 48.5q84 86 159.5 167t149.5 163l24 25h2v-4q4 -47 -8 -71t-12 -26 q-20 -31 -55 -79t-73 -98t-73 -92t-55 -60q-25 -29 -53 -54q-10 -8 -27.5 -14t-36 -9t-36 -1t-27.5 10q-35 23 -54.5 54.5t-19.5 68.5zM61 1464q0 18 16.5 28.5t33.5 -3.5q61 -47 112 -100q23 -23 45.5 -48.5t44.5 -52.5q25 -37 23 -45t-16.5 -3t-35 17.5t-34.5 20.5 q-20 12 -52 33.5t-63 48t-52.5 54.5t-21.5 50z" />
<glyph unicode="&#xed;" horiz-adv-x="440" d="M-41 82q-6 113 19.5 230.5t60.5 213.5q10 29 29 60q18 18 42.5 10t44 -33.5t29 -62.5t-3.5 -74q-10 -35 -18 -66.5t-19 -66.5q-4 -16 -13 -47t-19.5 -65t-18.5 -64.5t-10 -46.5q-4 -31 16.5 -16.5t55.5 48.5q84 86 159.5 167t149.5 163l24 25h2v-4q4 -47 -8 -71t-12 -26 q-20 -31 -55 -79t-73 -98t-73 -92t-55 -60q-25 -29 -53 -54q-10 -8 -27.5 -14t-36 -9t-36 -1t-27.5 10q-35 23 -54.5 54.5t-19.5 68.5zM104 1243q-2 8 23 45q23 27 45.5 52.5t44.5 48.5q51 53 113 100q16 14 32.5 4t16.5 -29q0 -23 -21.5 -50.5t-52.5 -54t-63 -48t-52 -33.5 q-14 -8 -34.5 -20.5t-35 -17.5t-16.5 3z" />
<glyph unicode="&#xee;" horiz-adv-x="440" d="M-41 82q-6 113 19.5 230.5t60.5 213.5q10 29 29 60q18 18 42.5 10t44 -33.5t29 -62.5t-3.5 -74q-10 -35 -18 -66.5t-19 -66.5q-4 -16 -13 -47t-19.5 -65t-18.5 -64.5t-10 -46.5q-4 -31 16.5 -16.5t55.5 48.5q84 86 159.5 167t149.5 163l24 25h2v-4q4 -47 -8 -71t-12 -26 q-20 -31 -55 -79t-73 -98t-73 -92t-55 -60q-25 -29 -53 -54q-10 -8 -27.5 -14t-36 -9t-36 -1t-27.5 10q-35 23 -54.5 54.5t-19.5 68.5zM44 1230.5q-3 20.5 11 37.5q31 35 59.5 70.5t59.5 70.5q33 41 80 43t82 -51q29 -41 48 -88t28 -92q6 -16 4 -21.5t-9.5 -3.5t-16.5 8.5 t-19 12.5q-23 16 -42.5 56t-52.5 79q-41 -41 -74.5 -84t-74.5 -78q-18 -16 -36.5 -12t-31 18t-15.5 34.5z" />
<glyph unicode="&#xef;" horiz-adv-x="440" d="M-41 82q-6 113 19.5 230.5t60.5 213.5q10 29 29 60q18 18 42.5 10t44 -33.5t29 -62.5t-3.5 -74q-10 -35 -18 -66.5t-19 -66.5q-4 -16 -13 -47t-19.5 -65t-18.5 -64.5t-10 -46.5q-4 -31 16.5 -16.5t55.5 48.5q84 86 159.5 167t149.5 163l24 25h2v-4q4 -47 -8 -71t-12 -26 q-20 -31 -55 -79t-73 -98t-73 -92t-55 -60q-25 -29 -53 -54q-10 -8 -27.5 -14t-36 -9t-36 -1t-27.5 10q-35 23 -54.5 54.5t-19.5 68.5zM14 1311q2 39 30 67.5t67 28.5q31 0 51 -22.5t18 -51.5q-4 -41 -22.5 -67.5t-55.5 -24.5q-88 6 -88 70zM260 1311q2 39 29.5 67.5 t66.5 28.5q31 0 51.5 -22.5t18.5 -51.5q-4 -41 -22.5 -67.5t-55.5 -24.5q-88 6 -88 70z" />
<glyph unicode="&#xf1;" horiz-adv-x="700" d="M-51 119q-2 45 0 90q6 51 24.5 111.5t44 120t53 111.5t52.5 85q12 18 33.5 20t42 -10t33 -34.5t6.5 -51.5q-2 -2 -8.5 -12t-12.5 -22.5t-12 -23.5t-8 -14q23 16 45 37t45.5 39.5t48 31.5t53.5 13q35 0 61.5 -19.5t44 -47t21.5 -59t-4 -60.5q-18 -55 -51 -107.5 t-67 -103.5t-62.5 -103.5t-40.5 -107.5q-12 -43 -1 -53t29.5 -4t38 20.5t27.5 20.5q84 66 157.5 144.5t145.5 150.5q61 61 76.5 66t4.5 -20.5t-36.5 -68.5t-46.5 -76q-25 -41 -68 -99t-95 -112.5t-107.5 -92.5t-102.5 -38q-35 0 -61.5 15.5t-45 38t-27.5 51t-9 57.5 q0 102 42 200.5t89 180.5q23 43 12.5 59.5t-59.5 -6.5q-41 -18 -76 -66t-64.5 -104.5t-54.5 -111.5t-45 -88q-8 -16 -12 -21q-33 -23 -45 12q-4 16 -6 30.5t-2 31.5zM128 1288q9 23 27.5 46.5t40 43t31.5 25.5q27 16 54.5 17t54.5 -19q25 -20 42 -42t34.5 -36t37 -17 t48.5 15q20 16 41.5 29.5t42.5 27.5q16 10 21 1t1 -25q-33 -113 -135 -133q-47 -10 -75.5 16.5t-52.5 56t-45.5 47t-51.5 -9.5q-23 -16 -43.5 -36.5t-40.5 -39.5q-10 -10 -25 -4q-16 14 -7 37z" />
<glyph unicode="&#xf2;" horiz-adv-x="608" d="M-54 183q-3 50 3 98.5t14 78.5q2 14 6 19.5t8.5 7.5t9.5 4t9 8q6 23 12 47.5t19 45.5q35 61 89 113t126 61q45 8 82.5 -4.5t66.5 -47.5q25 -27 35 -58.5t12 -61t-2 -54.5t-6 -37q25 2 53.5 12.5t53.5 16.5q29 8 60.5 19.5t59.5 17.5q20 0 16.5 -11.5t-19 -26.5t-35 -29.5 t-29.5 -20.5q-49 -23 -97.5 -35t-91.5 -35q-18 -33 -51 -87t-72.5 -105t-83.5 -88t-85 -37q-57 0 -99 33q-31 20 -46 63t-18 93zM106.5 173q2.5 -32 8.5 -60.5t16 -44.5q20 4 46 29.5t49.5 58t41 66.5t23.5 57q-41 -4 -88 -4.5t-88 8.5q-6 -18 -8.5 -48t0 -62zM119 442 q0 -10 4 -14q20 -18 18 -41q0 -10 23.5 -12t53.5 -1t57.5 5t37.5 4q4 0 8.5 4t4.5 8q16 39 15 86t-30 76q-14 16 -36.5 18.5t-43.5 -8.5q-41 -25 -65.5 -57.5t-46.5 -67.5zM145 1464q0 18 16.5 28.5t33.5 -3.5q61 -47 112 -100q23 -23 45.5 -48.5t44.5 -52.5q25 -37 23 -45 t-16.5 -3t-35 17.5t-34.5 20.5q-20 12 -52 33.5t-63 48t-52.5 54.5t-21.5 50z" />
<glyph unicode="&#xf3;" horiz-adv-x="608" d="M-54 183q-3 50 3 98.5t14 78.5q2 14 6 19.5t8.5 7.5t9.5 4t9 8q6 23 12 47.5t19 45.5q35 61 89 113t126 61q45 8 82.5 -4.5t66.5 -47.5q25 -27 35 -58.5t12 -61t-2 -54.5t-6 -37q25 2 53.5 12.5t53.5 16.5q29 8 60.5 19.5t59.5 17.5q20 0 16.5 -11.5t-19 -26.5t-35 -29.5 t-29.5 -20.5q-49 -23 -97.5 -35t-91.5 -35q-18 -33 -51 -87t-72.5 -105t-83.5 -88t-85 -37q-57 0 -99 33q-31 20 -46 63t-18 93zM106.5 173q2.5 -32 8.5 -60.5t16 -44.5q20 4 46 29.5t49.5 58t41 66.5t23.5 57q-41 -4 -88 -4.5t-88 8.5q-6 -18 -8.5 -48t0 -62zM119 442 q0 -10 4 -14q20 -18 18 -41q0 -10 23.5 -12t53.5 -1t57.5 5t37.5 4q4 0 8.5 4t4.5 8q16 39 15 86t-30 76q-14 16 -36.5 18.5t-43.5 -8.5q-41 -25 -65.5 -57.5t-46.5 -67.5zM188 1243q-2 8 23 45q23 27 45.5 52.5t44.5 48.5q51 53 113 100q16 14 32.5 4t16.5 -29 q0 -23 -21.5 -50.5t-52.5 -54t-63 -48t-52 -33.5q-14 -8 -34.5 -20.5t-35 -17.5t-16.5 3z" />
<glyph unicode="&#xf4;" horiz-adv-x="608" d="M-54 183q-3 50 3 98.5t14 78.5q2 14 6 19.5t8.5 7.5t9.5 4t9 8q6 23 12 47.5t19 45.5q35 61 89 113t126 61q45 8 82.5 -4.5t66.5 -47.5q25 -27 35 -58.5t12 -61t-2 -54.5t-6 -37q25 2 53.5 12.5t53.5 16.5q29 8 60.5 19.5t59.5 17.5q20 0 16.5 -11.5t-19 -26.5t-35 -29.5 t-29.5 -20.5q-49 -23 -97.5 -35t-91.5 -35q-18 -33 -51 -87t-72.5 -105t-83.5 -88t-85 -37q-57 0 -99 33q-31 20 -46 63t-18 93zM106.5 173q2.5 -32 8.5 -60.5t16 -44.5q20 4 46 29.5t49.5 58t41 66.5t23.5 57q-41 -4 -88 -4.5t-88 8.5q-6 -18 -8.5 -48t0 -62zM119 442 q0 -10 4 -14q20 -18 18 -41q0 -10 23.5 -12t53.5 -1t57.5 5t37.5 4q4 0 8.5 4t4.5 8q16 39 15 86t-30 76q-14 16 -36.5 18.5t-43.5 -8.5q-41 -25 -65.5 -57.5t-46.5 -67.5zM126 1230.5q-3 20.5 11 37.5q31 35 59.5 70.5t59.5 70.5q33 41 80 43t82 -51q29 -41 48 -88t27 -92 q6 -16 4 -21.5t-9 -3.5t-16.5 8.5t-19.5 12.5q-23 16 -42 56t-52 79q-41 -41 -74.5 -84t-74.5 -78q-18 -16 -37 -12t-31 18t-15 34.5z" />
<glyph unicode="&#xf5;" horiz-adv-x="608" d="M-54 183q-3 50 3 98.5t14 78.5q2 14 6 19.5t8.5 7.5t9.5 4t9 8q6 23 12 47.5t19 45.5q35 61 89 113t126 61q45 8 82.5 -4.5t66.5 -47.5q25 -27 35 -58.5t12 -61t-2 -54.5t-6 -37q25 2 53.5 12.5t53.5 16.5q29 8 60.5 19.5t59.5 17.5q20 0 16.5 -11.5t-19 -26.5t-35 -29.5 t-29.5 -20.5q-49 -23 -97.5 -35t-91.5 -35q-18 -33 -51 -87t-72.5 -105t-83.5 -88t-85 -37q-57 0 -99 33q-31 20 -46 63t-18 93zM83 1288q9 23 27.5 46.5t40 43t31.5 25.5q27 16 54.5 17t54.5 -19q25 -20 42 -42t34.5 -36t37 -17t48.5 15q20 16 41.5 29.5t42.5 27.5 q16 10 21 1t1 -25q-33 -113 -135 -133q-47 -10 -75.5 16.5t-52.5 56t-45.5 47t-51.5 -9.5q-23 -16 -43.5 -36.5t-40.5 -39.5q-10 -10 -25 -4q-16 14 -7 37zM106.5 173q2.5 -32 8.5 -60.5t16 -44.5q20 4 46 29.5t49.5 58t41 66.5t23.5 57q-41 -4 -88 -4.5t-88 8.5 q-6 -18 -8.5 -48t0 -62zM119 442q0 -10 4 -14q20 -18 18 -41q0 -10 23.5 -12t53.5 -1t57.5 5t37.5 4q4 0 8.5 4t4.5 8q16 39 15 86t-30 76q-14 16 -36.5 18.5t-43.5 -8.5q-41 -25 -65.5 -57.5t-46.5 -67.5z" />
<glyph unicode="&#xf6;" horiz-adv-x="608" d="M-54 183q-3 50 3 98.5t14 78.5q2 14 6 19.5t8.5 7.5t9.5 4t9 8q6 23 12 47.5t19 45.5q35 61 89 113t126 61q45 8 82.5 -4.5t66.5 -47.5q25 -27 35 -58.5t12 -61t-2 -54.5t-6 -37q25 2 53.5 12.5t53.5 16.5q29 8 60.5 19.5t59.5 17.5q20 0 16.5 -11.5t-19 -26.5t-35 -29.5 t-29.5 -20.5q-49 -23 -97.5 -35t-91.5 -35q-18 -33 -51 -87t-72.5 -105t-83.5 -88t-85 -37q-57 0 -99 33q-31 20 -46 63t-18 93zM98 1311q2 39 30 67.5t67 28.5q31 0 51 -22.5t18 -51.5q-4 -41 -22 -67.5t-55 -24.5q-88 6 -89 70zM106.5 173q2.5 -32 8.5 -60.5t16 -44.5 q20 4 46 29.5t49.5 58t41 66.5t23.5 57q-41 -4 -88 -4.5t-88 8.5q-6 -18 -8.5 -48t0 -62zM119 442q0 -10 4 -14q20 -18 18 -41q0 -10 23.5 -12t53.5 -1t57.5 5t37.5 4q4 0 8.5 4t4.5 8q16 39 15 86t-30 76q-14 16 -36.5 18.5t-43.5 -8.5q-41 -25 -65.5 -57.5t-46.5 -67.5z M344 1311q2 39 30 67.5t66 28.5q31 0 51.5 -22.5t18.5 -51.5q-4 -41 -22.5 -67.5t-55.5 -24.5q-88 6 -88 70z" />
<glyph unicode="&#xf8;" horiz-adv-x="608" d="M-54 183q-3 50 3 98.5t14 78.5q2 14 6 19.5t8.5 7.5t9.5 4t9 8q6 23 12 47.5t19 45.5q35 61 89 113t126 61q70 10 114 -21l6 8q6 8 13.5 16.5t15.5 14.5q20 10 24.5 -1t2.5 -21q-6 -10 -6 -17l-17 -35q23 -27 32 -58.5t11 -60t-2 -53t-6 -35.5q25 2 53.5 12.5t53.5 16.5 q29 8 60.5 19.5t59.5 17.5q20 0 16.5 -11.5t-19 -26.5t-35 -29.5t-29.5 -20.5q-49 -23 -97.5 -35t-91.5 -35q-18 -33 -51 -87t-72.5 -105t-83.5 -88t-85 -37q-6 0 -13.5 1t-13.5 1l-14 -23q-10 -16 -19.5 -12.5t-3.5 23.5l6 18q-25 10 -41 25q-31 20 -46 63t-18 93z M104.5 231q-2.5 -32 1.5 -67l48 112l-39 7q-8 -20 -10.5 -52zM119 442q0 -10 4 -14q20 -18 18 -41q0 -10 17.5 -13t40.5 -1q25 49 51 97t53 93q-14 10 -35 12t-37 -8q-41 -25 -65.5 -57.5t-46.5 -67.5zM129 72q0 -4 2 -4q20 4 46 29.5t49.5 58t41 66.5t23.5 57l-58 -5z M285 379q10 0 17 2t11 2t8.5 4t4.5 8q20 47 14 101z" />
<glyph unicode="&#xf9;" horiz-adv-x="815" d="M-31 274q4 14 7.5 28.5t9.5 27.5q12 35 29.5 80t36 90t35.5 85t30 64q14 37 42.5 37t52.5 -22.5t36 -59.5t-6 -72q-10 -25 -31 -69.5t-42.5 -92.5t-37.5 -91t-18 -64q0 -45 17 -47t47 22.5t66 68.5t72.5 93t68.5 95.5t54 74.5q29 51 48.5 91t58.5 79q20 8 49 -3 t51.5 -33.5t31.5 -50t-5 -48.5q-37 -47 -67 -80t-56 -84q-14 -33 -32.5 -72.5t-34 -81.5t-24.5 -82t-5 -71q0 -35 34 -29q49 8 108.5 52.5t117 100.5t106.5 110t78 81h2v-16q-20 -74 -63 -133q-16 -20 -40 -58t-42 -61q-43 -47 -81 -83t-91 -64q-25 -12 -54.5 -21.5 t-59.5 -9.5t-56.5 10t-44.5 37q-33 41 -36 97.5t19 115.5l-12 -12l-18.5 -18.5l-19.5 -19.5t-13 -11q-31 -31 -61.5 -53.5t-63.5 -39.5q-27 -12 -46.5 -14t-36 7t-31.5 27.5t-34 43.5q-27 37 -40 72.5t-5 76.5zM247 1464q0 18 16.5 28.5t33.5 -3.5q61 -47 112 -100 q23 -23 45.5 -48.5t44.5 -52.5q25 -37 23 -45t-16.5 -3t-35 17.5t-34.5 20.5q-20 12 -52 33.5t-63 48t-52.5 54.5t-21.5 50z" />
<glyph unicode="&#xfa;" horiz-adv-x="815" d="M-31 274q4 14 7.5 28.5t9.5 27.5q12 35 29.5 80t36 90t35.5 85t30 64q14 37 42.5 37t52.5 -22.5t36 -59.5t-6 -72q-10 -25 -31 -69.5t-42.5 -92.5t-37.5 -91t-18 -64q0 -45 17 -47t47 22.5t66 68.5t72.5 93t68.5 95.5t54 74.5q29 51 48.5 91t58.5 79q20 8 49 -3 t51.5 -33.5t31.5 -50t-5 -48.5q-37 -47 -67 -80t-56 -84q-14 -33 -32.5 -72.5t-34 -81.5t-24.5 -82t-5 -71q0 -35 34 -29q49 8 108.5 52.5t117 100.5t106.5 110t78 81h2v-16q-20 -74 -63 -133q-16 -20 -40 -58t-42 -61q-43 -47 -81 -83t-91 -64q-25 -12 -54.5 -21.5 t-59.5 -9.5t-56.5 10t-44.5 37q-33 41 -36 97.5t19 115.5l-12 -12l-18.5 -18.5l-19.5 -19.5t-13 -11q-31 -31 -61.5 -53.5t-63.5 -39.5q-27 -12 -46.5 -14t-36 7t-31.5 27.5t-34 43.5q-27 37 -40 72.5t-5 76.5zM290 1243q-2 8 23 45q23 27 45.5 52.5t44.5 48.5 q51 53 113 100q16 14 32.5 4t16.5 -29q0 -23 -21.5 -50.5t-52.5 -54t-63 -48t-52 -33.5q-14 -8 -34.5 -20.5t-35 -17.5t-16.5 3z" />
<glyph unicode="&#xfb;" horiz-adv-x="815" d="M-31 274q4 14 7.5 28.5t9.5 27.5q12 35 29.5 80t36 90t35.5 85t30 64q14 37 42.5 37t52.5 -22.5t36 -59.5t-6 -72q-10 -25 -31 -69.5t-42.5 -92.5t-37.5 -91t-18 -64q0 -45 17 -47t47 22.5t66 68.5t72.5 93t68.5 95.5t54 74.5q29 51 48.5 91t58.5 79q20 8 49 -3 t51.5 -33.5t31.5 -50t-5 -48.5q-37 -47 -67 -80t-56 -84q-14 -33 -32.5 -72.5t-34 -81.5t-24.5 -82t-5 -71q0 -35 34 -29q49 8 108.5 52.5t117 100.5t106.5 110t78 81h2v-16q-20 -74 -63 -133q-16 -20 -40 -58t-42 -61q-43 -47 -81 -83t-91 -64q-25 -12 -54.5 -21.5 t-59.5 -9.5t-56.5 10t-44.5 37q-33 41 -36 97.5t19 115.5l-12 -12l-18.5 -18.5l-19.5 -19.5t-13 -11q-31 -31 -61.5 -53.5t-63.5 -39.5q-27 -12 -46.5 -14t-36 7t-31.5 27.5t-34 43.5q-27 37 -40 72.5t-5 76.5zM231 1230.5q-3 20.5 11 37.5q31 35 59.5 70.5t59.5 70.5 q33 41 80 43t82 -51q29 -41 48 -88t27 -92q6 -16 4 -21.5t-9 -3.5t-16.5 8.5t-19.5 12.5q-23 16 -42 56t-52 79q-41 -41 -74.5 -84t-74.5 -78q-18 -16 -37 -12t-31 18t-15 34.5z" />
<glyph unicode="&#xfc;" horiz-adv-x="815" d="M-31 274q4 14 7.5 28.5t9.5 27.5q12 35 29.5 80t36 90t35.5 85t30 64q14 37 42.5 37t52.5 -22.5t36 -59.5t-6 -72q-10 -25 -31 -69.5t-42.5 -92.5t-37.5 -91t-18 -64q0 -45 17 -47t47 22.5t66 68.5t72.5 93t68.5 95.5t54 74.5q29 51 48.5 91t58.5 79q20 8 49 -3 t51.5 -33.5t31.5 -50t-5 -48.5q-37 -47 -67 -80t-56 -84q-14 -33 -32.5 -72.5t-34 -81.5t-24.5 -82t-5 -71q0 -35 34 -29q49 8 108.5 52.5t117 100.5t106.5 110t78 81h2v-16q-20 -74 -63 -133q-16 -20 -40 -58t-42 -61q-43 -47 -81 -83t-91 -64q-25 -12 -54.5 -21.5 t-59.5 -9.5t-56.5 10t-44.5 37q-33 41 -36 97.5t19 115.5l-12 -12l-18.5 -18.5l-19.5 -19.5t-13 -11q-31 -31 -61.5 -53.5t-63.5 -39.5q-27 -12 -46.5 -14t-36 7t-31.5 27.5t-34 43.5q-27 37 -40 72.5t-5 76.5zM200 1311q2 39 30 67.5t67 28.5q31 0 51 -22.5t18 -51.5 q-4 -41 -22 -67.5t-55 -24.5q-88 6 -89 70zM446 1311q2 39 30 67.5t66 28.5q31 0 51.5 -22.5t18.5 -51.5q-4 -41 -22.5 -67.5t-55.5 -24.5q-88 6 -88 70z" />
<glyph unicode="&#xfd;" horiz-adv-x="735" d="M-338 -850q27 127 86 247t142 235.5t183.5 231.5t211.5 234q14 10 26.5 48t20.5 81t11 81t-1 46q-20 -37 -45 -87t-51.5 -96t-53 -80t-51.5 -36q-53 -10 -99 16.5t-56 80.5q-8 45 -8.5 102t6 115.5t17.5 114t24 98.5q10 18 31.5 18t45 -9t41 -23.5t21.5 -28.5 q6 -27 -11.5 -85.5t-38 -122t-32.5 -117.5t4 -69q14 -14 37.5 7.5t50.5 63.5t55.5 98.5t56 111.5t50 102t37.5 72q4 8 19.5 7t31.5 -9t30.5 -21.5t18.5 -29.5q18 -72 12 -155t-22 -156q76 59 148.5 106t156.5 84q8 6 31.5 9t40 1t17.5 -13t-38 -36q-94 -59 -190.5 -135 t-179.5 -143q-14 -10 -19 -33q-16 -115 -57 -254t-99.5 -280.5t-131 -269.5t-152.5 -220q-51 -59 -108.5 -83t-105.5 -11.5t-80 60.5t-34 132zM-255.5 -848.5q-11.5 -60.5 13.5 -85.5q23 -8 66 44t96 139t108.5 194.5t101.5 209t77 183.5t33 117q-53 -57 -117 -138 t-125 -170t-115.5 -181.5t-90.5 -172t-47.5 -140zM251 1243q-2 8 23 45q23 27 45.5 52.5t44.5 48.5q51 53 113 100q16 14 32.5 4t16.5 -29q0 -23 -21.5 -50.5t-52.5 -54t-63 -48t-52 -33.5q-14 -8 -34.5 -20.5t-35 -17.5t-16.5 3z" />
<glyph unicode="&#xff;" horiz-adv-x="735" d="M-338 -850q27 127 86 247t142 235.5t183.5 231.5t211.5 234q14 10 26.5 48t20.5 81t11 81t-1 46q-20 -37 -45 -87t-51.5 -96t-53 -80t-51.5 -36q-53 -10 -99 16.5t-56 80.5q-8 45 -8.5 102t6 115.5t17.5 114t24 98.5q10 18 31.5 18t45 -9t41 -23.5t21.5 -28.5 q6 -27 -11.5 -85.5t-38 -122t-32.5 -117.5t4 -69q14 -14 37.5 7.5t50.5 63.5t55.5 98.5t56 111.5t50 102t37.5 72q4 8 19.5 7t31.5 -9t30.5 -21.5t18.5 -29.5q18 -72 12 -155t-22 -156q76 59 148.5 106t156.5 84q8 6 31.5 9t40 1t17.5 -13t-38 -36q-94 -59 -190.5 -135 t-179.5 -143q-14 -10 -19 -33q-16 -115 -57 -254t-99.5 -280.5t-131 -269.5t-152.5 -220q-51 -59 -108.5 -83t-105.5 -11.5t-80 60.5t-34 132zM-255.5 -848.5q-11.5 -60.5 13.5 -85.5q23 -8 66 44t96 139t108.5 194.5t101.5 209t77 183.5t33 117q-53 -57 -117 -138 t-125 -170t-115.5 -181.5t-90.5 -172t-47.5 -140zM161 1311q2 39 30 67.5t67 28.5q31 0 51 -22.5t18 -51.5q-4 -41 -22 -67.5t-55 -24.5q-88 6 -89 70zM407 1311q2 39 30 67.5t66 28.5q31 0 51.5 -22.5t18.5 -51.5q-4 -41 -22.5 -67.5t-55.5 -24.5q-88 6 -88 70z" />
<glyph unicode="&#x152;" horiz-adv-x="1865" d="M-4 377q0 86 8 168t25 164l47 215q14 55 51 65t71.5 -5t57.5 -48t8 -64q-23 -53 -45 -142t-37.5 -189.5t-21.5 -197.5t6 -165q8 -47 29.5 -85t52.5 -34q37 -4 95 40t117.5 107.5t111 135.5t73.5 123q-80 31 -143.5 92t-108.5 141t-68.5 171.5t-20.5 182.5t34 174t94 146 q84 82 177 102.5t186 -14.5q102 -37 146 -129t48 -207q66 80 151 151t175 124t176 87t154 40q66 6 110 -23q29 -14 53.5 -33.5t20.5 -54.5q-16 -104 -22.5 -203.5t-6.5 -201.5q-4 -12 -4 -22.5t-14 -14.5q-31 -10 -60 18q-41 39 -59 83t-22.5 90t4 93.5t22.5 94.5 q-4 10 -41 4q-47 -8 -105.5 -35t-123 -64.5t-127 -84t-116.5 -94.5t-94 -96t-56 -87q-12 -29 -3 -49.5t54 -20.5q43 0 86 9.5t95 28t118.5 47t156.5 69.5q31 8 34 -12.5t-5 -48t-22.5 -53t-20.5 -31.5q-33 -27 -76 -48.5t-89 -42t-90 -42t-79 -46.5t-84 -59.5t-101 -75.5 t-100.5 -88t-81 -95t-42 -96t15.5 -94q14 -27 50 -35t83 -2.5t103.5 20.5t113.5 38q154 59 286 128t249 153q20 14 37 30q4 6 10 -4t10 -27.5t7 -39t3 -41.5q-6 -70 -57 -123.5t-125 -93.5q-86 -49 -180 -89.5t-191.5 -65t-197 -27.5t-193.5 24q-29 10 -53.5 25.5 t-42.5 37.5q-23 18 -36 39t-23 43q-72 -76 -153 -127t-169 -51q-98 2 -158.5 45t-93.5 106.5t-43 135t-10 131.5zM478 1006q5 -84 34 -161t78 -140.5t117 -98.5q33 61 59.5 138t40.5 159t16 162t-11 146.5t-45 112.5t-85 62q-78 -29 -124 -88t-65.5 -133.5t-14.5 -158.5z " />
<glyph unicode="&#x153;" horiz-adv-x="905" d="M-44 183q-3 50 3 98.5t14 78.5q2 14 6.5 19.5t8.5 7.5t9 4t9 8q6 23 12.5 47.5t18.5 45.5q35 61 89 113t126 61q45 8 83 -4.5t66 -47.5q18 -23 31 -49q39 43 89.5 69t111.5 28q43 -10 66.5 -43t13.5 -80q-8 -45 -23.5 -77t-52.5 -67q-18 -16 -51 -42.5t-63.5 -55.5 t-53.5 -58.5t-23 -50.5q-6 -53 16.5 -68.5t58.5 -12t73 19.5t59 29q27 18 59.5 45.5t65.5 58.5t63.5 59.5t51.5 47.5q16 16 29.5 30.5t31.5 24.5q16 4 25.5 2t-2.5 -31q-16 -35 -40 -65.5t-50 -61.5q-37 -41 -79 -86t-88 -83t-96.5 -65.5t-103.5 -35.5q-86 -4 -144.5 31.5 t-68.5 117.5q-43 -59 -92 -105t-96 -46q-57 0 -99 33q-31 20 -46 63t-18 93zM117 173q2 -32 8 -60.5t16 -44.5q20 4 46 29.5t49.5 58t41 66.5t23.5 57q-41 -4 -88 -4.5t-88 8.5q-6 -18 -8 -48t0 -62zM129 442q0 -10 4 -14q20 -18 19 -41q0 -10 23.5 -12t53 -1t57.5 5t38 4 q4 0 8 4t4 8q0 2 2 4l4 15q12 37 9 76.5t-29 66.5q-14 16 -37 18.5t-43 -8.5q-41 -25 -65.5 -57.5t-47.5 -67.5zM500 418q45 33 81 66.5t52 82.5q-55 -20 -87 -53t-46 -96z" />
<glyph unicode="&#x178;" horiz-adv-x="1062" d="M47 1124q14 88 70.5 161t134.5 120t167 65.5t169 -2.5q6 0 12 -3t10 -7q18 -14 19.5 -25.5t-13.5 -27.5q-10 -12 -12 -25q-18 -39 -51 -106.5t-66.5 -147t-65.5 -164.5t-48.5 -159t-13.5 -126t38 -67q25 -4 70 40t100.5 114t113.5 159t110.5 177t91.5 165.5t55 127.5 q8 20 18.5 37.5t26.5 17.5q18 0 46 -14.5t52.5 -35t41 -40t14.5 -31.5q-4 -90 -19.5 -175t-38 -172t-50.5 -178t-58 -190q-37 -96 -87 -213.5t-118 -229.5t-153 -203t-189 -134q-41 -18 -84 -17t-85 13t-78 34.5t-60 47.5q-57 61 -65.5 146t19 163t84 135.5t126.5 65.5 q37 0 49 -7t11 -17.5t-10.5 -24t-15.5 -21.5q-43 -41 -72.5 -116.5t-37.5 -148.5t8 -123t70 -42q35 2 89 55.5t116.5 140.5t128 198.5t123 231.5t99.5 240.5t58 223.5q-41 -68 -90 -148t-110.5 -149.5t-135.5 -115.5t-162 -48q-63 2 -108 27.5t-78 66.5q-37 47 -25.5 135 t47 186.5t81.5 193.5t79 159q-51 -18 -94 -54t-80 -77t-66.5 -80t-50.5 -64q-10 -16 -21 -15t-20.5 13.5t-14.5 34t-1 49.5zM602 1667q2 39 30 67.5t67 28.5q31 0 51 -22.5t18 -51.5q-4 -41 -22 -67.5t-55 -24.5q-88 6 -89 70zM848 1667q2 39 30 67.5t66 28.5 q31 0 51.5 -22.5t18.5 -51.5q-4 -41 -22.5 -67.5t-55.5 -24.5q-88 6 -88 70z" />
<glyph unicode="&#x2c6;" horiz-adv-x="622" d="M120 1230.5q-3 20.5 11 37.5q31 35 59.5 70.5t59.5 70.5q33 41 80 43t82 -51q29 -41 48 -88t27 -92q6 -16 4 -21.5t-9 -3.5t-16.5 8.5t-19.5 12.5q-23 16 -42 56t-52 79q-41 -41 -74.5 -84t-74.5 -78q-18 -16 -37 -12t-31 18t-15 34.5z" />
<glyph unicode="&#x2dc;" horiz-adv-x="716" d="M128 1288q9 23 27.5 46.5t40 43t31.5 25.5q27 16 54.5 17t54.5 -19q25 -20 42 -42t34.5 -36t37 -17t48.5 15q20 16 41.5 29.5t42.5 27.5q16 10 21 1t1 -25q-33 -113 -135 -133q-47 -10 -75.5 16.5t-52.5 56t-45.5 47t-51.5 -9.5q-23 -16 -43.5 -36.5t-40.5 -39.5 q-10 -10 -25 -4q-16 14 -7 37z" />
<glyph unicode="&#x2000;" horiz-adv-x="941" />
<glyph unicode="&#x2001;" horiz-adv-x="1882" />
<glyph unicode="&#x2002;" horiz-adv-x="941" />
<glyph unicode="&#x2003;" horiz-adv-x="1882" />
<glyph unicode="&#x2004;" horiz-adv-x="627" />
<glyph unicode="&#x2005;" horiz-adv-x="470" />
<glyph unicode="&#x2006;" horiz-adv-x="313" />
<glyph unicode="&#x2007;" horiz-adv-x="313" />
<glyph unicode="&#x2008;" horiz-adv-x="235" />
<glyph unicode="&#x2009;" horiz-adv-x="376" />
<glyph unicode="&#x200a;" horiz-adv-x="104" />
<glyph unicode="&#x2010;" horiz-adv-x="849" d="M88 309q0 33 35 39q131 16 272.5 8t261.5 -55q29 -10 28 -26.5t-36 -16.5q-111 -16 -217 -10t-217 6q-20 0 -42.5 2t-41 7t-31 16.5t-12.5 29.5z" />
<glyph unicode="&#x2011;" horiz-adv-x="849" d="M88 309q0 33 35 39q131 16 272.5 8t261.5 -55q29 -10 28 -26.5t-36 -16.5q-111 -16 -217 -10t-217 6q-20 0 -42.5 2t-41 7t-31 16.5t-12.5 29.5z" />
<glyph unicode="&#x2012;" horiz-adv-x="849" d="M88 309q0 33 35 39q131 16 272.5 8t261.5 -55q29 -10 28 -26.5t-36 -16.5q-111 -16 -217 -10t-217 6q-20 0 -42.5 2t-41 7t-31 16.5t-12.5 29.5z" />
<glyph unicode="&#x2013;" horiz-adv-x="1275" d="M88 309q0 33 60 39q225 16 467.5 8t448.5 -55q50 -10 48 -26.5t-62 -16.5q-190 -16 -372 -10t-372 6q-34 0 -73 2t-70.5 7t-53 16.5t-21.5 29.5z" />
<glyph unicode="&#x2014;" horiz-adv-x="2299" d="M88 309q0 33 120 39q449 16 934.5 8t897.5 -55q99 -10 95.5 -26.5t-123.5 -16.5q-380 -16 -744 -10t-744 6q-69 0 -146 2t-140.5 7t-106.5 16.5t-43 29.5z" />
<glyph unicode="&#x2018;" horiz-adv-x="399" d="M94 1094q4 37 24.5 62.5t43.5 47.5q35 37 80 70q10 10 9 -1t-7 -30.5t-14.5 -39t-10.5 -25.5q-16 -41 -27.5 -66t-39.5 -49q-8 -8 -18.5 -8t-20 6t-15.5 14t-4 19z" />
<glyph unicode="&#x2019;" horiz-adv-x="399" d="M110 1070q1 11 7 30.5t14 39t10 25.5q16 41 27.5 65.5t40.5 49.5q16 16 37.5 2t19.5 -33q-4 -37 -24.5 -62.5t-42.5 -47.5q-35 -37 -80 -70q-10 -10 -9 1z" />
<glyph unicode="&#x201c;" horiz-adv-x="534" d="M94 1094q4 37 24.5 62.5t43.5 47.5q35 37 80 70q10 10 9 -1t-7 -30.5t-14.5 -39t-10.5 -25.5q-16 -41 -27.5 -66t-39.5 -49q-8 -8 -18.5 -8t-20 6t-15.5 14t-4 19zM258 1094q4 37 24.5 62.5t43.5 47.5q35 37 80 70q10 10 9 -1t-7.5 -30.5t-14.5 -39t-10 -25.5 q-16 -41 -27.5 -66t-40.5 -49q-8 -8 -18 -8t-19.5 6t-15.5 14t-4 19z" />
<glyph unicode="&#x201d;" horiz-adv-x="534" d="M110 1070q1 11 7 30.5t14 39t10 25.5q16 41 27.5 65.5t40.5 49.5q16 16 37.5 2t19.5 -33q-4 -37 -24.5 -62.5t-42.5 -47.5q-35 -37 -80 -70q-10 -10 -9 1zM273.5 1070q0.5 11 7 30.5t14.5 39t10 25.5q16 41 27.5 65.5t40.5 49.5q16 16 37.5 2t19.5 -33 q-4 -37 -24.5 -62.5t-43.5 -47.5q-35 -37 -79 -70q-10 -10 -9.5 1z" />
<glyph unicode="&#x202f;" horiz-adv-x="376" />
<glyph unicode="&#x205f;" horiz-adv-x="470" />
<glyph unicode="&#x20ac;" horiz-adv-x="837" d="M-4 624.5q-2 14.5 5 26t26 15.5q35 4 76.5 5t76.5 3q12 2 19.5 4t13.5 14q33 63 87 139t121.5 141.5t145.5 109.5t158 44q39 0 67.5 -16t38.5 -51q2 -8 -1 -20.5t-10 -21.5t-16 -12.5t-18 7.5l-6 6q-8 14 -18 17t-25 -1q-72 -16 -129 -56t-104 -91t-87 -107.5t-73 -105.5 q45 -2 85 -7t79 -10q23 -4 20.5 -15t-22.5 -13q-39 -6 -82 -7t-92 -12q-16 -4 -25 -12q-12 -14 -24.5 -51t-16.5 -60q51 -6 100.5 -9t98.5 -13q8 -2 27.5 -6t32 -8.5t11.5 -9.5t-32 -7q-66 -6 -130.5 -12t-129.5 -10q-16 -102 0 -167t62 -95.5t119 -30.5t171 26q43 12 78 27 q39 18 45 12t-3 -20t-27.5 -31.5t-26.5 -23.5q-86 -66 -168 -92.5t-181 -6.5q-74 12 -118.5 56.5t-66.5 103.5t-25 122.5t8 117.5q-18 4 -38 3t-36 -1q-14 0 -21.5 8t-8.5 19.5t5 20.5t19 13q23 6 48 6h48q10 29 19.5 57.5t19.5 61.5q-37 -4 -66.5 -6t-58.5 -2 q-20 0 -31.5 10t-13.5 24.5z" />
<glyph unicode="&#x25fc;" horiz-adv-x="675" d="M0 0v676h676v-676h-676z" />
</font>
</defs>
</svg>
